<svg xmlns="http://www.w3.org/2000/svg" xmlns:xlink="http://www.w3.org/1999/xlink" x="0px" y="0px" viewBox="0 0 114 114" style="enable-background:new 0 0 114 114; fill:#231F20;" xml:space="preserve"><g transform="translate(0)"><path d="M61.2,55c-0.4,0-0.7,0.3-0.7,0.7c0,0.4,0.3,0.7,0.7,0.7c0.4,0,0.7-0.3,0.7-0.7&#10;&#9;&#9;c0-0.2-0.1-0.4-0.2-0.5C61.6,55.1,61.4,55,61.2,55z"/><path d="M57.2,62.7c-0.4,0-0.7,0.4-0.7,0.8c0,0.4,0.3,0.7,0.7,0.7c0.2,0,0.4-0.1,0.5-0.2&#10;&#9;&#9;c0.3-0.3,0.3-0.7,0-1C57.6,62.8,57.4,62.7,57.2,62.7z"/><path d="M50.1,55.2c0.4,0,0.7-0.3,0.7-0.7c0-0.4-0.3-0.7-0.7-0.7c-0.4,0-0.7,0.3-0.7,0.7&#10;&#9;&#9;c0,0.2,0.1,0.4,0.2,0.5C49.7,55.1,49.9,55.2,50.1,55.2z"/><path d="M46.5,64.6c-0.4,0-0.7,0.3-0.7,0.7c0,0.4,0.3,0.7,0.7,0.7c0.4,0,0.7-0.3,0.7-0.7&#10;&#9;&#9;c0-0.2-0.1-0.4-0.2-0.5C46.9,64.7,46.7,64.6,46.5,64.6z"/><path d="M61.2,46.1c0.1-0.1,0.2-0.3,0.2-0.5c0-0.4-0.3-0.7-0.7-0.7c-0.4,0-0.7,0.3-0.7,0.7&#10;&#9;&#9;c0,0.4,0.3,0.7,0.7,0.7C60.9,46.3,61.1,46.2,61.2,46.1z"/><path d="M42.3,54.4c0,0.4,0.3,0.7,0.7,0.7c0.4,0,0.7-0.3,0.7-0.7c0-0.4-0.3-0.7-0.7-0.7&#10;&#9;&#9;c-0.2,0-0.4,0.1-0.5,0.2C42.4,54.1,42.3,54.2,42.3,54.4z"/><path d="M67.8,64.5c-0.4,0-0.7,0.3-0.7,0.7l0,0c0,0.4,0.3,0.7,0.7,0.7s0.7-0.3,0.7-0.7&#10;&#9;&#9;C68.5,64.8,68.2,64.5,67.8,64.5z"/><path d="M50.8,72.9c0.3-0.3,0.3-0.7,0-1s-0.7-0.3-1,0c-0.3,0.3-0.3,0.7,0,1c0.1,0.1,0.3,0.2,0.5,0.2&#10;&#9;&#9;C50.5,73.1,50.6,73.1,50.8,72.9z"/><path d="M51.2,48c-0.4,0-0.7,0.3-0.7,0.7c0,0.4,0.3,0.7,0.7,0.7c0.4,0,0.7-0.3,0.7-0.7&#10;&#9;&#9;c0-0.2-0.1-0.4-0.2-0.5C51.6,48.1,51.4,48,51.2,48z"/><path d="M60.1,75.8c-0.3,0.3-0.3,0.7,0,1c0.3,0.3,0.7,0.3,1,0c0.3-0.3,0.3-0.7,0-1&#10;&#9;&#9;c-0.1-0.1-0.3-0.2-0.5-0.2C60.4,75.6,60.2,75.7,60.1,75.8z"/><path d="M74.3,54.8c0.4,0,0.7-0.3,0.7-0.7c0-0.4-0.3-0.7-0.7-0.7c-0.4,0-0.7,0.3-0.7,0.7&#10;&#9;&#9;c0,0.2,0.1,0.4,0.2,0.5C73.9,54.8,74.1,54.8,74.3,54.8z"/><path d="M71.5,45.1c-0.3-0.3-0.7-0.3-1,0c-0.3,0.3-0.3,0.7,0,1c0.3,0.3,0.7,0.3,1,0&#10;&#9;&#9;c0.1-0.1,0.2-0.3,0.2-0.5C71.7,45.4,71.7,45.2,71.5,45.1z"/><path d="M40.3,48.2c0-0.4-0.3-0.7-0.7-0.7c-0.4,0-0.7,0.3-0.7,0.7c0,0.4,0.3,0.7,0.7,0.7&#10;&#9;&#9;c0.2,0,0.4-0.1,0.5-0.2C40.3,48.6,40.3,48.4,40.3,48.2z"/><path d="M61,34.2c0.3-0.3,0.3-0.7,0-1c-0.3-0.3-0.7-0.3-1,0c-0.3,0.3-0.3,0.7,0,1&#10;&#9;&#9;c0.1,0.1,0.3,0.2,0.5,0.2C60.7,34.4,60.9,34.3,61,34.2z"/><path d="M66.9,78.5c-0.4,0-0.7,0.3-0.7,0.7s0.3,0.7,0.7,0.7c0.4,0,0.7-0.3,0.7-0.7c0-0.2-0.1-0.4-0.2-0.5&#10;&#9;&#9;C67.2,78.6,67.1,78.5,66.9,78.5z"/><path d="M37.3,73.2c0.3-0.3,0.3-0.7,0-1c-0.3-0.3-0.7-0.3-1,0c-0.3,0.3-0.3,0.7,0,1&#10;&#9;&#9;c0.1,0.1,0.3,0.2,0.5,0.2C37,73.4,37.2,73.3,37.3,73.2z"/><path d="M31.6,64.1c0,0.4,0.3,0.7,0.7,0.7c0.4,0,0.7-0.3,0.7-0.7s-0.3-0.7-0.7-0.7&#10;&#9;&#9;c-0.2,0-0.4,0.1-0.5,0.2C31.7,63.7,31.6,63.9,31.6,64.1z"/><path d="M47.7,32.8c-0.4,0-0.7,0.3-0.7,0.7c0,0.4,0.3,0.7,0.7,0.7c0.4,0,0.7-0.3,0.7-0.7&#10;&#9;&#9;c0-0.2-0.1-0.4-0.2-0.5C48.1,32.9,47.9,32.8,47.7,32.8z"/><path d="M82.1,62.8c0-0.4-0.3-0.7-0.7-0.7c-0.4,0-0.7,0.3-0.7,0.7c0,0.4,0.3,0.7,0.7,0.7&#10;&#9;&#9;c0.2,0,0.4-0.1,0.5-0.2C82,63.1,82.1,62.9,82.1,62.8z"/><path d="M36.9,36c0.4,0,0.7-0.3,0.7-0.7c0-0.4-0.3-0.7-0.7-0.7c-0.4,0-0.7,0.3-0.7,0.7&#10;&#9;&#9;c0,0.2,0.1,0.4,0.2,0.5C36.5,35.9,36.7,36,36.9,36z"/><path d="M77.3,71.7c-0.4,0-0.7,0.3-0.7,0.7c0,0.4,0.3,0.7,0.7,0.7c0.4,0,0.7-0.3,0.7-0.7&#10;&#9;&#9;c0-0.2-0.1-0.4-0.2-0.5C77.6,71.8,77.5,71.7,77.3,71.7z"/><path d="M41.5,80.1c0.3-0.3,0.3-0.7,0-1c-0.3-0.3-0.7-0.3-1,0c-0.3,0.3-0.3,0.7,0,1&#10;&#9;&#9;c0.1,0.1,0.3,0.2,0.5,0.2C41.2,80.3,41.4,80.3,41.5,80.1z"/><path d="M83.7,53.1c-0.4,0-0.7,0.3-0.7,0.7c0,0.4,0.3,0.7,0.7,0.7c0.4,0,0.7-0.3,0.7-0.7&#10;&#9;&#9;c0-0.2-0.1-0.4-0.2-0.5C84.1,53.1,83.9,53.1,83.7,53.1z"/><path d="M30.1,51.2c0.3-0.3,0.3-0.7,0-1c-0.3-0.3-0.7-0.3-1,0c-0.3,0.3-0.3,0.7,0,1&#10;&#9;&#9;c0.1,0.1,0.3,0.2,0.5,0.2C29.8,51.4,30,51.4,30.1,51.2z"/><path d="M81.3,44.1c0.3-0.3,0.3-0.7,0-1c-0.3-0.3-0.7-0.3-1,0c-0.3,0.3-0.3,0.7,0,1&#10;&#9;&#9;C80.5,44.4,81,44.4,81.3,44.1C81.3,44.1,81.3,44.1,81.3,44.1z"/><path d="M72.6,33c-0.3,0.3-0.3,0.7,0,1c0.3,0.3,0.7,0.3,1,0c0.3-0.3,0.3-0.7,0-1&#10;&#9;&#9;c-0.1-0.1-0.3-0.2-0.5-0.2C72.9,32.8,72.7,32.9,72.6,33z"/><path d="M59.2,84.1c-0.4,0-0.7,0.3-0.7,0.7c0,0.4,0.3,0.7,0.7,0.7c0.4,0,0.7-0.3,0.7-0.7&#10;&#9;&#9;c0-0.2-0.1-0.4-0.2-0.5C59.6,84.2,59.4,84.1,59.2,84.1z"/><path d="M62.5,85.8c0,0.4,0.3,0.7,0.7,0.7c0.4,0,0.7-0.3,0.7-0.7c0-0.4-0.3-0.7-0.7-0.7&#10;&#9;&#9;c-0.2,0-0.4,0.1-0.5,0.2C62.5,85.5,62.5,85.6,62.5,85.8z"/><path d="M79.9,79.4c0-0.4-0.3-0.7-0.7-0.7c-0.4,0-0.7,0.3-0.7,0.7c0,0.4,0.3,0.7,0.7,0.7&#10;&#9;&#9;c0.2,0,0.4-0.1,0.5-0.2C79.8,79.8,79.9,79.6,79.9,79.4z"/><path d="M39.4,85.7c-0.4,0-0.7,0.3-0.7,0.7c0,0.4,0.3,0.7,0.7,0.7c0.4,0,0.7-0.3,0.7-0.7&#10;&#9;&#9;c0-0.2-0.1-0.4-0.2-0.5C39.7,85.8,39.6,85.8,39.4,85.7z"/><path d="M24.1,50.6c0-0.4-0.3-0.7-0.7-0.7c-0.4,0-0.7,0.3-0.7,0.7c0,0.4,0.3,0.7,0.7,0.7&#10;&#9;&#9;c0.2,0,0.4-0.1,0.5-0.2C24,51,24.1,50.8,24.1,50.6z"/><path d="M75.2,85.5c-0.3-0.3-0.7-0.3-1,0c-0.3,0.3-0.3,0.7,0,1c0.1,0.1,0.3,0.2,0.5,0.2&#10;&#9;&#9;c0.4,0,0.7-0.3,0.7-0.7C75.4,85.8,75.4,85.6,75.2,85.5z"/><path d="M46.4,27.6c0.4,0,0.7-0.3,0.7-0.7c0-0.4-0.3-0.7-0.7-0.7c-0.4,0-0.7,0.3-0.7,0.7&#10;&#9;&#9;c0,0.2,0.1,0.4,0.2,0.5C46,27.6,46.2,27.6,46.4,27.6z"/><path d="M28.8,38.5c0.3-0.3,0.3-0.7,0-1c-0.3-0.3-0.7-0.3-1,0c-0.3,0.3-0.3,0.7,0,1&#10;&#9;&#9;c0.1,0.1,0.3,0.2,0.5,0.2C28.4,38.8,28.6,38.7,28.8,38.5z"/><path d="M90.7,53.7c-0.4,0-0.7,0.3-0.7,0.7c0,0.4,0.3,0.7,0.7,0.7c0.4,0,0.7-0.3,0.7-0.7&#10;&#9;&#9;c0-0.2-0.1-0.4-0.2-0.5C91.1,53.7,90.9,53.7,90.7,53.7z"/><path d="M28.9,80.9c0.4,0,0.7-0.3,0.7-0.7c0-0.4-0.3-0.7-0.7-0.7c-0.4,0-0.7,0.3-0.7,0.7&#10;&#9;&#9;c0,0.2,0.1,0.4,0.2,0.5C28.6,80.8,28.7,80.9,28.9,80.9z"/><path d="M26.7,68c-0.4,0-0.7,0.3-0.7,0.7c0,0.4,0.3,0.7,0.7,0.7c0.4,0,0.7-0.3,0.7-0.7&#10;&#9;&#9;c0-0.2-0.1-0.4-0.2-0.5C27.1,68,26.9,68,26.7,68z"/><path d="M60.3,21.7c0.3,0.3,0.7,0.3,1,0c0.3-0.3,0.3-0.7,0-1c-0.3-0.3-0.7-0.3-1,0&#10;&#9;&#9;c-0.1,0.1-0.2,0.3-0.2,0.5C60.1,21.4,60.2,21.6,60.3,21.7z"/><path d="M54.6,92.9c-0.4,0-0.7,0.3-0.7,0.7c0,0.4,0.3,0.7,0.7,0.7c0.4,0,0.7-0.3,0.7-0.7&#10;&#9;&#9;c0-0.2-0.1-0.4-0.2-0.5C54.9,93,54.7,92.9,54.6,92.9z"/><path d="M89.3,72c-0.4,0-0.7,0.3-0.7,0.7c0,0.4,0.3,0.7,0.7,0.7c0.4,0,0.7-0.3,0.7-0.7&#10;&#9;&#9;c0-0.2-0.1-0.4-0.2-0.5C89.7,72.1,89.5,72,89.3,72z"/><path d="M50.3,21.8c0.4,0,0.7-0.3,0.7-0.7c0-0.4-0.3-0.7-0.7-0.7c-0.4,0-0.7,0.3-0.7,0.7&#10;&#9;&#9;c0,0.2,0.1,0.4,0.2,0.5C49.9,21.8,50.1,21.8,50.3,21.8z"/><path d="M85.2,33.6c0.3-0.3,0.3-0.7,0-1c-0.3-0.3-0.7-0.3-1,0c-0.3,0.3-0.3,0.7,0,1&#10;&#9;&#9;c0.1,0.1,0.3,0.2,0.5,0.2C84.9,33.8,85.1,33.7,85.2,33.6z"/><path d="M65.4,94.1c0.1-0.1,0.2-0.3,0.2-0.5c0-0.4-0.3-0.7-0.7-0.7c-0.2,0-0.4,0.1-0.5,0.2&#10;&#9;&#9;c-0.1,0.1-0.1,0.1-0.1,0.2c-0.3-0.2-0.8-0.2-1,0.2c-0.2,0.3-0.2,0.8,0.2,1c0.3,0.2,0.7,0.2,0.9-0.1c0.1-0.1,0.1-0.1,0.1-0.2&#10;&#9;&#9;C64.8,94.3,65.2,94.3,65.4,94.1L65.4,94.1z"/><path d="M93.7,66c0.3-0.3,0.3-0.7,0-1c-0.3-0.3-0.7-0.3-1,0c-0.3,0.3-0.3,0.7,0,1&#10;&#9;&#9;c0.1,0.1,0.3,0.2,0.5,0.2C93.4,66.3,93.6,66.2,93.7,66z"/><path d="M43.8,93.6c-0.3,0.3-0.3,0.7,0,1c0.3,0.3,0.7,0.3,1,0c0.3-0.3,0.3-0.7,0-1&#10;&#9;&#9;c-0.1-0.1-0.3-0.2-0.5-0.2C44.1,93.3,43.9,93.4,43.8,93.6z"/><path d="M93.1,43.8c0.3-0.3,0.3-0.7,0-1c-0.3-0.3-0.7-0.3-1,0c-0.3,0.3-0.3,0.7,0,1&#10;&#9;&#9;c0.1,0.1,0.3,0.2,0.5,0.2C92.8,44,93,44,93.1,43.8z"/><path d="M71.1,20.2c-0.4,0-0.7,0.3-0.7,0.7c0,0.4,0.3,0.7,0.7,0.7c0.4,0,0.7-0.3,0.7-0.7&#10;&#9;&#9;c0-0.2-0.1-0.4-0.2-0.5C71.5,20.3,71.3,20.2,71.1,20.2z"/><path d="M18.3,50.5c0-0.4-0.3-0.7-0.7-0.7s-0.7,0.3-0.7,0.7c0,0.4,0.3,0.7,0.7,0.7c0.2,0,0.4-0.1,0.5-0.2&#10;&#9;&#9;C18.3,50.9,18.3,50.7,18.3,50.5z"/><path d="M40.2,21.5c0.4,0,0.7-0.3,0.7-0.7c0-0.4-0.3-0.7-0.7-0.7c-0.4,0-0.7,0.3-0.7,0.7&#10;&#9;&#9;c0,0.2,0.1,0.4,0.2,0.5C39.8,21.4,40,21.5,40.2,21.5z"/><path d="M96.9,54.9c0.3-0.3,0.3-0.7,0-1c-0.3-0.3-0.7-0.3-1,0c-0.3,0.3-0.3,0.7,0,1&#10;&#9;&#9;c0.1,0.1,0.3,0.2,0.5,0.2C96.6,55.1,96.8,55,96.9,54.9z"/><path d="M90.6,79.4c-0.3-0.3-0.7-0.3-1,0c-0.3,0.3-0.3,0.7,0,1c0.3,0.3,0.7,0.3,1,0&#10;&#9;&#9;c0.1-0.1,0.2-0.3,0.2-0.5C90.8,79.7,90.7,79.6,90.6,79.4z"/><path d="M75.2,94.3c0.3-0.3,0.3-0.7,0-1c-0.3-0.3-0.7-0.3-1,0c-0.3,0.3-0.3,0.7,0,1c0,0,0,0,0,0&#10;&#9;&#9;c0.1,0.1,0.3,0.2,0.5,0.2C74.9,94.5,75.1,94.4,75.2,94.3z"/><path d="M85.1,85.7c-0.4,0-0.7,0.3-0.7,0.7s0.3,0.7,0.7,0.7c0.4,0,0.7-0.3,0.7-0.7c0-0.2-0.1-0.4-0.2-0.5&#10;&#9;&#9;C85.5,85.8,85.3,85.7,85.1,85.7z"/><path d="M26.3,29.7c0.3-0.3,0.3-0.7,0-1c-0.3-0.3-0.7-0.3-1,0c-0.3,0.3-0.3,0.7,0,1&#10;&#9;&#9;c0.1,0.1,0.3,0.2,0.5,0.2C25.9,29.9,26.1,29.9,26.3,29.7z"/><path d="M34.3,95.3c0.3,0.3,0.7,0.3,1,0s0.3-0.7,0-1c-0.3-0.3-0.7-0.3-1,0c-0.1,0.1-0.2,0.3-0.2,0.5&#10;&#9;&#9;C34.1,94.9,34.2,95.1,34.3,95.3z"/><path d="M54.2,101.3c0.4,0,0.7-0.3,0.7-0.7c0-0.4-0.3-0.7-0.7-0.7c-0.4,0-0.7,0.3-0.7,0.7&#10;&#9;&#9;c0,0.2,0.1,0.4,0.2,0.5C53.9,101.2,54,101.3,54.2,101.3z"/><path d="M80.9,20.9c0.3-0.3,0.3-0.7,0-1c-0.3-0.3-0.7-0.3-1,0s-0.3,0.7,0,1c0.1,0.1,0.3,0.2,0.5,0.2&#10;&#9;&#9;C80.6,21.1,80.8,21.1,80.9,20.9z"/><path d="M57.4,12.4c-0.4,0-0.7,0.3-0.7,0.7c0,0.4,0.3,0.7,0.7,0.7c0.4,0,0.7-0.3,0.7-0.7&#10;&#9;&#9;c0-0.2-0.1-0.4-0.2-0.5C57.7,12.5,57.5,12.4,57.4,12.4z"/><path d="M17.7,36.7c-0.4,0-0.7,0.3-0.7,0.7c0,0.4,0.3,0.7,0.7,0.7c0.4,0,0.7-0.3,0.7-0.7&#10;&#9;&#9;c0-0.2-0.1-0.4-0.2-0.5C18,36.8,17.9,36.7,17.7,36.7z"/><path d="M95.8,36.6c0.4,0,0.7-0.3,0.7-0.7c0-0.4-0.3-0.7-0.7-0.7c-0.4,0-0.7,0.3-0.7,0.7&#10;&#9;&#9;c0,0.2,0.1,0.4,0.2,0.5C95.5,36.5,95.6,36.6,95.8,36.6z"/><path d="M17.9,80.9c0,0.4,0.3,0.7,0.7,0.7c0.4,0,0.7-0.3,0.7-0.7c0-0.4-0.3-0.7-0.7-0.7&#10;&#9;&#9;c-0.2,0-0.4,0.1-0.5,0.2C18,80.5,17.9,80.7,17.9,80.9z"/><path d="M66.6,101.5c0.4,0,0.7-0.3,0.7-0.7c0-0.4-0.3-0.7-0.7-0.7c-0.4,0-0.7,0.3-0.7,0.7&#10;&#9;&#9;c0,0.2,0.1,0.4,0.2,0.5C66.2,101.4,66.4,101.5,66.6,101.5z"/><path d="M12.5,64.8c0.4,0,0.7-0.3,0.7-0.7c0-0.4-0.3-0.7-0.7-0.7c-0.4,0-0.7,0.3-0.7,0.7&#10;&#9;&#9;c0,0.2,0.1,0.4,0.2,0.5C12.1,64.7,12.3,64.8,12.5,64.8z"/><path d="M101.2,62.7c0.4,0,0.7-0.3,0.7-0.7s-0.3-0.7-0.7-0.7c-0.4,0-0.7,0.3-0.7,0.7&#10;&#9;&#9;c0,0.2,0.1,0.4,0.2,0.5C100.9,62.6,101.1,62.7,101.2,62.7z"/><path d="M32,20.1c0-0.4-0.3-0.7-0.7-0.7c-0.4,0-0.7,0.3-0.7,0.7c0,0.2,0.1,0.4,0.2,0.5&#10;&#9;&#9;c0.1,0.1,0.3,0.2,0.5,0.2C31.6,20.8,32,20.5,32,20.1C32,20.1,32,20.1,32,20.1z"/><path d="M45.3,100.5c-0.4,0-0.7,0.3-0.7,0.7c0,0.4,0.3,0.7,0.7,0.7c0.4,0,0.7-0.3,0.7-0.7&#10;&#9;&#9;c0-0.2-0.1-0.4-0.2-0.5C45.6,100.5,45.4,100.5,45.3,100.5z"/><path d="M13.3,73.7c0,0.4,0.3,0.7,0.7,0.7c0.4,0,0.7-0.3,0.7-0.7c0-0.4-0.3-0.7-0.7-0.7&#10;&#9;&#9;c-0.2,0-0.4,0.1-0.5,0.2C13.4,73.4,13.3,73.5,13.3,73.7z"/><path d="M93.1,29.8c0.4,0,0.7-0.3,0.7-0.7c0-0.4-0.3-0.7-0.7-0.7c-0.4,0-0.7,0.3-0.7,0.7&#10;&#9;&#9;c0,0.2,0.1,0.4,0.2,0.5C92.7,29.7,92.9,29.8,93.1,29.8z"/><path d="M99.3,74c0.4,0,0.7-0.3,0.8-0.7s-0.3-0.7-0.7-0.8c0,0,0,0-0.1,0c-0.4,0-0.7,0.3-0.7,0.7&#10;&#9;&#9;C98.6,73.7,98.9,74,99.3,74z"/><path d="M83.8,93.8c-0.3-0.3-0.7-0.3-1,0c-0.3,0.3-0.3,0.7,0,1c0.3,0.3,0.7,0.3,1,0&#10;&#9;&#9;c0.1-0.1,0.2-0.3,0.2-0.5C84,94.2,83.9,94,83.8,93.8z"/><path d="M11.8,50.9c0.3-0.3,0.3-0.7,0-1c-0.3-0.3-0.7-0.3-1,0c-0.3,0.3-0.3,0.7,0,1&#10;&#9;&#9;c0.1,0.1,0.3,0.2,0.5,0.2C11.5,51.1,11.7,51.1,11.8,50.9z"/><path d="M41.9,13.3c0.4,0,0.7-0.3,0.7-0.7c0,0,0,0,0,0c0,0,0-0.1,0-0.1c0.4,0.2,0.8,0,0.9-0.4&#10;&#9;&#9;c0-0.1,0.1-0.2,0.1-0.3c0-0.4-0.3-0.7-0.7-0.8c-0.4,0-0.7,0.3-0.8,0.7c0,0,0,0,0,0.1c0,0,0,0.1,0,0.1c-0.4-0.1-0.8,0-0.9,0.4&#10;&#9;&#9;c-0.1,0.4,0,0.8,0.4,0.9C41.7,13.2,41.8,13.3,41.9,13.3L41.9,13.3z"/><path d="M72.8,13.3c0.4,0,0.7-0.3,0.7-0.7c0-0.4-0.3-0.7-0.7-0.7c-0.4,0-0.7,0.3-0.7,0.7&#10;&#9;&#9;c0,0.2,0.1,0.4,0.2,0.5C72.4,13.2,72.6,13.3,72.8,13.3z"/><path d="M104,51c0.3-0.3,0.3-0.7,0-1c-0.3-0.3-0.7-0.3-1,0c-0.3,0.3-0.3,0.7,0,1c0.1,0.1,0.3,0.2,0.5,0.2&#10;&#9;&#9;C103.7,51.2,103.8,51.1,104,51z"/><path d="M102.8,43.4c0.3-0.3,0.3-0.7,0-1c-0.3-0.3-0.7-0.3-1,0c-0.3,0.3-0.3,0.7,0,1&#10;&#9;&#9;c0.1,0.1,0.3,0.2,0.5,0.2C102.4,43.6,102.6,43.5,102.8,43.4z"/><path d="M20.6,88c0-0.4-0.3-0.7-0.7-0.7c-0.4,0-0.7,0.3-0.7,0.7c0,0.4,0.3,0.7,0.7,0.7&#10;&#9;&#9;c0.2,0,0.4-0.1,0.5-0.2C20.5,88.4,20.6,88.2,20.6,88z"/><path d="M37.6,101.3c-0.3,0.3-0.3,0.7,0,1c0.3,0.3,0.7,0.3,1,0c0.1-0.1,0.2-0.3,0.2-0.5&#10;&#9;&#9;c0-0.2-0.1-0.4-0.2-0.5C38.3,101,37.9,101,37.6,101.3L37.6,101.3z"/><path d="M94.2,87.8c0.3-0.3,0.3-0.7,0-1c-0.3-0.3-0.7-0.3-1,0c-0.3,0.3-0.3,0.7,0,1&#10;&#9;&#9;c0.1,0.1,0.3,0.2,0.5,0.2C93.9,88,94.1,87.9,94.2,87.8z"/><path d="M62.2,105.1c0,0.2,0.1,0.4,0.2,0.5c0.3,0.3,0.7,0.3,1,0s0.3-0.7,0-1c-0.3-0.3-0.7-0.3-1,0&#10;&#9;&#9;C62.3,104.7,62.2,104.9,62.2,105.1z"/><path d="M71,8.9c0.4,0,0.7-0.3,0.7-0.7c0-0.4-0.3-0.7-0.7-0.7c-0.4,0-0.7,0.3-0.7,0.7&#10;&#9;&#9;c0,0.2,0.1,0.4,0.2,0.5C70.6,8.8,70.8,8.9,71,8.9z"/><path d="M59.5,9.6c0.4,0,0.7-0.3,0.7-0.7c0-0.4-0.3-0.7-0.7-0.7c-0.4,0-0.7,0.3-0.7,0.7&#10;&#9;&#9;c0,0.2,0.1,0.4,0.2,0.5C59.1,9.5,59.3,9.6,59.5,9.6z"/><path d="M26.1,95.6c0,0.4,0.3,0.7,0.7,0.7c0.4,0,0.7-0.3,0.7-0.7c0-0.4-0.3-0.7-0.7-0.7&#10;&#9;&#9;c-0.2,0-0.4,0.1-0.5,0.2C26.2,95.2,26.1,95.4,26.1,95.6z"/><path d="M49.7,104.6c-0.4,0-0.7,0.3-0.7,0.7c0,0.4,0.3,0.7,0.7,0.7c0.4,0,0.7-0.3,0.7-0.7&#10;&#9;&#9;c0-0.2-0.1-0.4-0.2-0.5C50,104.7,49.8,104.6,49.7,104.6z"/><path d="M98.4,81.2c0.3,0.3,0.7,0.3,1,0c0.3-0.3,0.3-0.7,0-1c-0.3-0.3-0.7-0.3-1,0&#10;&#9;&#9;c-0.1,0.1-0.2,0.3-0.2,0.5C98.2,80.9,98.2,81,98.4,81.2z"/><path d="M17.9,28.9c0.3-0.3,0.3-0.7,0-1c-0.3-0.3-0.7-0.3-1,0s-0.3,0.7,0,1c0.1,0.1,0.3,0.2,0.5,0.2&#10;&#9;&#9;C17.6,29.1,17.7,29,17.9,28.9z"/><path d="M106,61.5c-0.3-0.3-0.7-0.3-1,0c-0.3,0.3-0.3,0.7,0,1c0.3,0.3,0.7,0.3,1,0&#10;&#9;&#9;c0.1-0.1,0.2-0.3,0.2-0.5C106.2,61.9,106.1,61.7,106,61.5z"/><path d="M49.1,7.7c0-0.4-0.3-0.7-0.7-0.7c-0.4,0-0.7,0.3-0.7,0.7c0,0.4,0.3,0.7,0.7,0.7&#10;&#9;&#9;c0.2,0,0.4-0.1,0.5-0.2C49.1,8,49.1,7.9,49.1,7.7z"/><path d="M34.7,11.2c0.1,0,0.2,0,0.3-0.1c0,0,0.1,0,0.1,0c0.4,0,0.7-0.3,0.7-0.7c0-0.4-0.3-0.7-0.7-0.7&#10;&#9;&#9;c-0.1,0-0.2,0-0.3,0.1c0,0-0.1,0-0.1,0c-0.4,0-0.7,0.3-0.7,0.7C34,10.9,34.3,11.2,34.7,11.2C34.7,11.2,34.7,11.2,34.7,11.2&#10;&#9;&#9;L34.7,11.2z"/><path d="M23.6,19.7c0.3,0.3,0.7,0.3,1,0c0.3-0.3,0.3-0.7,0-1c-0.3-0.3-0.7-0.3-1,0&#10;&#9;&#9;c-0.1,0.1-0.2,0.3-0.2,0.5C23.4,19.4,23.4,19.5,23.6,19.7z"/><path d="M80.2,101c-0.4,0-0.7,0.3-0.7,0.7c0,0.4,0.3,0.7,0.7,0.7c0.4,0,0.7-0.3,0.7-0.7&#10;&#9;&#9;c0-0.2-0.1-0.4-0.2-0.5C80.6,101,80.4,101,80.2,101z"/><path d="M7.1,66.1C7.1,66.1,7.1,66.1,7.1,66.1c0.3,0.3,0.8,0.3,1,0c0.3-0.3,0.3-0.7,0-1&#10;&#9;&#9;c-0.1-0.1-0.3-0.2-0.5-0.2c-0.1,0-0.2,0-0.2,0c0,0,0,0,0,0c-0.3-0.3-0.7-0.3-1,0c-0.3,0.3-0.3,0.7,0,1c0.1,0.1,0.3,0.2,0.5,0.2&#10;&#9;&#9;C7,66.1,7.1,66.1,7.1,66.1z"/><path d="M90,94.5c-0.4,0-0.7,0.3-0.7,0.7s0.3,0.7,0.7,0.7c0.4,0,0.7-0.3,0.7-0.7c0-0.2-0.1-0.4-0.2-0.5&#10;&#9;&#9;C90.4,94.6,90.2,94.5,90,94.5z"/><path d="M5.6,54.8c0.3,0.3,0.7,0.3,1,0c0.3-0.3,0.3-0.7,0-1c-0.3-0.3-0.7-0.3-1,0&#10;&#9;&#9;c-0.1,0.1-0.2,0.3-0.2,0.5C5.4,54.4,5.5,54.6,5.6,54.8z"/><path d="M32.2,101.9c-0.4,0-0.7,0.3-0.7,0.7c0,0.4,0.3,0.7,0.7,0.7c0.4,0,0.7-0.3,0.7-0.7&#10;&#9;&#9;c0-0.2-0.1-0.4-0.2-0.5C32.6,102,32.4,101.9,32.2,101.9z"/><path d="M10.2,34.4c-0.3,0.3-0.3,0.7,0,1c0.3,0.3,0.7,0.3,1,0c0.3-0.3,0.3-0.7,0-1&#10;&#9;&#9;c-0.1-0.1-0.3-0.2-0.5-0.2C10.5,34.2,10.3,34.3,10.2,34.4z"/><path d="M104.1,34.6c-0.3-0.3-0.7-0.3-1,0c-0.3,0.3-0.3,0.7,0,1c0.3,0.3,0.7,0.3,1,0&#10;&#9;&#9;c0.1-0.1,0.2-0.3,0.2-0.5C104.3,34.9,104.2,34.7,104.1,34.6z"/><path d="M11.7,82.2c0.3-0.3,0.3-0.7,0-1c-0.3-0.3-0.7-0.3-1,0c-0.3,0.3-0.3,0.7,0,1&#10;&#9;&#9;c0.1,0.1,0.3,0.2,0.5,0.2C11.4,82.4,11.5,82.4,11.7,82.2z"/><path d="M7.7,41.8c-0.3-0.3-0.7-0.3-1,0c-0.3,0.3-0.3,0.7,0,1C6.9,43,7.2,43.1,7.4,43c0,0,0,0,0,0&#10;&#9;&#9;c0,0.4,0.3,0.7,0.7,0.7c0.4,0,0.7-0.3,0.7-0.7c0-0.4-0.3-0.7-0.7-0.7c-0.1,0-0.2,0-0.2,0c0,0,0,0,0,0C7.9,42.1,7.9,41.9,7.7,41.8z"/><path d="M100.2,27.3c-0.4,0-0.7,0.3-0.7,0.7c0,0.4,0.3,0.7,0.7,0.7c0.4,0,0.7-0.3,0.7-0.7&#10;&#9;&#9;c0-0.2-0.1-0.4-0.2-0.5C100.6,27.4,100.4,27.3,100.2,27.3z"/><path d="M38.8,105.9c-0.2,0-0.4,0.1-0.5,0.2c-0.3,0.3-0.3,0.7,0,1c0.3,0.3,0.7,0.3,1,0&#10;&#9;&#9;c0.3-0.3,0.3-0.7,0-1C39.2,106,39,105.9,38.8,105.9z"/><path d="M64,108.4c-0.4,0-0.7,0.3-0.7,0.7c0,0.4,0.3,0.7,0.7,0.7c0.4,0,0.7-0.3,0.7-0.7&#10;&#9;&#9;c0-0.2-0.1-0.4-0.2-0.5C64.4,108.5,64.2,108.4,64,108.4z"/><path d="M108.9,62.9c0.4,0,0.7-0.3,0.7-0.7c0-0.4-0.3-0.7-0.7-0.7c-0.4,0-0.7,0.3-0.7,0.7&#10;&#9;&#9;c0,0.2,0.1,0.4,0.2,0.5C108.5,62.8,108.7,62.9,108.9,62.9z"/><path d="M63.6,4.8c0,0.4,0.3,0.7,0.7,0.7c0.4,0,0.7-0.3,0.7-0.7c0-0.4-0.3-0.7-0.7-0.7&#10;&#9;&#9;c-0.2,0-0.4,0.1-0.5,0.2C63.6,4.5,63.6,4.6,63.6,4.8z"/><path d="M95.9,22.3c0.4,0,0.7-0.3,0.7-0.7c0-0.4-0.3-0.7-0.7-0.7c-0.4,0-0.7,0.3-0.7,0.7&#10;&#9;&#9;c0,0.2,0.1,0.4,0.2,0.5C95.5,22.2,95.7,22.3,95.9,22.3z"/><path d="M108.3,45.6c-0.4,0-0.7,0.3-0.7,0.7c0,0.4,0.3,0.7,0.7,0.7c0.4,0,0.7-0.3,0.7-0.7&#10;&#9;&#9;c0-0.2-0.1-0.4-0.2-0.5C108.6,45.7,108.5,45.6,108.3,45.6z"/><path d="M91,14.9c-0.4,0-0.7,0.3-0.7,0.7c0,0.4,0.3,0.7,0.7,0.7c0.4,0,0.7-0.3,0.7-0.7&#10;&#9;&#9;c0-0.2-0.1-0.4-0.2-0.5C91.4,15,91.2,14.9,91,14.9z"/><path d="M79.7,10c0.4,0,0.7-0.3,0.7-0.7c0-0.4-0.3-0.7-0.7-0.7c-0.4,0-0.7,0.3-0.7,0.7&#10;&#9;&#9;c0,0.2,0.1,0.4,0.2,0.5C79.3,9.9,79.5,10,79.7,10z"/><path d="M7.4,74.8c0.3-0.3,0.3-0.7,0-1s-0.7-0.3-1,0c-0.3,0.3-0.3,0.7,0,1C6.5,74.9,6.6,75,6.8,75&#10;&#9;&#9;C7,75,7.2,74.9,7.4,74.8z"/><path d="M21.2,95.9c-0.4,0-0.7,0.3-0.7,0.7c0,0,0,0.1,0,0.1l0,0c-0.3,0.3-0.3,0.7,0,1&#10;&#9;&#9;c0.3,0.3,0.7,0.3,1,0c0.2-0.2,0.3-0.4,0.2-0.7c0,0,0,0,0,0c0.3-0.3,0.3-0.7,0-1C21.6,96,21.4,95.9,21.2,95.9L21.2,95.9z"/><path d="M7.3,81.9c-0.4,0-0.7,0.3-0.7,0.7c0,0.4,0.3,0.7,0.7,0.7c0.4,0,0.7-0.3,0.7-0.7&#10;&#9;&#9;c0-0.2-0.1-0.4-0.2-0.5C7.7,82,7.5,81.9,7.3,81.9z"/><path d="M14.4,89.5c0.3-0.3,0.3-0.7,0-1c-0.3-0.3-0.7-0.3-1,0c-0.3,0.3-0.3,0.7,0,1&#10;&#9;&#9;c0.1,0.1,0.3,0.2,0.5,0.2C14.1,89.8,14.2,89.7,14.4,89.5z"/><path d="M11.5,89.4c-0.4,0-0.7,0.3-0.7,0.7s0.3,0.7,0.7,0.7c0.4,0,0.7-0.3,0.7-0.7&#10;&#9;&#9;c0-0.2-0.1-0.4-0.2-0.5C11.9,89.5,11.7,89.4,11.5,89.4z"/><path d="M99.6,87.5c-0.4,0-0.7,0.3-0.7,0.7s0.3,0.7,0.7,0.7s0.7-0.3,0.7-0.7c0-0.2-0.1-0.4-0.2-0.5&#10;&#9;&#9;C100,87.6,99.8,87.5,99.6,87.5z"/><path d="M42.1,6.5c0.4,0,0.7-0.3,0.7-0.7c0-0.4-0.3-0.7-0.7-0.7c-0.4,0-0.7,0.3-0.7,0.7&#10;&#9;&#9;c0,0.2,0.1,0.4,0.2,0.5C41.8,6.5,41.9,6.5,42.1,6.5z"/><path d="M51.1,4.4c0.4,0,0.7-0.3,0.7-0.7c0-0.4-0.3-0.7-0.7-0.8c-0.4,0-0.7,0.3-0.8,0.7c0,0,0,0,0,0.1&#10;&#9;&#9;C50.4,4.1,50.7,4.4,51.1,4.4z"/><path d="M8.4,59.7c0.4,0,0.7-0.3,0.7-0.7c0-0.4-0.3-0.7-0.7-0.7c-0.4,0-0.7,0.3-0.7,0.7&#10;&#9;&#9;c0,0.2,0.1,0.4,0.2,0.5C8,59.7,8.2,59.7,8.4,59.7z"/><path d="M106.5,81.9c-0.4,0-0.7,0.3-0.7,0.7c0,0.4,0.3,0.7,0.7,0.7c0.4,0,0.7-0.3,0.7-0.7&#10;&#9;&#9;c0-0.2-0.1-0.4-0.2-0.5C106.9,81.9,106.7,81.9,106.5,81.9z"/><path d="M104.7,80.8c-0.4,0-0.7,0.3-0.7,0.7c0,0.4,0.3,0.7,0.7,0.7c0.4,0,0.7-0.3,0.7-0.7&#10;&#9;&#9;c0-0.2-0.1-0.4-0.2-0.5C105,80.9,104.8,80.9,104.7,80.8z"/><path d="M28.5,102.9c-0.4,0-0.7,0.3-0.7,0.7c0,0.4,0.3,0.7,0.7,0.7c0.4,0,0.7-0.3,0.7-0.7&#10;&#9;&#9;c0-0.2-0.1-0.4-0.2-0.5C28.8,102.9,28.7,102.9,28.5,102.9z"/><path d="M19,97.2c-0.3-0.3-0.7-0.3-1,0c-0.3,0.3-0.3,0.7,0,1c0.3,0.3,0.7,0.3,1,0&#10;&#9;&#9;c0.1-0.1,0.2-0.3,0.2-0.5C19.2,97.5,19.2,97.4,19,97.2z"/><path d="M27.1,103.9C27.1,103.9,27.1,103.9,27.1,103.9c0-0.1,0-0.1,0-0.2c0-0.4-0.3-0.7-0.7-0.7&#10;&#9;&#9;s-0.7,0.3-0.7,0.7c0,0.4,0.3,0.7,0.7,0.7c0,0,0,0,0,0h0c-0.1,0.4,0.1,0.8,0.5,0.9c0.1,0,0.1,0,0.2,0c0.4,0,0.7-0.3,0.8-0.7&#10;&#9;&#9;S27.6,103.9,27.1,103.9C27.1,103.9,27.1,103.9,27.1,103.9L27.1,103.9z"/><path d="M12,28.1c0.4,0,0.7-0.3,0.7-0.7c0-0.4-0.3-0.7-0.7-0.7c-0.4,0-0.7,0.3-0.7,0.7&#10;&#9;&#9;c0,0.2,0.1,0.4,0.2,0.5C11.6,28.1,11.8,28.1,12,28.1z"/><path d="M10.3,27.1c0.4,0,0.7-0.3,0.7-0.7c0-0.4-0.3-0.7-0.7-0.7c-0.4,0-0.7,0.3-0.7,0.7&#10;&#9;&#9;c0,0.2,0.1,0.4,0.2,0.5C10,27,10.2,27.1,10.3,27.1z"/><path d="M22.2,15.9c0.3,0.3,0.7,0.3,1,0s0.3-0.7,0-1c-0.3-0.3-0.7-0.3-1,0C22,15,22,15.2,22,15.4&#10;&#9;&#9;C22,15.6,22,15.8,22.2,15.9z"/><path d="M30.1,9.7c0,0.4,0.3,0.7,0.7,0.7c0.4,0,0.7-0.3,0.7-0.7c0-0.4-0.3-0.7-0.7-0.7&#10;&#9;&#9;c-0.2,0-0.4,0.1-0.5,0.2C30.2,9.3,30.1,9.5,30.1,9.7z"/><path d="M35.6,6.2c0,0,0.1,0,0.1,0c0,0,0,0,0,0c0,0.4,0.3,0.7,0.7,0.7c0.4,0,0.7-0.3,0.7-0.7&#10;&#9;&#9;c0-0.4-0.3-0.7-0.7-0.7c0,0-0.1,0-0.1,0c0,0,0,0,0,0c0-0.4-0.3-0.7-0.7-0.7s-0.7,0.3-0.7,0.7C34.8,5.9,35.2,6.2,35.6,6.2L35.6,6.2z&#10;&#9;&#9;"/><path d="M28.4,9.6c0.4,0,0.7-0.3,0.7-0.7c0-0.4-0.3-0.7-0.7-0.7c-0.4,0-0.7,0.3-0.7,0.7&#10;&#9;&#9;c0,0.2,0.1,0.4,0.2,0.5C28,9.5,28.2,9.6,28.4,9.6z"/><path d="M16.2,21.5c0.3,0.3,0.7,0.3,1,0c0.3-0.3,0.3-0.7,0-1c-0.3-0.3-0.7-0.3-1,0&#10;&#9;&#9;C16.1,20.6,16,20.8,16,21C16,21.2,16.1,21.4,16.2,21.5z"/><path d="M15.4,20.6c0.4,0,0.7-0.3,0.7-0.7c0-0.4-0.3-0.7-0.7-0.7c-0.4,0-0.7,0.3-0.7,0.7&#10;&#9;&#9;c0,0.2,0.1,0.4,0.2,0.5C15.1,20.5,15.2,20.6,15.4,20.6z"/><path d="M3.8,74.3C3.4,74.3,3,74.6,3,75c0,0.4,0.3,0.7,0.7,0.7c0.4,0,0.7-0.3,0.7-0.7&#10;&#9;&#9;c0-0.2-0.1-0.4-0.2-0.5C4.1,74.4,4,74.3,3.8,74.3z"/><path d="M95.4,96.7c-0.4,0-0.7,0.3-0.7,0.7c0,0.4,0.3,0.7,0.7,0.7c0.4,0,0.7-0.3,0.7-0.7&#10;&#9;&#9;c0-0.2-0.1-0.4-0.2-0.5C95.8,96.8,95.6,96.7,95.4,96.7z"/><path d="M102.1,88.7c-0.4,0-0.7,0.3-0.7,0.7c0,0.4,0.3,0.7,0.7,0.7c0.4,0,0.7-0.3,0.7-0.7&#10;&#9;&#9;c0-0.2-0.1-0.4-0.2-0.5C102.5,88.7,102.3,88.7,102.1,88.7z"/><path d="M95,96.3c0-0.4-0.3-0.7-0.7-0.7c-0.2,0-0.4,0.1-0.5,0.2c-0.3,0.3-0.3,0.7,0,1&#10;&#9;&#9;c0.3,0.3,0.7,0.3,1,0C94.9,96.7,95,96.5,95,96.3z"/><path d="M84,10.1c0.4,0,0.7-0.3,0.7-0.7c0-0.4-0.3-0.7-0.7-0.7c-0.4,0-0.7,0.3-0.7,0.7&#10;&#9;&#9;c0,0.2,0.1,0.4,0.2,0.5C83.7,10.1,83.8,10.1,84,10.1z"/><path d="M75.6,108.1c-0.4,0-0.7,0.3-0.7,0.7c0,0.4,0.3,0.7,0.7,0.7c0.4,0,0.7-0.3,0.7-0.7&#10;&#9;&#9;c0-0.2-0.1-0.4-0.2-0.5C75.9,108.2,75.7,108.1,75.6,108.1z"/><path d="M84.6,103.1c-0.4,0-0.7,0.3-0.7,0.7l0,0c0,0.4,0.3,0.7,0.7,0.7c0.2,0,0.4-0.1,0.5-0.2&#10;&#9;&#9;c0.3-0.3,0.3-0.7,0-1C85,103.2,84.8,103.1,84.6,103.1L84.6,103.1z"/><path d="M34.8,107.6c0.1-0.3,0-0.6-0.2-0.8c-0.3-0.3-0.7-0.3-1,0c-0.3,0.3-0.3,0.7,0,1&#10;&#9;&#9;c0.1,0,0.2,0.1,0.1,0.2c0,0,0,0.1-0.1,0.1c0,0.4,0.3,0.7,0.7,0.7c0.4,0,0.7-0.3,0.7-0.7c0-0.2-0.1-0.4-0.2-0.5&#10;&#9;&#9;C34.9,107.7,34.8,107.6,34.8,107.6z"/><path d="M38.1,109c-0.4,0-0.7,0.3-0.7,0.7s0.3,0.7,0.7,0.7c0.4,0,0.7-0.3,0.7-0.7c0-0.2-0.1-0.4-0.2-0.5&#10;&#9;&#9;C38.4,109.1,38.3,109,38.1,109z"/><path d="M44.9,111.3c-0.4,0-0.7,0.3-0.7,0.7c0,0.4,0.3,0.7,0.7,0.7c0.4,0,0.7-0.3,0.7-0.7&#10;&#9;&#9;c0-0.2-0.1-0.4-0.2-0.5C45.3,111.3,45.1,111.3,44.9,111.3z"/><path d="M43.4,109.9c-0.4,0-0.7,0.3-0.7,0.7c0,0.4,0.3,0.7,0.7,0.7c0.4,0,0.7-0.3,0.7-0.7&#10;&#9;&#9;c0-0.2-0.1-0.4-0.2-0.5C43.7,110,43.6,109.9,43.4,109.9z"/><path d="M110.3,47.6c-0.3,0.3-0.3,0.7,0,1c0.3,0.3,0.7,0.3,1,0c0.1-0.1,0.1-0.1,0.2-0.2c0,0,0,0,0,0.1&#10;&#9;&#9;c0.3,0.3,0.7,0.3,1,0c0.3-0.3,0.3-0.7,0-1c-0.3-0.3-0.7-0.3-1,0c-0.1,0.1-0.1,0.1-0.2,0.2c0,0,0,0,0-0.1&#10;&#9;&#9;C111.1,47.4,110.6,47.4,110.3,47.6L110.3,47.6z"/><path d="M107.1,36.4c0,0.4,0.3,0.7,0.7,0.7c0.4,0,0.7-0.3,0.7-0.7c0-0.4-0.3-0.7-0.7-0.7&#10;&#9;&#9;c-0.2,0-0.4,0.1-0.5,0.2C107.1,36,107.1,36.2,107.1,36.4z"/><path d="M63.1,3c0.4,0,0.7-0.3,0.7-0.7c0-0.4-0.3-0.7-0.7-0.7c-0.4,0-0.7,0.3-0.7,0.7&#10;&#9;&#9;c0,0.2,0.1,0.4,0.2,0.5C62.7,2.9,62.9,3,63.1,3z"/><path d="M82.9,106c-0.3-0.1-0.6-0.1-0.8,0.1c-0.4,0.3-0.5,0.9-0.2,1.3c0.3,0.4,0.9,0.5,1.3,0.2&#10;&#9;&#9;c0.4-0.3,0.5-0.9,0.2-1.3C83.3,106.2,83.1,106.1,82.9,106z"/><path d="M58.9,112.6c-0.2,0-0.4,0.1-0.5,0.2c-0.3,0.3-0.3,0.7,0,1c0.3,0.3,0.7,0.3,1,0&#10;&#9;&#9;c0.3-0.3,0.3-0.7,0-1C59.3,112.6,59.1,112.6,58.9,112.6z"/><path d="M73,109.8c-0.4,0-0.7,0.3-0.7,0.7c0,0.4,0.3,0.7,0.7,0.7c0.4,0,0.7-0.3,0.7-0.7&#10;&#9;&#9;c0-0.2-0.1-0.4-0.2-0.5C73.4,109.9,73.2,109.8,73,109.8z"/><path d="M62.8,111.3c-0.4,0-0.7,0.3-0.7,0.7c0,0.4,0.3,0.7,0.7,0.7c0.4,0,0.7-0.3,0.7-0.7&#10;&#9;&#9;c0-0.2-0.1-0.4-0.2-0.5C63.2,111.4,63,111.3,62.8,111.3z"/><path d="M1.5,54.9c0.4,0,0.7-0.3,0.7-0.7c0-0.4-0.3-0.7-0.7-0.7c-0.4,0-0.7,0.3-0.7,0.7&#10;&#9;&#9;c0,0.2,0.1,0.4,0.2,0.5C1.1,54.8,1.3,54.9,1.5,54.9z"/><path d="M3.3,42.4c0.1,0,0.1,0,0.2,0c0,0,0.1,0.1,0.1,0.1c0.3,0.3,0.7,0.3,1,0c0.3-0.3,0.3-0.7,0-1&#10;&#9;&#9;c-0.1-0.1-0.3-0.2-0.5-0.2c-0.1,0.1-0.2,0-0.2,0c0,0,0,0,0-0.1c-0.3-0.3-0.7-0.3-1,0c-0.3,0.3-0.3,0.7,0,1&#10;&#9;&#9;C3,42.3,3.1,42.4,3.3,42.4L3.3,42.4z"/><path d="M6.6,34.8c0.4,0,0.7-0.3,0.7-0.7c0-0.4-0.3-0.7-0.7-0.7c-0.4,0-0.7,0.3-0.7,0.7&#10;&#9;&#9;c0,0.2,0.1,0.4,0.2,0.5C6.3,34.7,6.4,34.8,6.6,34.8z"/><path d="M57.3,1.4c0.2,0,0.4-0.1,0.5-0.2c0.3-0.3,0.3-0.7,0-1c0,0,0,0,0,0c-0.3-0.3-0.7-0.3-1,0&#10;&#9;&#9;c-0.3,0.3-0.3,0.7,0,1C56.9,1.4,57.1,1.4,57.3,1.4L57.3,1.4z"/><path d="M42.8,4.1c0.4,0,0.7-0.3,0.7-0.7c0,0,0,0,0,0c0-0.1,0-0.1,0-0.2c0.3,0.2,0.8,0.1,1-0.2&#10;&#9;&#9;c0.2-0.3,0.1-0.8-0.2-1c-0.3-0.2-0.8-0.1-1,0.2c-0.1,0.1-0.1,0.3-0.1,0.4c0,0.1,0,0.1,0,0.2c-0.3-0.2-0.8-0.1-1,0.2&#10;&#9;&#9;c-0.2,0.3-0.1,0.8,0.2,1C42.5,4.1,42.6,4.1,42.8,4.1z"/><path d="M53.3,2.5c0.4,0,0.7-0.3,0.7-0.7c0-0.4-0.3-0.7-0.7-0.7c-0.4,0-0.7,0.3-0.7,0.7&#10;&#9;&#9;c0,0.2,0.1,0.4,0.2,0.5C52.9,2.4,53.1,2.5,53.3,2.5z"/><path d="M73.6,4.7c0.1,0,0.3,0,0.4-0.1c0,0.1,0.1,0.1,0.1,0.2c0.3,0.3,0.7,0.3,1,0c0.3-0.3,0.3-0.7,0-1&#10;&#9;&#9;c-0.2-0.2-0.6-0.3-0.9-0.1c0-0.1-0.1-0.1-0.1-0.2c-0.3-0.3-0.7-0.3-1,0s-0.3,0.7,0,1C73.3,4.6,73.5,4.7,73.6,4.7L73.6,4.7z"/><path d="M85.5,9c0.2,0,0.4-0.1,0.5-0.2c0.3-0.3,0.3-0.7,0-1c-0.1-0.1-0.3-0.2-0.5-0.2&#10;&#9;&#9;c-0.4,0-0.7,0.3-0.7,0.7C84.7,8.6,85.1,9,85.5,9z"/><path d="M78,5.6c0.4,0,0.7-0.3,0.7-0.7c0-0.4-0.3-0.7-0.7-0.7c-0.4,0-0.7,0.3-0.7,0.7&#10;&#9;&#9;c0,0.2,0.1,0.4,0.2,0.5C77.6,5.5,77.8,5.6,78,5.6z"/><path d="M70.7,2.1c0-0.4-0.3-0.7-0.7-0.7c-0.4,0-0.7,0.3-0.7,0.7c0,0.4,0.3,0.7,0.7,0.7&#10;&#9;&#9;c0.2,0,0.4-0.1,0.5-0.2C70.6,2.5,70.7,2.3,70.7,2.1z"/><path d="M106.2,30.7C106.2,30.7,106.2,30.7,106.2,30.7c-0.3,0.3-0.3,0.8,0,1c0.3,0.3,0.7,0.3,1,0&#10;&#9;&#9;c0.3-0.3,0.3-0.7,0-1c-0.1-0.1-0.2-0.2-0.4-0.2l0,0c0.3-0.3,0.3-0.7,0-1c-0.3-0.3-0.7-0.3-1,0s-0.3,0.7,0,1&#10;&#9;&#9;C106,30.6,106.1,30.7,106.2,30.7L106.2,30.7z"/><path d="M100.1,21.7c0.4,0,0.7-0.3,0.7-0.7c0-0.4-0.3-0.7-0.7-0.7c-0.4,0-0.7,0.3-0.7,0.7&#10;&#9;&#9;c0,0.2,0.1,0.4,0.2,0.5C99.8,21.6,99.9,21.7,100.1,21.7z"/><path d="M96.7,18.4C96.8,18.4,96.8,18.4,96.7,18.4c0,0.1,0,0.2,0,0.2c0,0.4,0.3,0.7,0.7,0.7&#10;&#9;&#9;c0.4,0,0.7-0.3,0.7-0.7c0-0.4-0.3-0.7-0.7-0.7c0,0,0,0,0,0c0,0,0,0,0,0c0-0.1,0-0.2,0-0.2c0-0.4-0.3-0.7-0.7-0.7&#10;&#9;&#9;c-0.4,0-0.7,0.3-0.7,0.7C96,18.1,96.3,18.4,96.7,18.4C96.7,18.4,96.7,18.4,96.7,18.4L96.7,18.4z"/><path d="M55.7,52.1c-0.4,0-0.7,0.3-0.7,0.7c0,0.4,0.3,0.7,0.7,0.7c0.4,0,0.7-0.3,0.7-0.7&#10;&#9;&#9;c0-0.2-0.1-0.4-0.2-0.5C56.1,52.2,55.9,52.1,55.7,52.1z"/><path d="M63.4,56.1c-0.4,0-0.7,0.3-0.7,0.7c0,0.4,0.3,0.7,0.7,0.7c0.2,0,0.4-0.1,0.5-0.2&#10;&#9;&#9;c0.1-0.1,0.2-0.3,0.2-0.5c0-0.2-0.1-0.4-0.2-0.5C63.8,56.2,63.6,56.1,63.4,56.1z"/><path d="M55,63.4c-0.3-0.3-0.7-0.3-1,0c-0.3,0.3-0.3,0.7,0,1c0.3,0.3,0.7,0.3,1,0&#10;&#9;&#9;c0.1-0.1,0.2-0.3,0.2-0.5C55.2,63.7,55.1,63.6,55,63.4z"/><path d="M66,67.5c0-0.4-0.3-0.7-0.7-0.7c-0.4,0-0.7,0.3-0.7,0.7c0,0.4,0.3,0.7,0.7,0.7&#10;&#9;&#9;c0.2,0,0.4-0.1,0.5-0.2C66,67.9,66,67.7,66,67.5z"/><path d="M45.1,52.8c-0.3,0.3-0.3,0.7,0,1c0.3,0.3,0.7,0.3,1,0c0.3-0.3,0.3-0.7,0-1&#10;&#9;&#9;c-0.1-0.1-0.3-0.2-0.5-0.2C45.4,52.5,45.2,52.6,45.1,52.8z"/><path d="M54.4,71.7c0.4,0,0.7-0.3,0.7-0.7c0-0.4-0.3-0.7-0.7-0.7c-0.4,0-0.7,0.3-0.7,0.7&#10;&#9;&#9;c0,0.2,0.1,0.4,0.2,0.5C54,71.6,54.2,71.7,54.4,71.7z"/><path d="M65.2,47c0.4,0,0.7-0.3,0.7-0.7c0-0.4-0.3-0.7-0.7-0.7c-0.4,0-0.7,0.3-0.7,0.7&#10;&#9;&#9;C64.5,46.6,64.8,47,65.2,47z"/><path d="M72.9,64.2c0.3-0.3,0.3-0.7,0-1c-0.3-0.3-0.7-0.3-1,0c-0.3,0.3-0.3,0.7,0,1&#10;&#9;&#9;c0.1,0.1,0.3,0.2,0.5,0.2C72.6,64.5,72.8,64.4,72.9,64.2z"/><path d="M43.7,67.9c0.4,0,0.7-0.3,0.7-0.7s-0.3-0.7-0.7-0.7c-0.4,0-0.7,0.3-0.7,0.7&#10;&#9;&#9;c0,0.2,0.1,0.4,0.2,0.5C43.4,67.8,43.5,67.9,43.7,67.9z"/><path d="M72.3,50.7c0.4,0,0.7-0.3,0.7-0.7c0-0.4-0.3-0.7-0.7-0.7c-0.4,0-0.7,0.3-0.7,0.7&#10;&#9;&#9;c0,0.2,0.1,0.4,0.2,0.5C71.9,50.6,72.1,50.7,72.3,50.7z"/><path d="M53.6,39.2c-0.3,0.3-0.3,0.7,0,1c0.3,0.3,0.7,0.3,1,0c0.3-0.3,0.3-0.7,0-1&#10;&#9;&#9;c-0.1-0.1-0.3-0.2-0.5-0.2C53.9,39,53.7,39.1,53.6,39.2z"/><path d="M45.6,43.7c0.4,0,0.7-0.3,0.7-0.7c0-0.4-0.3-0.7-0.7-0.7c-0.4,0-0.7,0.3-0.7,0.7&#10;&#9;&#9;c0,0.2,0.1,0.4,0.2,0.5C45.2,43.6,45.4,43.7,45.6,43.7z"/><path d="M55.7,79.1c0.3-0.3,0.3-0.7,0-1c-0.3-0.3-0.7-0.3-1,0c-0.3,0.3-0.3,0.7,0,1c0,0,0,0,0.1,0&#10;&#9;&#9;c0,0,0,0-0.1,0c-0.4,0-0.7,0.3-0.7,0.7c0,0.4,0.3,0.7,0.7,0.7c0.4,0,0.7-0.3,0.7-0.7c0-0.2-0.1-0.4-0.2-0.5c0,0,0,0-0.1,0&#10;&#9;&#9;c0,0,0,0,0.1,0C55.4,79.3,55.6,79.2,55.7,79.1z"/><path d="M79.3,60.8c0.4,0,0.7-0.3,0.7-0.7s-0.3-0.7-0.7-0.7c-0.4,0-0.7,0.3-0.7,0.7&#10;&#9;&#9;c0,0.2,0.1,0.4,0.2,0.5C78.9,60.7,79.1,60.8,79.3,60.8z"/><path d="M33.7,54.2c0.4,0,0.7-0.3,0.7-0.7c0-0.4-0.3-0.7-0.7-0.7c-0.4,0-0.7,0.3-0.7,0.7&#10;&#9;&#9;c0,0.2,0.1,0.4,0.2,0.5C33.3,54.2,33.5,54.2,33.7,54.2z"/><path d="M79.7,47.6c0.3-0.3,0.3-0.7,0-1c-0.3-0.3-0.7-0.3-1,0c-0.3,0.3-0.3,0.7,0,1&#10;&#9;&#9;c0.1,0.1,0.3,0.2,0.5,0.2C79.4,47.9,79.6,47.8,79.7,47.6z"/><path d="M73.2,77.7c0.3-0.3,0.3-0.7,0-1c-0.3-0.3-0.7-0.3-1,0c-0.3,0.3-0.3,0.7,0,1&#10;&#9;&#9;c0.1,0.1,0.3,0.2,0.5,0.2C72.9,77.9,73.1,77.9,73.2,77.7z"/><path d="M63.6,81.2c-0.3,0.3-0.3,0.7,0,1c0.3,0.3,0.7,0.3,1,0c0.3-0.3,0.3-0.7,0-1&#10;&#9;&#9;C64.5,81,64.3,81,64.1,81C63.9,81,63.7,81.1,63.6,81.2z"/><path d="M34.1,66.8c0.3-0.3,0.3-0.7,0-1c-0.3-0.3-0.7-0.3-1,0c-0.3,0.3-0.3,0.7,0,1&#10;&#9;&#9;c0.1,0.1,0.3,0.2,0.5,0.2C33.8,67,33.9,67,34.1,66.8z"/><path d="M62.8,33.3c0.2,0,0.4-0.1,0.5-0.2c0.1-0.1,0.2-0.3,0.2-0.5c0-0.4-0.3-0.7-0.7-0.7&#10;&#9;&#9;S62,32.2,62,32.6C62,33,62.4,33.3,62.8,33.3z"/><path d="M47,79.2c0-0.4-0.3-0.7-0.7-0.7c-0.4,0-0.7,0.3-0.7,0.7c0,0.4,0.3,0.7,0.7,0.7&#10;&#9;&#9;c0.2,0,0.4-0.1,0.5-0.2C46.9,79.6,47,79.4,47,79.2z"/><path d="M71.9,37.2c0.3,0.3,0.7,0.3,1,0c0.3-0.3,0.3-0.7,0-1c-0.3-0.3-0.7-0.3-1,0&#10;&#9;&#9;c-0.1,0.1-0.2,0.3-0.2,0.5C71.7,36.9,71.8,37.1,71.9,37.2z"/><path d="M79.6,73.7c0.4,0,0.7-0.3,0.7-0.7c0-0.4-0.3-0.7-0.7-0.7c-0.4,0-0.7,0.3-0.7,0.7&#10;&#9;&#9;c0,0.2,0.1,0.4,0.2,0.5C79.2,73.7,79.4,73.7,79.6,73.7z"/><path d="M53.8,29.6c-0.4,0-0.7,0.3-0.7,0.7c0,0.4,0.3,0.7,0.7,0.7c0.4,0,0.7-0.3,0.7-0.7&#10;&#9;&#9;c0-0.2-0.1-0.4-0.2-0.5C54.2,29.7,54,29.6,53.8,29.6z"/><path d="M50.7,85.1c0.4,0,0.7-0.3,0.7-0.7c0-0.4-0.3-0.7-0.7-0.7c-0.4,0-0.7,0.3-0.7,0.7&#10;&#9;&#9;c0,0.2,0.1,0.4,0.2,0.5C50.3,85.1,50.5,85.1,50.7,85.1z"/><path d="M43.1,32.7c-0.3,0.3-0.3,0.7,0,1s0.7,0.3,1,0c0.3-0.3,0.3-0.7,0-1c0,0,0,0,0,0&#10;&#9;&#9;C43.9,32.4,43.4,32.4,43.1,32.7z"/><path d="M34,41.4c0.3-0.3,0.3-0.7,0-1c0,0,0,0,0,0c-0.3-0.3-0.7-0.3-1,0c-0.1,0.1-0.2,0.3-0.2,0.5&#10;&#9;&#9;c0,0.4,0.3,0.7,0.7,0.7C33.7,41.7,33.9,41.6,34,41.4z"/><path d="M86,63.6c0.4,0,0.7-0.3,0.7-0.7c0-0.4-0.3-0.7-0.7-0.7c-0.4,0-0.7,0.3-0.7,0.7&#10;&#9;&#9;c0,0.2,0.1,0.4,0.2,0.5C85.6,63.5,85.8,63.6,86,63.6z"/><path d="M85.8,51.5c0.4,0,0.7-0.3,0.7-0.7c0-0.4-0.3-0.7-0.7-0.7c-0.4,0-0.7,0.3-0.7,0.7&#10;&#9;&#9;c0,0.2,0.1,0.4,0.2,0.5C85.5,51.5,85.6,51.5,85.8,51.5z"/><path d="M78.9,35.3c0.3,0.3,0.7,0.3,1,0c0.3-0.3,0.3-0.7,0-1c-0.3-0.3-0.7-0.3-1,0&#10;&#9;&#9;c-0.1,0.1-0.2,0.3-0.2,0.5C78.7,35,78.8,35.2,78.9,35.3z"/><path d="M87,75.1c0.3-0.3,0.3-0.7,0-1c-0.3-0.3-0.7-0.3-1,0c-0.3,0.3-0.3,0.7,0,1&#10;&#9;&#9;c0.1,0.1,0.3,0.2,0.5,0.2C86.7,75.4,86.8,75.3,87,75.1z"/><path d="M50.6,90c-0.4,0-0.7,0.3-0.7,0.7c0,0.4,0.3,0.7,0.7,0.7c0.4,0,0.7-0.3,0.7-0.7&#10;&#9;&#9;c0-0.2-0.1-0.4-0.2-0.5C51,90,50.8,90,50.6,90z"/><path d="M86.5,38.8c-0.3-0.3-0.7-0.3-1,0c-0.3,0.3-0.3,0.7,0,1c0.3,0.3,0.7,0.3,1,0&#10;&#9;&#9;c0.1-0.1,0.2-0.3,0.2-0.5C86.7,39.1,86.7,38.9,86.5,38.8z"/><path d="M29.8,77c-0.4,0-0.7,0.3-0.7,0.7c0,0.4,0.3,0.7,0.7,0.7c0.4,0,0.7-0.3,0.7-0.7&#10;&#9;&#9;c0-0.2-0.1-0.4-0.2-0.5C30.2,77.1,30,77,29.8,77z"/><path d="M37.5,85.2c-0.3,0.3-0.3,0.7,0,1c0.3,0.3,0.7,0.3,1,0c0.3-0.3,0.3-0.7,0-1&#10;&#9;&#9;C38.4,85.1,38.2,85,38,85C37.8,85,37.7,85.1,37.5,85.2z"/><path d="M54.9,22.7c-0.3-0.3-0.7-0.3-1,0c-0.3,0.3-0.3,0.7,0,1c0.3,0.3,0.7,0.3,1,0&#10;&#9;&#9;c0.1-0.1,0.2-0.3,0.2-0.5C55.1,23.1,55,22.9,54.9,22.7z"/><path d="M80.2,85.8c0.2,0,0.4-0.1,0.5-0.2c0.3-0.3,0.3-0.7,0-1c-0.3-0.3-0.7-0.3-1,0&#10;&#9;&#9;c-0.3,0.3-0.3,0.7,0,1C79.8,85.7,80,85.8,80.2,85.8z"/><path d="M72.6,89.1c-0.3,0.3-0.3,0.7,0,1c0.3,0.3,0.7,0.3,1,0c0.3-0.3,0.3-0.7,0-1&#10;&#9;&#9;c-0.1-0.1-0.3-0.2-0.5-0.2C72.9,88.9,72.7,89,72.6,89.1z"/><path d="M21.2,52.5c-0.4,0-0.7,0.3-0.7,0.7c0,0.4,0.3,0.7,0.7,0.7c0.4,0,0.7-0.3,0.7-0.7&#10;&#9;&#9;c0-0.2-0.1-0.4-0.2-0.5C21.6,52.5,21.4,52.5,21.2,52.5z"/><path d="M93.7,60.2c0.4,0,0.7-0.3,0.7-0.7c0-0.4-0.3-0.7-0.7-0.7c-0.4,0-0.7,0.3-0.7,0.7&#10;&#9;&#9;c0,0.2,0.1,0.4,0.2,0.5C93.3,60.1,93.5,60.2,93.7,60.2z"/><path d="M72.7,25.4c0.4,0,0.7-0.3,0.7-0.7c0-0.4-0.3-0.7-0.7-0.7c-0.4,0-0.7,0.3-0.7,0.7&#10;&#9;&#9;c0,0.2,0.1,0.4,0.2,0.5C72.3,25.4,72.5,25.4,72.7,25.4z"/><path d="M33.1,30c0.4,0,0.7-0.3,0.7-0.7c0-0.4-0.3-0.7-0.7-0.7s-0.7,0.3-0.7,0.7c0,0.2,0.1,0.4,0.2,0.5&#10;&#9;&#9;C32.7,29.9,32.9,30,33.1,30z"/><path d="M92.8,49.1c0,0.4,0.3,0.7,0.7,0.7c0.4,0,0.7-0.3,0.7-0.7c0,0,0,0,0,0c0-0.4-0.4-0.7-0.8-0.7&#10;&#9;&#9;C93.1,48.4,92.8,48.7,92.8,49.1L92.8,49.1z"/><path d="M64.8,20.8c0,0.4,0.3,0.7,0.7,0.7s0.7-0.3,0.7-0.7c0-0.4-0.3-0.7-0.7-0.7l0,0&#10;&#9;&#9;c-0.2,0-0.4,0.1-0.5,0.2C64.9,20.4,64.8,20.6,64.8,20.8z"/><path d="M93.3,69.7c0,0.4,0.3,0.7,0.7,0.7c0.4,0,0.7-0.3,0.7-0.7c0-0.4-0.3-0.7-0.7-0.7&#10;&#9;&#9;c-0.2,0-0.4,0.1-0.5,0.2C93.4,69.4,93.3,69.5,93.3,69.7z"/><path d="M43.3,20.7c-0.4,0-0.7,0.3-0.7,0.7s0.3,0.7,0.7,0.7c0.4,0,0.7-0.3,0.7-0.7&#10;&#9;&#9;c0-0.2-0.1-0.4-0.2-0.5C43.7,20.8,43.5,20.7,43.3,20.7z"/><path d="M21.5,43.4c0.3-0.3,0.3-0.7,0-1s-0.7-0.3-1,0c-0.3,0.3-0.3,0.7,0,1c0.1,0.1,0.3,0.2,0.5,0.2&#10;&#9;&#9;C21.1,43.6,21.3,43.6,21.5,43.4z"/><path d="M50.5,95.7c-0.4,0-0.7,0.3-0.7,0.7c0,0.4,0.3,0.7,0.7,0.7c0.4,0,0.7-0.3,0.7-0.7&#10;&#9;&#9;c0-0.2-0.1-0.4-0.2-0.5C50.9,95.7,50.7,95.7,50.5,95.7z"/><path d="M21.5,73.8c0-0.4-0.3-0.7-0.7-0.7c-0.4,0-0.7,0.3-0.7,0.7c0,0.4,0.3,0.7,0.7,0.7&#10;&#9;&#9;c0.2,0,0.4-0.1,0.5-0.2C21.4,74.2,21.5,74,21.5,73.8z"/><path d="M53.6,17.6c0,0.4,0.3,0.7,0.7,0.7c0.4,0,0.7-0.3,0.7-0.7c0-0.4-0.3-0.7-0.7-0.7c0,0,0,0,0,0&#10;&#9;&#9;c-0.2,0-0.4,0.1-0.5,0.2C53.7,17.2,53.6,17.4,53.6,17.6z"/><path d="M87.9,85.4c0-0.4-0.3-0.7-0.7-0.7c-0.4,0-0.7,0.3-0.7,0.7c0,0.4,0.3,0.7,0.7,0.7&#10;&#9;&#9;c0.2,0,0.4-0.1,0.5-0.2C87.8,85.7,87.9,85.5,87.9,85.4z"/><path d="M79.2,23.9c0,0.4,0.3,0.7,0.7,0.7c0.4,0,0.7-0.3,0.7-0.7c0-0.4-0.3-0.7-0.7-0.7&#10;&#9;&#9;c-0.2,0-0.4,0.1-0.5,0.2C79.3,23.5,79.2,23.7,79.2,23.9z"/><path d="M94.5,39.3c0-0.4-0.3-0.7-0.7-0.8c-0.4,0-0.7,0.3-0.8,0.7c0,0,0,0,0,0.1c0,0.2,0.1,0.4,0.2,0.5&#10;&#9;&#9;c0.3,0.3,0.7,0.3,1,0c0,0,0,0,0,0C94.4,39.7,94.5,39.5,94.5,39.3z"/><path d="M85.7,28.9c0,0.4,0.3,0.7,0.7,0.7c0.4,0,0.7-0.3,0.7-0.7c0-0.4-0.3-0.7-0.7-0.7&#10;&#9;&#9;c-0.2,0-0.4,0.1-0.5,0.2C85.8,28.5,85.7,28.7,85.7,28.9z"/><path d="M29.3,87.5c-0.4,0-0.8,0.3-0.8,0.7c0,0,0,0,0,0.1c0,0.4,0.3,0.7,0.7,0.7c0.4,0,0.7-0.3,0.7-0.7&#10;&#9;&#9;C29.9,87.9,29.7,87.6,29.3,87.5z"/><path d="M94.7,79.9c0.4,0,0.7-0.3,0.7-0.7c0-0.4-0.3-0.7-0.7-0.7c-0.4,0-0.7,0.3-0.7,0.7&#10;&#9;&#9;c0,0.2,0.1,0.4,0.2,0.5C94.4,79.8,94.5,79.9,94.7,79.9z"/><path d="M100,60.3c0.3,0.3,0.7,0.3,1,0c0.3-0.3,0.3-0.7,0-1c-0.3-0.3-0.7-0.3-1,0&#10;&#9;&#9;c-0.1,0.1-0.2,0.3-0.2,0.5C99.8,60,99.9,60.1,100,60.3z"/><path d="M20.4,32.8c-0.4,0-0.7,0.3-0.7,0.7c0,0.4,0.3,0.7,0.7,0.7c0.4,0,0.7-0.3,0.7-0.7&#10;&#9;&#9;c0-0.2-0.1-0.4-0.2-0.5C20.8,32.9,20.6,32.8,20.4,32.8z"/><path d="M12.6,56.1c-0.3,0.3-0.3,0.7,0,1c0.3,0.3,0.7,0.3,1,0c0.3-0.3,0.3-0.7,0-1&#10;&#9;&#9;c-0.1-0.1-0.3-0.2-0.5-0.2C13,55.9,12.8,56,12.6,56.1z"/><path d="M38,96.9c0.3-0.3,0.3-0.7,0-1c-0.3-0.3-0.7-0.3-1,0c-0.3,0.3-0.3,0.7,0,1&#10;&#9;&#9;c0.1,0.1,0.3,0.2,0.5,0.2C37.7,97.1,37.8,97,38,96.9z"/><path d="M36.4,18.7c0.3-0.3,0.3-0.7,0-1c-0.3-0.3-0.7-0.3-1,0c-0.3,0.3-0.3,0.7,0,1&#10;&#9;&#9;c0.1,0.1,0.3,0.2,0.5,0.2C36.1,18.9,36.3,18.8,36.4,18.7z"/><path d="M80.9,94.6c-0.4,0-0.7,0.3-0.7,0.7c0,0.4,0.3,0.7,0.7,0.7c0.4,0,0.7-0.3,0.7-0.7&#10;&#9;&#9;c0-0.2-0.1-0.4-0.2-0.5C81.2,94.7,81,94.6,80.9,94.6z"/><path d="M100.7,48.2c0.4,0,0.7-0.3,0.7-0.7c0-0.4-0.3-0.7-0.7-0.7c-0.4,0-0.7,0.3-0.7,0.7&#10;&#9;&#9;c0,0.2,0.1,0.4,0.2,0.5C100.4,48.1,100.5,48.2,100.7,48.2z"/><path d="M64.5,102.1c0.3-0.3,0.3-0.7,0-1c-0.3-0.3-0.7-0.3-1,0c-0.3,0.3-0.3,0.7,0,1&#10;&#9;&#9;c0.1,0.1,0.3,0.2,0.5,0.2C64.2,102.3,64.4,102.2,64.5,102.1z"/><path d="M62.7,12.8c0-0.4-0.3-0.7-0.7-0.7c-0.4,0-0.7,0.3-0.7,0.7c0,0.4,0.3,0.7,0.7,0.7&#10;&#9;&#9;c0.2,0,0.4-0.1,0.5-0.2C62.6,13.1,62.7,12.9,62.7,12.8z"/><path d="M20.8,82.8c0-0.4-0.3-0.7-0.7-0.7c-0.4,0-0.7,0.3-0.7,0.7c0,0.4,0.3,0.7,0.7,0.7&#10;&#9;&#9;c0.2,0,0.4-0.1,0.5-0.2C20.7,83.1,20.8,83,20.8,82.8z"/><path d="M101.7,69.3c0.3-0.3,0.3-0.7,0-1c-0.1-0.1-0.3-0.2-0.5-0.2c-0.4,0-0.7,0.3-0.7,0.7&#10;&#9;&#9;c0,0.4,0.3,0.7,0.7,0.7C101.4,69.5,101.6,69.4,101.7,69.3z"/><path d="M73.7,100.7c0.4,0,0.7-0.3,0.7-0.7c0-0.4-0.3-0.7-0.7-0.7S73,99.6,73,100&#10;&#9;&#9;C73,100.4,73.3,100.7,73.7,100.7C73.7,100.7,73.7,100.7,73.7,100.7z"/><path d="M29.5,21.4c0.3-0.3,0.3-0.7,0-1s-0.7-0.3-1,0c-0.3,0.3-0.3,0.7,0,1c0.1,0.1,0.3,0.2,0.5,0.2&#10;&#9;&#9;C29.2,21.6,29.4,21.5,29.5,21.4z"/><path d="M72.7,14.2c-0.3,0.3-0.3,0.7,0,1c0.1,0.1,0.3,0.2,0.5,0.2c0.4,0,0.7-0.3,0.8-0.7&#10;&#9;&#9;c0-0.4-0.3-0.7-0.7-0.8c0,0,0,0-0.1,0C73.1,13.9,72.9,14,72.7,14.2z"/><path d="M93.6,30.7c0,0.4,0.3,0.7,0.7,0.7c0.4,0,0.7-0.3,0.7-0.7c0-0.4-0.3-0.7-0.7-0.7&#10;&#9;&#9;c-0.2,0-0.4,0.1-0.5,0.2C93.7,30.3,93.6,30.5,93.6,30.7z"/><path d="M58.9,103.2c-0.4,0-0.7,0.3-0.7,0.7s0.3,0.7,0.7,0.7c0.4,0,0.7-0.3,0.7-0.7&#10;&#9;&#9;c0-0.2-0.1-0.4-0.2-0.5C59.3,103.3,59.1,103.2,58.9,103.2z"/><path d="M13.1,71.6c-0.3-0.3-0.7-0.3-1,0s-0.3,0.7,0,1c0.3,0.3,0.7,0.3,1,0c0,0,0,0,0,0&#10;&#9;&#9;c0.1-0.1,0.2-0.3,0.2-0.5C13.3,71.9,13.2,71.7,13.1,71.6z"/><path d="M12.1,40.7c-0.3,0.3-0.3,0.7,0,1c0.3,0.3,0.7,0.3,1,0c0.3-0.3,0.3-0.7,0-1&#10;&#9;&#9;c-0.1-0.1-0.3-0.2-0.5-0.2C12.4,40.5,12.2,40.5,12.1,40.7z"/><path d="M50.5,11.3c0.4,0,0.7-0.3,0.7-0.7c0-0.4-0.3-0.7-0.7-0.7c-0.4,0-0.7,0.3-0.7,0.7&#10;&#9;&#9;c0,0.2,0.1,0.4,0.2,0.5C50.1,11.2,50.3,11.3,50.5,11.3z"/><path d="M88.8,94.2c0-0.4-0.3-0.7-0.7-0.7c-0.4,0-0.7,0.3-0.7,0.7c0,0.4,0.3,0.7,0.7,0.7&#10;&#9;&#9;c0.2,0,0.4-0.1,0.5-0.2C88.7,94.5,88.8,94.4,88.8,94.2z"/><path d="M102.3,76.4c0.3-0.3,0.3-0.7,0-1c-0.3-0.3-0.7-0.3-1,0c-0.3,0.3-0.3,0.7,0,1&#10;&#9;&#9;c0.1,0.1,0.3,0.2,0.5,0.2C102,76.6,102.2,76.5,102.3,76.4z"/><path d="M87.3,21c0.4,0,0.7-0.3,0.7-0.7c0,0,0-0.1,0-0.1c-0.1-0.3-0.4-0.6-0.7-0.6&#10;&#9;&#9;c-0.4,0-0.7,0.3-0.7,0.7C86.5,20.7,86.9,21,87.3,21L87.3,21z"/><path d="M104.6,51.6c0.3,0.3,0.7,0.3,1,0c0.3-0.3,0.3-0.7,0-1c-0.3-0.3-0.7-0.3-1,0&#10;&#9;&#9;c-0.1,0.1-0.2,0.3-0.2,0.5C104.4,51.3,104.5,51.4,104.6,51.6z"/><path d="M9.4,55c0.3-0.3,0.3-0.7,0-1c-0.3-0.3-0.7-0.3-1,0c-0.3,0.3-0.3,0.7,0,1&#10;&#9;&#9;c0.1,0.1,0.3,0.2,0.5,0.2C9,55.2,9.2,55.2,9.4,55z"/><path d="M95.6,87.9c0.4,0,0.7-0.3,0.7-0.7c0-0.4-0.3-0.7-0.7-0.7c-0.4,0-0.7,0.3-0.7,0.7&#10;&#9;&#9;c0,0.2,0.1,0.4,0.2,0.5C95.2,87.8,95.4,87.9,95.6,87.9z"/><path d="M105.3,63.6c-0.4,0-0.7,0.3-0.7,0.7c0,0.2,0.1,0.4,0.2,0.5c0.3,0.3,0.7,0.3,1,0&#10;&#9;&#9;c0.3-0.3,0.3-0.7,0-1C105.7,63.7,105.5,63.6,105.3,63.6L105.3,63.6z"/><path d="M79.9,15.1c0,0.4,0.3,0.7,0.7,0.7c0.4,0,0.7-0.3,0.7-0.7c0-0.4-0.3-0.7-0.7-0.7&#10;&#9;&#9;c-0.2,0-0.4,0.1-0.5,0.2C80,14.7,79.9,14.9,79.9,15.1z"/><path d="M19.5,26.5c0.4,0,0.7-0.3,0.7-0.7c0-0.4-0.3-0.7-0.7-0.7c-0.4,0-0.7,0.3-0.7,0.7&#10;&#9;&#9;c0,0.2,0.1,0.4,0.2,0.5C19.1,26.4,19.3,26.5,19.5,26.5z"/><path d="M28.9,97.1c0.3-0.3,0.3-0.7,0-1c-0.3-0.3-0.7-0.3-1,0c-0.3,0.3-0.3,0.7,0,1&#10;&#9;&#9;c0.1,0.1,0.3,0.2,0.5,0.2C28.6,97.4,28.8,97.3,28.9,97.1z"/><path d="M62.1,7.8c-0.4,0-0.7,0.3-0.7,0.7c0,0.4,0.3,0.7,0.7,0.7c0.4,0,0.7-0.3,0.7-0.7&#10;&#9;&#9;c0-0.2-0.1-0.4-0.2-0.5C62.4,7.9,62.3,7.8,62.1,7.8z"/><path d="M10,78.8c-0.3,0.3-0.3,0.7,0,1c0.3,0.3,0.7,0.3,1,0c0.3-0.3,0.3-0.7,0-1&#10;&#9;&#9;c-0.1-0.1-0.3-0.2-0.5-0.2C10.3,78.6,10.1,78.7,10,78.8z"/><path d="M19.2,89.2c-0.4,0-0.7,0.3-0.7,0.7c0,0.4,0.3,0.7,0.7,0.7c0.4,0,0.7-0.3,0.7-0.7&#10;&#9;&#9;c0-0.2-0.1-0.4-0.2-0.5C19.5,89.3,19.4,89.2,19.2,89.2z"/><path d="M101.7,34.5c0.4,0,0.7-0.3,0.7-0.7c0-0.4-0.3-0.7-0.7-0.7c-0.4,0-0.7,0.3-0.7,0.7&#10;&#9;&#9;c0,0.2,0.1,0.4,0.2,0.5C101.3,34.4,101.5,34.5,101.7,34.5z"/><path d="M66.1,107.1c0-0.4-0.3-0.7-0.7-0.7c-0.4,0-0.7,0.3-0.8,0.7s0.3,0.7,0.7,0.8c0,0,0,0,0.1,0&#10;&#9;&#9;C65.8,107.8,66.1,107.5,66.1,107.1z"/><path d="M95.2,24.7c0.4,0,0.7-0.3,0.7-0.7c0-0.4-0.3-0.7-0.7-0.7c-0.4,0-0.7,0.3-0.7,0.7&#10;&#9;&#9;c0,0.2,0.1,0.4,0.2,0.5C94.8,24.6,95,24.7,95.2,24.7z"/><path d="M54.2,107.2c-0.4,0-0.7,0.3-0.7,0.7c0,0.4,0.3,0.7,0.7,0.7c0.4,0,0.7-0.3,0.7-0.7&#10;&#9;&#9;c0-0.2-0.1-0.4-0.2-0.5C54.6,107.2,54.4,107.2,54.2,107.2z"/><path d="M102.1,81.2c-0.3,0.3-0.3,0.7,0,1c0.3,0.3,0.7,0.3,1,0c0.3-0.3,0.3-0.7,0-1&#10;&#9;&#9;c-0.1-0.1-0.3-0.2-0.5-0.2C102.4,81,102.3,81.1,102.1,81.2z"/><path d="M34.9,102.6c-0.4,0-0.7,0.3-0.7,0.7c0,0.4,0.3,0.7,0.7,0.7c0.4,0,0.7-0.3,0.7-0.7&#10;&#9;&#9;c0-0.2-0.1-0.4-0.2-0.5C35.3,102.7,35.1,102.6,34.9,102.6z"/><path d="M82.4,102.8c0-0.4-0.3-0.7-0.7-0.7c-0.4,0-0.7,0.3-0.7,0.7c0,0.4,0.3,0.7,0.7,0.7&#10;&#9;&#9;c0.2,0,0.4-0.1,0.5-0.2C82.4,103.2,82.4,103,82.4,102.8z"/><path d="M105.8,40.9c0.4,0,0.7-0.3,0.7-0.7c0-0.4-0.3-0.7-0.7-0.7c-0.4,0-0.7,0.3-0.7,0.7&#10;&#9;&#9;c0,0.2,0.1,0.4,0.2,0.5C105.4,40.8,105.6,40.9,105.8,40.9z"/><path d="M41.6,106.8c0,0.4,0.3,0.7,0.7,0.7c0.4,0,0.7-0.3,0.7-0.7c0-0.4-0.3-0.7-0.7-0.7&#10;&#9;&#9;c-0.2,0-0.4,0.1-0.5,0.2C41.7,106.4,41.6,106.6,41.6,106.8z"/><path d="M28.1,14.5c0.2,0,0.4-0.1,0.5-0.2c0.3-0.3,0.3-0.7,0-1c0,0,0,0,0,0c-0.3-0.3-0.7-0.3-1,0&#10;&#9;&#9;c-0.1,0.1-0.2,0.3-0.2,0.5C27.3,14.2,27.7,14.5,28.1,14.5C28.1,14.5,28.1,14.5,28.1,14.5L28.1,14.5z"/><path d="M106.9,74.5C106.9,74.5,107,74.5,106.9,74.5c0.3-0.3,0.3-0.8,0.1-1.1c-0.3-0.3-0.7-0.3-1,0&#10;&#9;&#9;c-0.3,0.3-0.3,0.7,0,1c0.1,0.1,0.1,0.1,0.2,0.2c0,0,0,0-0.1,0.1c-0.3,0.3-0.3,0.7,0,1c0.3,0.3,0.7,0.3,1,0c0.3-0.3,0.3-0.7,0-1&#10;&#9;&#9;C107.1,74.6,107,74.5,106.9,74.5z"/><path d="M108.4,50c0,0.4,0.3,0.7,0.7,0.7c0.4,0,0.7-0.3,0.7-0.7c0-0.4-0.3-0.7-0.7-0.7&#10;&#9;&#9;c-0.2,0-0.4,0.1-0.5,0.2C108.5,49.6,108.4,49.8,108.4,50z"/><path d="M62.7,4.6c-0.3-0.3-0.7-0.3-1,0c-0.3,0.3-0.3,0.7,0,1c0.3,0.3,0.7,0.3,1,0&#10;&#9;&#9;c0.1-0.1,0.2-0.3,0.2-0.5C62.9,4.9,62.8,4.8,62.7,4.6z"/><path d="M5.3,50.2c0.3-0.3,0.3-0.7,0-1C5.2,49.1,5,49,4.8,49c-0.4,0-0.7,0.3-0.7,0.7&#10;&#9;&#9;c0,0.2,0.1,0.4,0.2,0.5C4.6,50.5,5.1,50.5,5.3,50.2L5.3,50.2z"/><path d="M21.6,17.4c-0.4,0-0.7,0.3-0.7,0.7c0,0.4,0.3,0.7,0.7,0.7c0.4,0,0.7-0.3,0.7-0.7&#10;&#9;&#9;c0-0.2-0.1-0.4-0.2-0.5C22,17.5,21.8,17.4,21.6,17.4z"/><path d="M46.4,6.5c0.4,0,0.7-0.3,0.7-0.7c0-0.4-0.3-0.7-0.7-0.7c-0.4,0-0.7,0.3-0.7,0.7&#10;&#9;&#9;c0,0.2,0.1,0.4,0.2,0.5C46,6.4,46.2,6.5,46.4,6.5z"/><path d="M110.4,60.6c0.3-0.3,0.3-0.7,0-1c-0.3-0.3-0.7-0.3-1,0c-0.3,0.3-0.3,0.7,0,1&#10;&#9;&#9;c0.1,0.1,0.3,0.2,0.5,0.2C110.1,60.8,110.3,60.7,110.4,60.6z"/><path d="M15.6,22.3c-0.4,0-0.7,0.3-0.7,0.7c0,0.4,0.3,0.7,0.7,0.7c0.4,0,0.7-0.3,0.7-0.7&#10;&#9;&#9;c0-0.2-0.1-0.4-0.2-0.5C16,22.3,15.8,22.3,15.6,22.3z"/><path d="M10,34.3c0-0.4-0.3-0.7-0.7-0.7c-0.4,0-0.7,0.3-0.7,0.7c0,0.4,0.3,0.7,0.7,0.7&#10;&#9;&#9;c0.2,0,0.4-0.1,0.5-0.2C9.9,34.7,10,34.5,10,34.3z"/><path d="M75,107.2c-0.2,0.2-0.5,0.3-0.8,0.1c-0.2-0.2-0.3-0.5-0.1-0.8c0.1-0.1,0.2-0.2,0.3-0.2&#10;&#9;&#9;c0.3-0.3,0.3-0.7,0-1c-0.3-0.3-0.7-0.3-1,0c-0.3,0.3-0.3,0.7,0,1c0.1,0.1,0.3,0.2,0.5,0.2c0,0,0.1,0,0.1,0c-0.1,0-0.2,0.1-0.2,0.2&#10;&#9;&#9;c-0.3,0.3-0.3,0.7,0,1c0.3,0.3,0.7,0.3,1,0C74.9,107.5,75,107.4,75,107.2L75,107.2z"/><path d="M74.6,7.5c0-0.4-0.3-0.7-0.7-0.7c-0.4,0-0.7,0.3-0.7,0.7c0,0.4,0.3,0.7,0.7,0.7&#10;&#9;&#9;c0.2,0,0.4-0.1,0.5-0.2C74.6,7.9,74.6,7.7,74.6,7.5z"/><path d="M97.4,92.8c0-0.4-0.3-0.7-0.7-0.7c-0.4,0-0.7,0.3-0.7,0.7c0,0.4,0.3,0.7,0.7,0.7&#10;&#9;&#9;c0.2,0,0.4-0.1,0.5-0.2C97.3,93.2,97.4,93,97.4,92.8z"/><path d="M89.5,100.6c0.3-0.3,0.3-0.7,0-1c-0.3-0.3-0.7-0.3-1,0c-0.3,0.3-0.3,0.7,0,1&#10;&#9;&#9;c0.1,0.1,0.3,0.2,0.5,0.2C89.2,100.9,89.4,100.8,89.5,100.6z"/><path d="M90.2,101.8c-0.4,0-0.8,0.2-0.8,0.6c0,0.4,0.2,0.8,0.6,0.8c0.2,0,0.4,0,0.6-0.2&#10;&#9;&#9;c0.3-0.3,0.3-0.7,0-1c0,0,0,0,0,0C90.5,101.9,90.3,101.8,90.2,101.8z"/><path d="M88.3,15.1c0.4,0,0.7-0.3,0.7-0.7c0-0.4-0.3-0.7-0.7-0.7c-0.4,0-0.7,0.3-0.7,0.7&#10;&#9;&#9;c0,0.2,0.1,0.4,0.2,0.5C87.9,15.1,88.1,15.1,88.3,15.1z"/><path d="M5.8,72.6c0.4,0,0.7-0.3,0.7-0.7c0-0.4-0.3-0.7-0.7-0.7c-0.4,0-0.7,0.3-0.7,0.7&#10;&#9;&#9;c0,0.2,0.1,0.4,0.2,0.5C5.4,72.5,5.6,72.6,5.8,72.6z"/><path d="M2.8,70.6c0.4,0,0.7-0.3,0.7-0.7c0-0.4-0.3-0.7-0.7-0.7c-0.4,0-0.7,0.3-0.7,0.7&#10;&#9;&#9;c0,0.2,0.1,0.4,0.2,0.5C2.4,70.5,2.6,70.6,2.8,70.6z"/><path d="M3.7,63.6c0.4,0,0.7-0.4,0.7-0.8c0-0.4-0.3-0.7-0.7-0.7c-0.2,0-0.4,0.1-0.5,0.2&#10;&#9;&#9;c-0.3,0.3-0.3,0.7,0,1C3.3,63.5,3.5,63.6,3.7,63.6L3.7,63.6z"/><path d="M54.6,110.1c0-0.1,0-0.1,0-0.2c0-0.4-0.3-0.7-0.7-0.7c-0.4,0-0.7,0.3-0.7,0.7&#10;&#9;&#9;c0,0.2,0.1,0.4,0.2,0.5c0,0,0.1,0.1,0.1,0.1c-0.1,0.4,0.1,0.8,0.5,0.9c0.4,0.1,0.8-0.1,0.9-0.5c0.1-0.3,0-0.5-0.2-0.7&#10;&#9;&#9;C54.7,110.2,54.6,110.2,54.6,110.1z"/><path d="M82.6,8.2c0.4,0,0.7-0.3,0.7-0.7c0-0.4-0.3-0.7-0.7-0.7c-0.4,0-0.7,0.3-0.7,0.7&#10;&#9;&#9;c0,0.2,0.1,0.4,0.2,0.5C82.2,8.1,82.4,8.2,82.6,8.2z"/><path d="M81.6,10.1c0.4,0,0.7-0.3,0.7-0.7c0-0.4-0.3-0.7-0.7-0.7c-0.4,0-0.7,0.3-0.7,0.7&#10;&#9;&#9;c0,0.2,0.1,0.4,0.2,0.5C81.2,10,81.4,10.1,81.6,10.1z"/><path d="M104.3,85.5c0-0.4-0.3-0.7-0.7-0.7c-0.4,0-0.7,0.3-0.7,0.7c0,0.4,0.3,0.7,0.7,0.7&#10;&#9;&#9;c0.2,0,0.4-0.1,0.5-0.2C104.2,85.9,104.3,85.7,104.3,85.5z"/><path d="M97.7,94.8c-0.4,0-0.7,0.3-0.7,0.7s0.3,0.7,0.7,0.7s0.7-0.3,0.7-0.7c0-0.2-0.1-0.4-0.2-0.5&#10;&#9;&#9;C98.1,94.8,97.9,94.8,97.7,94.8z"/><path d="M104.6,86.2c-0.4,0-0.7,0.3-0.7,0.7s0.3,0.7,0.7,0.7c0.4,0,0.7-0.3,0.7-0.7&#10;&#9;&#9;c0-0.2-0.1-0.4-0.2-0.5C105,86.3,104.8,86.2,104.6,86.2z"/><path d="M26.9,101.5c-0.3,0.3-0.3,0.7,0,1c0.3,0.3,0.7,0.3,1,0c0.3-0.3,0.3-0.7,0-1&#10;&#9;&#9;c-0.1-0.1-0.3-0.2-0.5-0.2C27.2,101.3,27,101.4,26.9,101.5z"/><path d="M15.4,90.6c-0.4,0-0.7,0.3-0.7,0.7c0,0.4,0.3,0.7,0.7,0.7c0.4,0,0.7-0.3,0.7-0.7&#10;&#9;&#9;c0-0.2-0.1-0.4-0.2-0.5C15.8,90.7,15.6,90.6,15.4,90.6z"/><path d="M9.7,82.4c-0.4,0-0.7,0.3-0.7,0.7c0,0.4,0.3,0.7,0.7,0.7c0.4,0,0.7-0.3,0.7-0.7&#10;&#9;&#9;c0-0.2-0.1-0.4-0.2-0.5C10.1,82.5,9.9,82.5,9.7,82.4z"/><path d="M5.5,77.7c-0.4,0-0.7,0.3-0.7,0.7c0,0.4,0.3,0.7,0.7,0.7c0.4,0,0.7-0.3,0.7-0.7&#10;&#9;&#9;c0-0.2-0.1-0.4-0.2-0.5C5.8,77.8,5.7,77.7,5.5,77.7z"/><path d="M8.9,84.9c-0.4,0-0.7,0.3-0.7,0.7c0,0.4,0.3,0.7,0.7,0.7c0.4,0,0.7-0.3,0.7-0.7&#10;&#9;&#9;c0-0.2-0.1-0.4-0.2-0.5C9.3,84.9,9.1,84.9,8.9,84.9z"/><path d="M14.2,91.9c-0.4,0-0.7,0.4-0.7,0.8c0,0.4,0.3,0.7,0.7,0.7c0.4,0,0.7-0.3,0.8-0.7&#10;&#9;&#9;C15,92.3,14.7,91.9,14.2,91.9C14.3,91.9,14.2,91.9,14.2,91.9z"/><path d="M19.8,97.8c-0.4,0-0.7,0.3-0.7,0.7s0.3,0.7,0.7,0.7c0.4,0,0.7-0.3,0.7-0.7&#10;&#9;&#9;c0-0.2-0.1-0.4-0.2-0.5C20.2,97.9,20,97.8,19.8,97.8z"/><path d="M75,109.5c-0.4,0-0.7,0.3-0.7,0.7s0.3,0.7,0.7,0.7c0.4,0,0.7-0.3,0.7-0.7c0-0.2-0.1-0.4-0.2-0.5&#10;&#9;&#9;C75.4,109.6,75.2,109.5,75,109.5z"/><path d="M66.8,111.3c0.4-0.1,0.6-0.5,0.5-0.9c-0.1-0.4-0.5-0.6-0.9-0.5c-0.1,0-0.2,0.1-0.3,0.2&#10;&#9;&#9;c0.4,0.1,0.7,0.4,0.6,0.8c0,0.3-0.2,0.5-0.5,0.6c-0.3,0.3-0.3,0.7,0,1s0.7,0.3,1,0c0.3-0.3,0.3-0.7,0-1&#10;&#9;&#9;C67.1,111.4,67,111.3,66.8,111.3L66.8,111.3z"/><path d="M89.4,12.6c0.4,0,0.7-0.3,0.7-0.7c0-0.4-0.3-0.7-0.7-0.7c-0.4,0-0.7,0.3-0.7,0.7&#10;&#9;&#9;c0,0.2,0.1,0.4,0.2,0.5C89,12.5,89.2,12.6,89.4,12.6z"/><path d="M96.3,20.5c0.4,0,0.7-0.3,0.8-0.7c0-0.4-0.3-0.7-0.7-0.8c0,0,0,0-0.1,0c-0.2,0-0.4,0.1-0.5,0.2&#10;&#9;&#9;c-0.3,0.3-0.3,0.7,0,1C95.9,20.4,96.1,20.5,96.3,20.5z"/><path d="M8.7,30c0,0.4,0.3,0.7,0.7,0.7c0.4,0,0.7-0.3,0.7-0.7c0-0.4-0.3-0.7-0.7-0.7&#10;&#9;&#9;c-0.2,0-0.4,0.1-0.5,0.2C8.8,29.6,8.7,29.8,8.7,30z"/><path d="M102.1,25c0,0.1,0,0.1,0,0.2c0,0.2,0.1,0.4,0.2,0.5c0.3,0.3,0.7,0.3,1,0c0,0,0,0,0,0&#10;&#9;&#9;c0.3-0.3,0.3-0.7,0-1c-0.1-0.1-0.2-0.1-0.3-0.2c0-0.1,0-0.1,0-0.2c0-0.4-0.3-0.7-0.7-0.7c-0.4,0-0.7,0.3-0.7,0.7&#10;&#9;&#9;C101.6,24.6,101.8,24.9,102.1,25L102.1,25z"/><path d="M108.3,37.9c-0.3,0.3-0.3,0.7,0,1c0.3,0.3,0.7,0.3,1,0c0.1-0.1,0.2-0.3,0.2-0.5c0,0,0-0.1,0-0.1&#10;&#9;&#9;c0.3,0.1,0.5,0,0.7-0.2c0.3-0.3,0.3-0.7,0-1c-0.3-0.3-0.7-0.3-1,0c-0.1,0.1-0.2,0.3-0.2,0.5c0,0,0,0.1,0,0.1&#10;&#9;&#9;C108.8,37.7,108.5,37.7,108.3,37.9L108.3,37.9z"/><path d="M103.1,29.4c0,0.4,0.3,0.7,0.7,0.7c0,0,0,0,0,0c0.4,0,0.7-0.3,0.7-0.7c0-0.2-0.1-0.4-0.2-0.5&#10;&#9;&#9;c-0.3-0.3-0.7-0.3-1,0C103.2,29,103.1,29.2,103.1,29.4z"/><path d="M108.2,78.9c-0.4,0-0.7,0.3-0.7,0.7s0.3,0.7,0.7,0.7s0.7-0.3,0.7-0.7c0-0.2-0.1-0.4-0.2-0.5&#10;&#9;&#9;C108.6,79,108.4,78.9,108.2,78.9z"/><path d="M110.1,75.3c0.1,0,0.1-0.1,0.1-0.1c0.3-0.3,0.3-0.7,0-1c-0.3-0.3-0.7-0.3-1,0&#10;&#9;&#9;c-0.3,0.3-0.3,0.7,0,1c0,0,0.1,0.1,0.2,0.1c-0.1,0-0.1,0.1-0.1,0.1c-0.3,0.3-0.3,0.7,0,1c0.3,0.3,0.7,0.3,1,0c0.3-0.3,0.3-0.7,0-1&#10;&#9;&#9;C110.2,75.4,110.2,75.3,110.1,75.3z"/><path d="M112,68.3c-0.4,0-0.7,0.3-0.7,0.7c0,0.4,0.3,0.7,0.7,0.7c0.4,0,0.7-0.3,0.7-0.7&#10;&#9;&#9;c0-0.2-0.1-0.4-0.2-0.5C112.4,68.4,112.2,68.3,112,68.3z"/><path d="M110.6,69.9c-0.4,0-0.7,0.3-0.7,0.7c0,0.4,0.3,0.7,0.7,0.7c0.4,0,0.7-0.3,0.7-0.7&#10;&#9;&#9;c0-0.2-0.1-0.4-0.2-0.5C111,70,110.8,69.9,110.6,69.9z"/><path d="M60.7,2.2C60.7,2.6,61,3,61.4,3s0.7-0.3,0.7-0.7c0-0.2-0.1-0.4-0.2-0.5c0,0-0.1,0-0.1-0.1&#10;&#9;&#9;c0.1,0,0.2-0.1,0.2-0.1c0.3-0.3,0.3-0.7,0-1s-0.7-0.3-1,0c-0.3,0.3-0.3,0.7,0,1c0,0,0,0,0,0c0,0,0.1,0,0.1,0.1&#10;&#9;&#9;C60.9,1.7,60.7,1.9,60.7,2.2L60.7,2.2z"/><path d="M47.7,2.6C47.7,2.6,47.7,2.6,47.7,2.6c-0.3,0.3-0.3,0.8,0,1.1c0.3,0.3,0.7,0.3,1,0&#10;&#9;&#9;c0.3-0.3,0.3-0.7,0-1c-0.1-0.1-0.1-0.1-0.2-0.2c0,0,0,0,0.1,0c0.3-0.3,0.3-0.7,0-1s-0.7-0.3-1,0c-0.3,0.3-0.3,0.7,0,1&#10;&#9;&#9;C47.5,2.5,47.6,2.5,47.7,2.6L47.7,2.6z"/><path d="M37.6,5c0.4,0,0.7-0.3,0.7-0.7c0-0.4-0.3-0.7-0.7-0.7c-0.4,0-0.7,0.3-0.7,0.7&#10;&#9;&#9;c0,0.2,0.1,0.4,0.2,0.5C37.2,4.9,37.4,5,37.6,5z"/><path d="M3,50.9c0-0.4-0.3-0.7-0.7-0.7c-0.4,0-0.7,0.3-0.7,0.7c0,0.4,0.3,0.7,0.7,0.7&#10;&#9;&#9;c0.2,0,0.4-0.1,0.5-0.2C2.9,51.3,3,51.1,3,50.9z"/><path d="M113.8,54.6c-0.3-0.3-0.7-0.3-1,0c-0.3,0.3-0.3,0.7,0,1c0.3,0.3,0.7,0.3,1,0&#10;&#9;&#9;c0.1-0.1,0.2-0.3,0.2-0.5C114,54.9,113.9,54.7,113.8,54.6z"/><path d="M109.8,41c0,0.4,0.3,0.7,0.7,0.7c0.4,0,0.7-0.3,0.7-0.7c0-0.4-0.3-0.7-0.7-0.7&#10;&#9;&#9;c-0.2,0-0.4,0.1-0.5,0.2C109.9,40.6,109.8,40.8,109.8,41z"/><path d="M112.8,60.3c-0.4,0-0.7,0.3-0.7,0.7c0,0.3,0.2,0.6,0.5,0.7c0,0,0,0-0.1,0&#10;&#9;&#9;c-0.2,0-0.4,0.1-0.5,0.2c0,0,0,0.1-0.1,0.1c-0.1-0.3-0.4-0.4-0.7-0.4c-0.4,0-0.7,0.3-0.7,0.7c0,0.4,0.3,0.7,0.7,0.7&#10;&#9;&#9;c0.2,0,0.4-0.1,0.5-0.2c0,0,0-0.1,0.1-0.1c0,0.1,0.1,0.2,0.1,0.2c0.3,0.3,0.7,0.3,1,0c0.3-0.3,0.3-0.7,0-1&#10;&#9;&#9;c-0.1-0.1-0.2-0.1-0.3-0.2c0,0,0,0,0.1,0c0.4,0,0.7-0.4,0.7-0.8C113.5,60.7,113.2,60.4,112.8,60.3L112.8,60.3z"/><path d="M112,50.4c-0.4,0-0.7,0.3-0.7,0.7c0,0.4,0.3,0.7,0.7,0.7c0.4,0,0.7-0.3,0.7-0.7&#10;&#9;&#9;c0-0.2-0.1-0.4-0.2-0.5C112.4,50.5,112.2,50.4,112,50.4z"/><path d="M54.2,111.8c-0.3,0-0.6,0.2-0.7,0.6l0,0c-0.3-0.3-0.7-0.3-1,0c-0.3,0.3-0.3,0.7,0,1&#10;&#9;&#9;c0.3,0.3,0.7,0.3,1,0c0.1-0.1,0.2-0.2,0.2-0.3v0c0.3,0.3,0.7,0.3,1,0c0.3-0.3,0.3-0.7,0-1C54.5,111.8,54.4,111.8,54.2,111.8&#10;&#9;&#9;L54.2,111.8z"/><path d="M42.7,109.9c0-0.4-0.3-0.7-0.7-0.7c-0.4,0-0.7,0.3-0.7,0.7c0,0.1,0,0.1,0,0.2&#10;&#9;&#9;c0,0-0.1,0.1-0.1,0.1c-0.3,0.3-0.3,0.7,0,1c0.3,0.3,0.7,0.3,1,0c0.1-0.1,0.2-0.3,0.2-0.5c0-0.1,0-0.1,0-0.2c0,0,0.1-0.1,0.1-0.1&#10;&#9;&#9;C42.6,110.3,42.7,110.1,42.7,109.9z"/><path d="M1.4,56.7c0-0.2-0.1-0.4-0.2-0.5c-0.3-0.3-0.7-0.3-1,0c0,0,0,0,0,0c-0.3,0.3-0.3,0.7,0,1&#10;&#9;&#9;c0.3,0.3,0.7,0.3,1,0C1.4,57.1,1.4,56.9,1.4,56.7L1.4,56.7z"/><path d="M2.3,61.2c0.3-0.3,0.3-0.7,0-1s-0.7-0.3-1,0c-0.3,0.3-0.3,0.7,0,1c0.1,0.1,0.3,0.2,0.5,0.2&#10;&#9;&#9;C2,61.4,2.1,61.4,2.3,61.2z"/><path d="M3.9,41.1c0.4,0,0.7-0.3,0.7-0.7c0-0.4-0.3-0.7-0.7-0.7c-0.4,0-0.7,0.3-0.7,0.7&#10;&#9;&#9;c0,0.2,0.1,0.4,0.2,0.5C3.6,41,3.7,41.1,3.9,41.1z"/><path d="M8.2,29.3c0.4,0,0.7-0.3,0.7-0.7c0-0.4-0.3-0.7-0.7-0.7c-0.4,0-0.7,0.3-0.7,0.7&#10;&#9;&#9;c0,0.2,0.1,0.4,0.2,0.5C7.9,29.2,8.1,29.3,8.2,29.3z"/><path d="M4.9,36.7c0.4,0,0.7-0.3,0.7-0.7c0-0.4-0.3-0.7-0.7-0.7c-0.4,0-0.7,0.3-0.7,0.7&#10;&#9;&#9;c0,0.2,0.1,0.4,0.2,0.5C4.5,36.7,4.7,36.7,4.9,36.7z"/><path d="M2.1,44.8c0.4,0,0.7-0.3,0.7-0.7c0-0.4-0.3-0.7-0.7-0.7c-0.4,0-0.7,0.3-0.7,0.7&#10;&#9;&#9;c0,0.2,0.1,0.4,0.2,0.5C1.8,44.7,1.9,44.8,2.1,44.8z"/><path d="M30,8.3c0.4,0,0.7-0.3,0.7-0.7c0-0.4-0.3-0.7-0.7-0.7c-0.4,0-0.7,0.3-0.7,0.7&#10;&#9;&#9;c0,0.2,0.1,0.4,0.2,0.5C29.6,8.3,29.8,8.3,30,8.3z"/><path d="M20.7,14.6c0,0.1,0.1,0.1,0.1,0.2c0.3,0.3,0.7,0.3,1,0c0.3-0.3,0.3-0.7,0-1&#10;&#9;&#9;c-0.1-0.1-0.2-0.1-0.3-0.2c-0.2-0.4-0.6-0.5-1-0.3c-0.4,0.2-0.5,0.6-0.3,1c0,0.1,0.1,0.1,0.1,0.2C20.5,14.5,20.6,14.5,20.7,14.6z"/><path d="M17.7,18c0.4,0,0.7-0.3,0.7-0.7c0-0.4-0.3-0.7-0.7-0.7c-0.4,0-0.7,0.3-0.7,0.7&#10;&#9;&#9;c0,0.2,0.1,0.4,0.2,0.5C17.3,17.9,17.5,18,17.7,18z"/><path d="M25.2,12c0.2,0,0.4-0.1,0.5-0.2c0.3-0.3,0.3-0.7,0-1c0,0,0,0,0,0c-0.3-0.3-0.7-0.3-1,0&#10;&#9;&#9;c-0.3,0.3-0.3,0.7,0,1C24.8,11.9,25,12,25.2,12L25.2,12z"/></g></svg>