<svg xmlns="http://www.w3.org/2000/svg" xmlns:xlink="http://www.w3.org/1999/xlink" x="0px" y="0px" viewBox="0 0 93 114" style="enable-background:new 0 0 93 114; fill:#231F20;" xml:space="preserve"><g transform="translate(0)"><path d="M76.4,14.6c-0.3-0.1-4.4-1-4.7-1l0,4.5c1.6,0.3,3.2,0.6,4.7,1L76.4,14.6z"/><path d="M76.5,9.7c-1.5-0.3-3.1-0.7-4.7-1l0,4.5c1.6,0.3,3.2,0.6,4.7,1L76.5,9.7z"/><path d="M80.9,15.8c-1.3-0.4-2.7-0.8-4.2-1.1l0,4.5c1.5,0.4,2.9,0.7,4.2,1.1L80.9,15.8z"/><path d="M4.2,92.1V92l0,0V92.1z"/><path d="M84.9,12l0-4.5c-1.2-0.5-2.5-0.9-3.7-1.3l0,4.5C82.5,11.1,83.7,11.5,84.9,12L84.9,12z"/><path d="M0.2,29L0.2,29z"/><path d="M0.2,29.3c0-0.1,0-0.2,0-0.2V29.3z"/><path d="M0.2,29.1L0.2,29.1z"/><path d="M88.2,9c-1-0.5-2-1-3.1-1.5l0,4.5c1.1,0.4,2.1,0.9,3.1,1.5L88.2,9z"/><path d="M84.9,12.3c-1.1-0.5-2.4-0.9-3.7-1.3l0,0l0,4.5c1.3,0.4,2.5,0.8,3.7,1.3L84.9,12.3z"/><path d="M88.2,13.9c-1-0.5-2-1-3.1-1.5l0,4.5c1.1,0.4,2.1,0.9,3.1,1.5L88.2,13.9z"/><path d="M81,6.1C80.7,6,77,5,76.7,5l0,4.5c1.5,0.4,2.9,0.7,4.2,1.1L81,6.1z"/><path d="M81,10.9c-1.3-0.4-2.7-0.8-4.2-1.1l0,4.5c1.5,0.4,2.9,0.7,4.2,1.1L81,10.9z"/><path d="M3.5,9.8c-0.7,0.4-1.3,0.9-1.8,1.5l0,4.5c0.5-0.6,1.2-1.1,1.8-1.5L3.5,9.8z"/><path d="M6.1,12.8l0-4.5C5.3,8.7,4.4,9.2,3.6,9.7l0,4.5C4.4,13.7,5.3,13.2,6.1,12.8L6.1,12.8z"/><path d="M0.2,29.2L0.2,29.2z"/><path d="M29.6,17.2c-1.9,0.2-3.7,0.4-5.6,0.7l0,4.5c1.8-0.3,3.7-0.5,5.6-0.7L29.6,17.2z"/><path d="M29.6,12.4c-3.2,0.3-5.6,0.7-5.6,0.7l0,4.5c1.8-0.3,3.7-0.5,5.6-0.7L29.6,12.4z"/><path d="M48.2,16l0-4.5c-3.6,0-5.1,0-5.8,0l0,4.5C44.3,16,46.3,16,48.2,16z"/><path d="M48.2,20.9l0-4.5c-1.9,0-3.9,0-5.8,0l0,0l0,4.5C44.3,20.9,46.2,20.9,48.2,20.9z"/><path d="M29.6,7.5c-1.9,0.2-3.8,0.4-5.6,0.7l0,4.5c1.9-0.3,3.7-0.5,5.6-0.7L29.6,7.5z"/><path d="M29.7,2.7c-1.9,0.2-3.7,0.4-5.6,0.7c0,0,0,4.5,0,4.5c1.8-0.3,3.7-0.5,5.6-0.7L29.7,2.7z"/><path d="M13.6,10.4c-1.4,0.4-2.7,0.8-3.8,1.2c-1.8,0.6,0,4.5,0,4.5c1.2-0.4,2.5-0.8,3.8-1.2L13.6,10.4z"/><path d="M4.3,19.5L4.3,19.5L4.3,19.5z"/><path d="M48.2,6.4l0-4.5c-1.9,0-3.9,0-5.8,0l0,4.5C44.3,6.4,46.3,6.4,48.2,6.4z"/><path d="M48.2,11.2l0-4.5c-1.9,0-3.9,0-5.8,0l0,4.5C44.3,11.2,46.3,11.2,48.2,11.2z"/><path d="M71.4,18.4c-1.6-0.3-3.3-0.5-5.1-0.8l0,4.5c1.7,0.2,3.4,0.5,5.1,0.8L71.4,18.4z"/><path d="M4.3,43.7L4.3,43.7z"/><path d="M88.2,7.2c-1-0.5-2-1-3.1-1.5v1.6c1.1,0.4,2.1,0.9,3.1,1.5L88.2,7.2z"/><path d="M81,4.3c-1.3-0.4-2.7-0.8-4.2-1.1v1.6C78.2,5,79.6,5.4,81,5.8V4.3z"/><path d="M84.9,5.6c-1.1-0.5-2.4-0.9-3.7-1.3v1.6c1.2,0.4,2.5,0.8,3.7,1.3L84.9,5.6z"/><path d="M76.5,3.1c-1.5-0.3-3.1-0.7-4.7-1v1.6c1.6,0.3,3.2,0.6,4.7,1V3.1z"/><path d="M9.5,6.9C8.4,7.3,7.3,7.7,6.3,8.2l0,4.5c1-0.5,2-0.9,3.2-1.3L9.5,6.9z"/><path d="M66.1,1.2c-1.8-0.2-3.6-0.4-5.4-0.6v1.6c1.8,0.2,3.6,0.4,5.4,0.6L66.1,1.2z"/><path d="M35.8,0.3c-1.9,0.1-3.9,0.3-5.8,0.5v1.6c1.9-0.2,3.8-0.4,5.8-0.5V0.3z"/><path d="M9.5,11.7c-1.2,0.4-2.2,0.9-3.2,1.3l0,4.5c1-0.5,2-0.9,3.2-1.3L9.5,11.7z"/><path d="M48.2,1.6V0c-1.9,0-3.9,0-5.8,0v1.6C44.3,1.6,46.3,1.5,48.2,1.6z"/><path d="M42,0.1c-2,0-3.9,0.1-5.8,0.3v1.6c1.9-0.1,3.9-0.2,5.8-0.3V0.1z"/><path d="M29.7,0.9c-1.8,0.2-3.7,0.4-5.6,0.7v1.6c1.8-0.3,3.7-0.5,5.6-0.7V0.9z"/><path d="M54.4,0.2C52.4,0.1,50.5,0,48.6,0v1.6c1.9,0,3.9,0.1,5.8,0.2V0.2z"/><path d="M71.5,2c-1.6-0.3-3.3-0.5-5.1-0.8v1.6c1.7,0.2,3.4,0.5,5.1,0.8L71.5,2z"/><path d="M60.3,0.6c-1.8-0.2-3.7-0.3-5.6-0.4v1.6c1.9,0.1,3.8,0.2,5.6,0.4V0.6z"/><path d="M35.8,11.8c-1.9,0.1-3.9,0.3-5.8,0.5l0,4.5c1.9-0.2,3.8-0.4,5.8-0.5L35.8,11.8z"/><path d="M42,1.9c-3.3,0.1-5.8,0.3-5.8,0.3l0,4.5C38.1,6.6,40,6.5,42,6.4L42,1.9z"/><path d="M35.8,16.7c-1.9,0.1-3.9,0.3-5.8,0.5l0,0l0,4.5c1.9-0.2,3.8-0.4,5.8-0.5L35.8,16.7z"/><path d="M13.6,5.6C12.2,6,10.9,6.4,9.8,6.8l0,4.5c1.2-0.4,2.5-0.8,3.8-1.2L13.6,5.6z"/><path d="M4.2,68.1v-0.3l0,0V68.1z"/><path d="M23.7,3.5c-1.8,0.3-3.5,0.6-5.1,0.9l0,4.5c1.6-0.3,3.3-0.6,5.1-0.9L23.7,3.5z"/><path d="M18.3,14.1c-1.6,0.3-3.1,0.7-4.5,1.1l0,4.5c1.4-0.4,2.9-0.7,4.5-1.1L18.3,14.1z"/><path d="M35.8,6.7l0-4.5c-1.9,0.1-3.9,0.3-5.8,0.5l0,4.5C31.9,7,33.8,6.8,35.8,6.7L35.8,6.7z"/><path d="M18.3,9.3c-1.6,0.3-3.1,0.7-4.5,1.1c-2.1,0.6,0,4.5,0,4.5c1.4-0.4,2.9-0.7,4.5-1.1L18.3,9.3z"/><path d="M23.7,13.1c-2.9,0.5-5.1,0.9-5.1,0.9l0,4.5c1.6-0.3,3.3-0.6,5.1-0.9L23.7,13.1z"/><path d="M35.8,7c-1.9,0.1-3.9,0.3-5.8,0.5l0,4.5c1.9-0.2,3.9-0.4,5.8-0.5L35.8,7z"/><path d="M23.7,8.3c-1.8,0.3-3.5,0.6-5.1,0.9l0,4.5c1.6-0.3,3.3-0.6,5.1-0.9L23.7,8.3z"/><path d="M13.6,3.7c-1.4,0.4-2.7,0.8-3.8,1.2v1.6c1.2-0.4,2.5-0.8,3.8-1.2V3.7z"/><path d="M18.3,4.4c-1.5,0.3-3,0.7-4.5,1.1l0,4.5c1.5-0.4,3-0.8,4.5-1.1L18.3,4.4z"/><path d="M9.5,5C8.4,5.5,7.3,5.9,6.3,6.4v1.6c1-0.5,2-0.9,3.2-1.3L9.5,5z"/><path d="M6.2,6.4C5.3,6.9,4.4,7.3,3.6,7.9v1.6c0.8-0.5,1.6-1,2.5-1.4V6.4z"/><path d="M3.5,8C2.9,8.4,2.3,8.9,1.7,9.5V11c0.5-0.6,1.2-1.1,1.8-1.5V8z"/><path d="M23.7,1.6c-1.8,0.3-3.5,0.6-5.1,0.9v1.6c1.6-0.3,3.3-0.6,5.1-0.9V1.6z"/><path d="M18.3,2.6c-1.6,0.3-3.1,0.7-4.5,1.1v1.6c1.4-0.4,2.9-0.7,4.5-1.1V2.6z"/><path d="M86.4,22.3L86.4,22.3z"/><path d="M86.4,22.6l0,3.2c0.9-0.4,1.8-0.9,2.6-1.4c0-0.8,0-3.4,0-4.5c-0.3,0.2-0.5,0.3-0.8,0.5l0,0&#10;&#9;&#9;c-0.6,0.3-1.1,0.6-1.8,0.9c0,0.8,0,1,0,1.1C86.4,22.3,86.4,22.4,86.4,22.6L86.4,22.6z"/><path d="M1.6,9.6c-0.4,0.5-0.8,1-1.1,1.6v1.6c0.3-0.6,0.6-1.1,1.1-1.6L1.6,9.6z"/><path d="M66.1,7.9c-1.8-0.2-3.6-0.4-5.4-0.6l0,4.5c1.8,0.2,3.6,0.4,5.4,0.6L66.1,7.9z"/><path d="M66,17.5c-1-0.1-4.9-0.6-5.4-0.6l0,4.5c1.8,0.2,3.6,0.4,5.4,0.6L66,17.5z"/><path d="M66,12.7c-1.8-0.2-3.6-0.4-5.4-0.6l0,0l0,4.5c1.8,0.2,3.6,0.4,5.4,0.6L66,12.7z"/><path d="M60.3,16.9c-1.8-0.2-3.7-0.3-5.6-0.4l0,4.5c1.9,0.1,3.8,0.2,5.6,0.4L60.3,16.9z"/><path d="M60.3,12.1c-1.9-0.2-3.8-0.3-5.6-0.4c0,0,0,4.5,0,4.5c1.9,0.1,3.8,0.2,5.6,0.4L60.3,12.1z"/><path d="M2,27.5L2,27.5c0-1.8,0-2.8,0-4.5c-0.1-0.1-0.3-0.3-0.4-0.4l0,0C1.4,22.3,1.2,22,1,21.8l0,0&#10;&#9;&#9;c-0.1-0.1-0.2-0.3-0.3-0.5c0,0.5,0,4.4,0,4.8v-0.3C1.1,26.5,1.5,27,2,27.5z"/><path d="M66.1,3.1c-1.8-0.2-3.6-0.4-5.4-0.6l0,4.5c1.8,0.2,3.6,0.4,5.4,0.6L66.1,3.1z"/><path d="M71.4,13.5c-1.7-0.3-3.4-0.6-5.1-0.8l0,4.5c1.7,0.2,3.4,0.5,5.1,0.8L71.4,13.5z"/><path d="M71.5,8.7c-0.4-0.1-4.7-0.8-5.1-0.8l0,4.5c1.7,0.2,3.4,0.5,5.1,0.8L71.5,8.7z"/><path d="M76.5,4.9c-1.5-0.3-3.1-0.7-4.7-1l0,4.5c1.7,0.3,3.2,0.6,4.7,1L76.5,4.9z"/><path d="M71.5,8.4l0-4.5c-0.4-0.1-4.7-0.8-5.1-0.8l0,4.5C68.1,7.9,69.8,8.1,71.5,8.4z"/><path d="M0.4,98.2C0.4,98.1,0.3,98.1,0.4,98.2L0.4,98.2c-0.2-0.5-0.3-0.9-0.3-1.3c0,0.6,0,1.1,0,1.6&#10;&#9;&#9;c0-0.8,0-1.6,0-1.7c0-0.9,0,3.8,0,4.5c0,0,0-0.1,0-0.3c0,0.7,0.1,1.4,0.5,2c0,0,0-4.5,0-4.5C0.5,98.4,0.4,98.3,0.4,98.2L0.4,98.2z"/><path d="M54.3,11.7c-1.9-0.1-3.8-0.2-5.8-0.2l0,4.5c1.9,0,3.8,0.1,5.8,0.2L54.3,11.7z"/><path d="M42,6.7c-1.9,0-3.9,0.1-5.8,0.3l0,4.5c2-0.1,3.9-0.2,5.8-0.3L42,6.7z"/><path d="M42,16.1l0-4.5c-2,0-3.9,0.1-5.8,0.3l0,4.5C38.1,16.2,40.1,16.1,42,16.1L42,16.1z"/><path d="M54.4,2c-1.9-0.1-3.8-0.2-5.8-0.2l0,4.5c1.9,0,3.9,0.1,5.8,0.2L54.4,2z"/><path d="M42,16.4c-1.9,0-3.9,0.1-5.8,0.3c0,0,0,4.5,0,4.5c1.9-0.1,3.9-0.2,5.8-0.3L42,16.4z"/><path d="M54.3,6.9c-1.9-0.1-3.8-0.2-5.8-0.2l0,4.5c1.9,0,3.9,0.1,5.8,0.2L54.3,6.9z"/><path d="M54.3,16.5c-1.9-0.1-3.8-0.2-5.8-0.2l0,0l0,4.5c1.9,0,3.8,0.1,5.8,0.2L54.3,16.5z"/><path d="M60.3,7.3c-1.8-0.2-3.7-0.3-5.6-0.4l0,0l0,4.5c1.9,0.1,3.8,0.2,5.6,0.4L60.3,7.3z"/><path d="M60.3,2.4c-1.8-0.2-3.7-0.3-5.6-0.4l0,4.5c1.9,0.1,3.8,0.2,5.6,0.4L60.3,2.4z"/><path d="M91.2,35.4L91.2,35.4v1.8c0.5-0.5,0.9-1,1.2-1.6c0-0.9,0-3.6,0-4.5c-0.3,0.5-0.6,0.9-1,1.3l0,0&#10;&#9;&#9;c0,0-0.1,0.1-0.1,0.1l0,0c0,0-0.1,0.1-0.1,0.1C91.2,35.1,91.2,34.9,91.2,35.4z"/><path d="M92.4,55.3L92.4,55.3z"/><path d="M92.4,55.4L92.4,55.4z"/><path d="M91.2,59.5L91.2,59.5v1.8c0.5-0.5,0.9-1,1.2-1.6c0-3.2,0-4.1,0-4.4c0,0,0,0,0,0v0l0,0v-0.1&#10;&#9;&#9;c-0.3,0.6-0.7,1.1-1.2,1.6C91.2,59.6,91.2,59,91.2,59.5z"/><path d="M92.4,55.3L92.4,55.3z"/><path d="M89.2,34.2L89.2,34.2z"/><path d="M89.2,34.1v-0.1l0.2-0.1l0,0l0.1-0.1l0,0c0.6-0.4,1.1-0.8,1.6-1.3c0-1.8,0-2.8,0-4.5&#10;&#9;&#9;c-0.5,0.5-1,0.9-1.6,1.3l0,0l-0.3,0.2C89.2,33.1,89.2,33.9,89.2,34.1z"/><path d="M89.2,34.1L89.2,34.1z"/><path d="M89.2,34.1L89.2,34.1z"/><path d="M88.1,68.6c-0.6,0.3-1.1,0.6-1.8,0.9v1.1l0,0v0.3l0,0l0,3.2c0.9-0.4,1.8-0.9,2.6-1.4&#10;&#9;&#9;c0-0.2,0-0.3,0-0.4l0,0v0c0-0.1,0-0.8,0-4.2C88.7,68.3,88.4,68.5,88.1,68.6L88.1,68.6z"/><path d="M92.4,98.6c0,0,0-0.1,0-0.1V98.6z"/><path d="M92.5,98.1L92.5,98.1c0.3-0.5,0.4-1.1,0.4-1.7c0,0.1,0,0.2,0,0.2c0,0,0-0.1,0-0.2c0,0,0,0,0,0&#10;&#9;&#9;c0,0.1,0,0.1,0,0.2l0,0v-0.2c0-0.5,0-1.1,0-2.1c0-0.1,0-0.1,0-0.2c0-0.7,0-1.5,0-1.9v-0.2c0,0.1,0,0.1,0,0.2c0-0.2,0-0.3,0-0.3&#10;&#9;&#9;c0,0,0,1,0,2.1c0-0.5,0-1.2,0-1.9c0,0.4-0.1,0.9-0.3,1.3l0,0c0,0-0.1,0.3-0.1,0.3c0,1.1,0,4,0,4.7v-0.1&#10;&#9;&#9;C92.4,98.2,92.4,98.1,92.5,98.1z M92.8,94.2L92.8,94.2L92.8,94.2C92.8,94.2,92.8,94.2,92.8,94.2z"/><path d="M91.4,11.4c-0.6-0.6-1.3-1.1-2-1.6l0,0l0,4.5c0.7,0.5,1.4,1,2,1.6L91.4,11.4z"/><path d="M89.3,9.7l-1-0.6l0,4.5c0.4,0.2,0.7,0.4,1,0.6L89.3,9.7z"/><path d="M91.5,9.6L91.5,9.6C92,10.2,91.9,10,91.5,9.6z"/><path d="M92.6,11.3c-0.3-0.6-0.7-1.1-1.1-1.6v1.5c0.5,0.5,0.8,1,1.1,1.6C92.6,12.8,92.6,11.3,92.6,11.3z&#10;&#9;&#9;"/><path d="M92.9,39L92.9,39z"/><path d="M92.9,39c0-0.1,0-0.1,0-0.1V39z"/><path d="M93,13.3c0,0,0-0.1,0-0.1c0-0.1,0-0.2,0-0.3c0-0.5-0.1-1-0.3-1.5c0,0,0,1.5,0,1.6&#10;&#9;&#9;c0.1,0.2,0.2,0.5,0.2,0.7v0c0,0.1,0,0.1,0,0.1c-0.1-0.2-0.1-0.4-0.2-0.6v1.1v0v0v0c0,0,0,0.1,0,0.1l0,0l0,0v-1.4&#10;&#9;&#9;c-0.3-0.6-0.7-1.1-1.1-1.6l0,0l0,4.5l0,0c0.1-0.1,0.2-0.2,0.2-0.3c-0.1,0.1-0.1,0.2-0.2,0.3l0,0c0,0-0.1,0.1-0.1,0.1l0,0&#10;&#9;&#9;c-0.6-0.6-1.2-1.1-1.9-1.6c0,0,0,3.1,0,3.1c-0.1,0-0.1,0.1-0.2,0.1c0,0,0-3.3,0-3.3l-1-0.6c0,0,0,4.5,0,4.5l0,0l-0.1,0l0,0l-0.1,0&#10;&#9;&#9;l0,0L88,18.6c-0.9-0.5-1.9-1-2.9-1.4c0,0,0,0,0,2.7C85,20,85,20,84.9,20.1l0-2.9c-1.1-0.5-2.4-0.9-3.7-1.3l0,4.5&#10;&#9;&#9;c0.5,0.2,1.2,0.4,1.5,0.5l0.2-0.1c0,0,0,0.3,0,1.6c1.2-0.4,2.6-1,3.3-1.3v-1.6l0.2-0.1V21c0.6-0.3,1.2-0.6,1.8-0.9l0,0&#10;&#9;&#9;c0.3-0.2,0.6-0.3,0.8-0.5c0-0.3,0-0.4,0-1.6l0.1-0.1c0,1.2,0,1.5,0,1.6l0.1,0l0,0c0.7-0.4,1.3-0.9,1.9-1.4l0,0v-1.6l0.1-0.1&#10;&#9;&#9;c-0.1,0.1-0.2,0.2-0.3,0.3c0.1-0.1,0.2-0.2,0.3-0.3l0,0l0,0l0,0v1.6l0,0c0,0,0.1-0.1,0.1-0.1l0,0l0.1-0.1l0,0&#10;&#9;&#9;c0.4-0.4,0.7-0.8,1-1.3c0,0,0-1.6,0-1.6c0,0,0-0.1,0.1-0.1v1.6c0,0,0.1-0.3,0.1-0.3l0,0c0.2-0.5,0.3-1.1,0.3-1.6c0,0.1,0,0.2,0,0.2&#10;&#9;&#9;c0-0.1,0-1.6,0-1.7c0,0.1,0,0.2,0,0.3C93,13.2,93,13.3,93,13.3z M91.8,15.7c0.1-0.1,0.1-0.1,0.2-0.2C92,15.5,91.9,15.6,91.8,15.7&#10;&#9;&#9;L91.8,15.7z M92.1,15.4L92.1,15.4c0.1-0.1,0.1-0.2,0.2-0.3C92.3,15.1,92.1,15.3,92.1,15.4L92.1,15.4z M92.5,14.7L92.5,14.7&#10;&#9;&#9;C92.5,14.7,92.5,14.7,92.5,14.7L92.5,14.7z M92.8,14c0-0.1,0-0.1,0.1-0.2l0,0C92.8,13.9,92.8,14,92.8,14L92.8,14z M92.8,14.2&#10;&#9;&#9;c0,0,0-0.1,0-0.1C92.8,14.1,92.8,14.1,92.8,14.2L92.8,14.2z M92.9,13.6c0-0.1,0-0.2,0-0.2C93,13.4,92.9,13.5,92.9,13.6L92.9,13.6z&#10;&#9;&#9; M93,13c0,0.7,0,1.1,0,1.2C93,13.9,93,13.5,93,13L93,13z"/><path d="M91.4,9.5C91.2,9.3,91.1,9.3,91.4,9.5L91.4,9.5z"/><path d="M92.9,63L92.9,63z"/><path d="M91.4,11.1V9.6c-0.4-0.4-0.8-0.7-1.2-1.1l0.1,0l-0.1,0c-0.2-0.2-0.4-0.3-0.6-0.4&#10;&#9;&#9;c0,0-0.1-0.1-0.1-0.1l0,0l0,0v1.5C90.1,10,90.8,10.5,91.4,11.1L91.4,11.1z"/><path d="M92.9,67.8L92.9,67.8C92.9,67.8,92.9,67.8,92.9,67.8z"/><path d="M92.9,67.8L92.9,67.8z"/><path d="M92.9,87.1v0.1C92.9,87.2,92.9,87.1,92.9,87.1z"/><path d="M92.9,38.9L92.9,38.9z"/><path d="M92.9,38.9L92.9,38.9C92.9,39,92.9,38.9,92.9,38.9z"/><path d="M92.9,63L92.9,63z"/><path d="M92.9,63L92.9,63z"/><path d="M93,34c0,0,0,0.9,0,2c0-0.5,0-1.1,0-1.8c0,0.5-0.2,0.9-0.4,1.4l0,0c0,0.1-0.1,0.1-0.1,0.2&#10;&#9;&#9;c0,0.9,0,3.5,0,4.5c0,0,0.1-0.3,0.1-0.3l0,0c0.2-0.5,0.3-1,0.3-1.5v0.1c0,0,0,0,0-0.1c0-0.5,0-1.2,0-2.4C93,35.1,93,34.1,93,34z"/><path d="M93,31.2c0-0.5,0-1.1,0-1.8c0,0.6-0.2,1.1-0.5,1.6c0,0.6,0,0.3,0,4.5c0-0.1,0.1-0.1,0.1-0.2l0,0&#10;&#9;&#9;c0.3-0.5,0.4-1.1,0.4-1.7c0,0.1,0,0.2,0,0.3c0,0,0-0.1,0-0.3c0-0.5,0-1.1,0-2c0-1.1,0-2.3,0-2.3C93,29.2,93,29.1,93,31.2z"/><path d="M89.3,7.9L89.3,7.9L89.3,7.9c-0.2-0.1-0.7-0.4-1-0.6v1.6c0.4,0.2,0.7,0.4,1,0.6L89.3,7.9z"/><path d="M92.9,53.3c0,0,0-0.1,0,4.6C92.9,57.9,92.9,53.4,92.9,53.3z"/><path d="M11.3,54.1L11.3,54.1z"/><path d="M11.3,54C11.3,54,11.3,54.1,11.3,54C11.3,54.1,11.3,54,11.3,54z"/><path d="M11.3,54L11.3,54z"/><path d="M11.3,54.2L11.3,54.2z"/><path d="M13.8,52.6c-0.9-0.2-1.6-0.4-2.5-0.7c0,1.2,0,1.8,0,2.1c0-0.1,0,0.2,0,2.4&#10;&#9;&#9;c1.3,0.4,2.9,0.9,4.1,1.2l0-4.5C14.9,52.9,14.3,52.7,13.8,52.6L13.8,52.6z"/><path d="M11.3,54.2C11.3,54.3,11.3,54.3,11.3,54.2z"/><path d="M11.3,54.1L11.3,54.1z"/><path d="M56,113.7c1.5-0.1,4.1-0.3,5.8-0.4c0,0,0-4.5,0-4.5c-1.9,0.2-3.9,0.3-5.8,0.4&#10;&#9;&#9;C56,109.2,56,113.7,56,113.7z"/><path d="M49.8,114c1.5,0,4-0.1,5.9-0.2c0,0,0-4.5,0-4.5c-1.9,0.1-3.9,0.2-5.9,0.2&#10;&#9;&#9;C49.8,109.5,49.8,114,49.8,114z"/><path d="M68.2,71L68.2,71c0,0.2,0,2.8,0,3.3v-0.3c1.9-0.3,4.2-0.7,5.2-0.9c0-0.5,0-4,0-4.5&#10;&#9;&#9;c-1.1,0.2-3.3,0.6-5.2,0.9C68.2,69.9,68.2,70.5,68.2,71z"/><path d="M37.5,113.7c1.7,0.1,4.1,0.2,5.8,0.2c0,0,0-4.5,0-4.5c-1.9,0-3.8-0.1-5.8-0.2&#10;&#9;&#9;C37.5,109.2,37.5,113.7,37.5,113.7z"/><path d="M7.4,108.1c0.8,0.4,2.3,0.9,3.6,1.3c0,0,0-4.5,0-4.5c-1.2-0.4-2.4-0.8-3.6-1.3&#10;&#9;&#9;C7.4,103.5,7.4,108.1,7.4,108.1z"/><path d="M6.2,59.5c-0.7-0.3-1.2-0.6-1.9-1c0,1.6,0,3.8,0,4.5C4.9,63.4,5.5,63.7,6,64l0,0&#10;&#9;&#9;c0.2,0.1,0.9,0.4,1.2,0.6c0-1,0-3.4,0-4.5C6.9,59.9,6.6,59.7,6.2,59.5L6.2,59.5z"/><path d="M88.1,83.1c-0.6,0.3-1.2,0.6-1.8,0.9c0,1.6,0,0.4,0,4.5c0.7-0.3,1.3-0.6,1.8-0.9l0,0&#10;&#9;&#9;c0.3-0.2,0.6-0.3,0.8-0.5c0,0,0-4.5,0-4.5C88.7,82.8,88.4,82.9,88.1,83.1L88.1,83.1z"/><path d="M15.6,110.7c1.2,0.3,3,0.7,4.6,1c0,0,0-4.5,0-4.5c-1.6-0.3-3.2-0.6-4.6-1&#10;&#9;&#9;C15.6,106.2,15.6,110.7,15.6,110.7z"/><path d="M11.2,109.5c1.2,0.4,3,0.9,4.1,1.2c0,0,0-4.5,0-4.5c-1.5-0.4-2.8-0.8-4.1-1.2L11.2,109.5z"/><path d="M20.5,111.8c1.2,0.2,3.2,0.6,4.9,0.8l0.1,0l0,0l0-4.5c-1.7-0.2-3.4-0.5-5-0.8&#10;&#9;&#9;C20.5,107.3,20.5,111.8,20.5,111.8z"/><path d="M25.9,112.6L25.9,112.6c0.2,0,0.3,0,0.5,0.1c1.5,0.2,3.3,0.4,4.8,0.6c0,0,0-4.5,0-4.5&#10;&#9;&#9;c-1.8-0.2-3.6-0.4-5.3-0.6L25.9,112.6z"/><path d="M1.9,104.7l0-4.5c-0.5-0.5-0.9-1-1.3-1.6c0,1,0,3.5,0,4.5C0.9,103.7,1.3,104.2,1.9,104.7z"/><path d="M2,104.8c0.7,0.6,1.4,1.1,2.1,1.6l0-4.5c-0.8-0.5-1.5-1-2.1-1.6L2,104.8z"/><path d="M43.6,109.4c0,0,0,4.5,0,4.5c1.7,0,3.9,0,5.8,0c0,0,0-4.5,0-4.5&#10;&#9;&#9;C47.5,109.5,45.6,109.5,43.6,109.4z"/><path d="M0.4,93.3C0.4,93.3,0.4,93.3,0.4,93.3L0.4,93.3C0.2,92.9,0.1,92.4,0,92c0,0.9,0,1.6,0,2.2&#10;&#9;&#9;c0-1.1,0-2.3,0-2.3c0,0,0-0.1,0-0.1c0,0.1,0,1.7,0,3c0,0.4,0,0.8,0,1.1c0,0.3,0,0.6,0,0.6c0,0,0-0.2,0-0.4c0,0.6,0.1,1.2,0.3,1.8&#10;&#9;&#9;l0,0c0,0,0.1,0.3,0.2,0.4c0-3.6,0-2.9,0-4.5C0.5,93.5,0.4,93.4,0.4,93.3L0.4,93.3z"/><path d="M31.5,113.3c1.8,0.2,4.2,0.3,5.6,0.4c0,0,0-4.5,0-4.5c-1.9-0.1-3.7-0.3-5.6-0.4&#10;&#9;&#9;C31.5,108.8,31.5,113.3,31.5,113.3z"/><path d="M4.3,106.5c0.9,0.6,1.9,1.1,2.9,1.5c0,0,0-4.5,0-4.5c-1-0.4-2-0.9-2.9-1.5L4.3,106.5z"/><path d="M20.5,107c1.6,0.3,3.3,0.6,5,0.8c0,0,0-4.5,0-4.5c-1.7-0.2-3.4-0.5-5-0.8L20.5,107z"/><path d="M68.2,98.1L68.2,98.1c1.8-0.3,3.6-0.6,5.2-0.9l0-4.5c-1.6,0.3-3.3,0.6-5.2,0.9L68.2,98.1z"/><path d="M31.6,94c1.8,0.2,3.7,0.3,5.6,0.4l0-4.5c-1.9-0.1-3.7-0.3-5.6-0.4L31.6,94z"/><path d="M68.2,102.9c1.7-0.2,3.5-0.5,5.2-0.9l0-4.5c-1.6,0.3-3.4,0.6-5.2,0.9L68.2,102.9z"/><path d="M68.1,107.7c1.8-0.3,3.6-0.6,5.2-0.9l0-4.5c-1.6,0.3-3.3,0.6-5.2,0.9L68.1,107.7z"/><path d="M31.6,98.8c1.8,0.2,3.7,0.3,5.6,0.4l0-4.5c-1.9-0.1-3.7-0.3-5.6-0.4L31.6,98.8z"/><path d="M31.6,103.7c1.9,0.2,3.7,0.3,5.6,0.4l0-4.5c-1.9-0.1-3.7-0.3-5.6-0.4L31.6,103.7z"/><path d="M37.5,108.9c1.9,0.1,3.8,0.2,5.8,0.2c0,0,0-4.5,0-4.5c-1.9,0-3.8-0.1-5.8-0.2L37.5,108.9z"/><path d="M37.5,104.1c0,0,2.5,0.2,5.8,0.2l0-4.5c-1.9,0-3.9-0.1-5.8-0.2L37.5,104.1z"/><path d="M49.8,104.3c2,0,3.9-0.1,5.9-0.2l0-4.5c-1.9,0.1-3.9,0.2-5.9,0.2L49.8,104.3z"/><path d="M73.7,106.8L73.7,106.8c1.5-0.3,3.1-0.6,4.6-1l0-4.5c-1.4,0.4-3,0.7-4.6,1L73.7,106.8z"/><path d="M73.7,102c1.6-0.3,3.2-0.7,4.6-1l0-4.5c-1.5,0.4-3.1,0.7-4.6,1L73.7,102z"/><path d="M82.7,104.4c1.1-0.4,2.3-0.8,3.3-1.3l0-4.5c-1,0.5-2.1,0.9-3.3,1.3L82.7,104.4z"/><path d="M31.5,108.5c1.8,0.2,3.7,0.3,5.6,0.4l0-4.5c-1.9-0.1-3.7-0.3-5.6-0.4L31.5,108.5z"/><path d="M78.5,105.7c1.4-0.4,2.7-0.8,4-1.2c0,0,0-4.5,0-4.5c-1.2,0.4-2.5,0.8-4,1.2L78.5,105.7z"/><path d="M49.8,109.2c2,0,3.9-0.1,5.9-0.2l0-4.5c-1.9,0.1-3.9,0.2-5.9,0.2L49.8,109.2z"/><path d="M43.7,46.7c0,4.2,0,2.8,0,4.5c2.1,0,5.1,0,5.8,0c0-0.8,0-0.9,0-4.5&#10;&#9;&#9;C48.8,46.7,45.5,46.7,43.7,46.7z"/><path d="M11,99.8c0,0,0-4.5,0-4.5c-1.4-0.4-2.8-1-3.6-1.3c0,0.4,0,4,0,4.5C8.5,98.9,9.7,99.3,11,99.8z"/><path d="M37.5,99.3c1.9,0.1,3.8,0.2,5.8,0.2l0-4.5c-1.9,0-3.8-0.1-5.8-0.2L37.5,99.3z"/><path d="M7.4,103.3c1.1,0.5,2.3,0.9,3.6,1.3l0-4.5c-1.2-0.4-2.4-0.8-3.6-1.3L7.4,103.3z"/><path d="M25.9,107.8c1.7,0.2,3.5,0.4,5.3,0.6l0-4.5c-1.8-0.2-3.6-0.4-5.3-0.6L25.9,107.8z"/><path d="M20.6,97.3c1.6,0.3,3.3,0.6,5,0.8l0-4.5c-1.7-0.2-3.4-0.5-5-0.8L20.6,97.3z"/><path d="M25.9,103c0,0,2.3,0.3,5.3,0.6l0-4.5c-1.8-0.2-3.6-0.4-5.3-0.6L25.9,103z"/><path d="M68.3,45.3c0,0.9,0,3.9,0,4.8v-0.3c1.7-0.2,3.5-0.5,5.2-0.9c0-0.5,0-4,0-4.5&#10;&#9;&#9;c-0.6,0.1-1.2,0.2-1.8,0.3C71.8,44.7,68.4,45.3,68.3,45.3z"/><path d="M20.5,102.1c1.6,0.3,3.3,0.6,5,0.8l0-4.5c-1.7-0.2-3.4-0.5-5-0.8L20.5,102.1z"/><path d="M15.6,105.9c1.5,0.4,3,0.7,4.6,1l0-4.5c-1.5-0.3-3.1-0.6-4.6-1L15.6,105.9z"/><path d="M25.9,98.2c0,0,2.3,0.3,5.3,0.6l0-4.5c-1.8-0.2-3.6-0.4-5.3-0.6L25.9,98.2z"/><path d="M37.5,94.5c1.9,0.1,3.8,0.2,5.8,0.2l0-4.5c-1.9,0-3.9-0.1-5.8-0.2L37.5,94.5z"/><path d="M4.3,101.7c0.9,0.6,1.9,1.1,2.9,1.5l0-4.5c-1-0.4-2-0.9-2.9-1.5L4.3,101.7z"/><path d="M15.6,101.1c0,0,1.9,0.5,4.6,1l0-4.5c-1.6-0.3-3.1-0.6-4.6-1L15.6,101.1z"/><path d="M11.2,99.8c1.3,0.4,2.7,0.8,4.1,1.2l0-4.5c-1.5-0.4-2.8-0.8-4.1-1.2L11.2,99.8z"/><path d="M11.2,104.7c1.3,0.4,2.7,0.8,4.1,1.2l0-4.5c-1.5-0.4-2.8-0.8-4.1-1.2L11.2,104.7z"/><path d="M31.6,60.2c1.5,0.1,4.6,0.4,5.6,0.4c0-0.2,0,0.7,0-4.5c-2.6-0.2-5.6-0.4-5.6-0.4&#10;&#9;&#9;C31.6,55.9,31.6,60,31.6,60.2z"/><path d="M13.8,28.5c-0.7-0.2-1.2-0.3-2.5-0.7l0,0c0,4.6,0,0.9,0,4.5c1.5,0.5,3.4,1,4.1,1.2&#10;&#9;&#9;c0,0,0-4.5,0-4.5C14.9,28.8,14.4,28.6,13.8,28.5L13.8,28.5z"/><path d="M56,108.9c2-0.1,3.9-0.3,5.8-0.4l0-4.5c-1.9,0.2-3.9,0.3-5.8,0.4L56,108.9z"/><path d="M86.3,103c0.9-0.4,1.8-0.9,2.6-1.4l0-4.5c-0.9,0.5-1.7,1-2.6,1.4L86.3,103z"/><path d="M56,104.1c1.9-0.1,3.9-0.3,5.8-0.4l0-4.5c-1.9,0.2-3.9,0.3-5.8,0.4L56,104.1z"/><path d="M56,99.3c1.9-0.1,3.9-0.3,5.8-0.4l0-4.5c-1.9,0.2-3.9,0.3-5.8,0.4L56,99.3z"/><path d="M61.8,89.2l0-4.5C61.1,84.7,58,85,56,85.1c0,3.8,0,3.4,0,4.5C58.1,89.5,60,89.4,61.8,89.2z"/><path d="M49.8,94.7c2,0,3.9-0.1,5.9-0.2c0,0,0-4.5,0-4.5c-1.9,0.1-3.9,0.2-5.9,0.2L49.8,94.7z"/><path d="M88.1,87.9c-0.6,0.3-1.2,0.6-1.8,0.9c0,1.6,0,0.4,0,4.5c0.6-0.3,1.2-0.6,1.8-0.9l0,0&#10;&#9;&#9;c0.3-0.2,0.6-0.3,0.8-0.5c0-0.4,0,0.5,0-4.5C88.7,87.6,88.4,87.8,88.1,87.9L88.1,87.9z"/><path d="M56,94.5c1.9-0.1,3.9-0.3,5.8-0.4l0-4.5c-1.9,0.2-3.9,0.3-5.8,0.4L56,94.5z"/><path d="M49.8,99.5c1.9,0,3.9-0.1,5.9-0.2l0-4.5c-1.9,0.1-3.9,0.2-5.9,0.2L49.8,99.5z"/><path d="M91.1,104.7c0.5-0.5,0.9-1,1.2-1.6c0,0,0-4.5,0-4.5c-0.3,0.6-0.7,1.1-1.2,1.6&#10;&#9;&#9;C91.1,100.2,91.1,104.7,91.1,104.7z"/><path d="M92.9,72.2L92.9,72.2z"/><path d="M13.7,76.7c-0.9-0.2-1.6-0.4-2.5-0.7c0,2.5,0,2.1,0,4.5c1.5,0.5,3.4,1,4.1,1.2c0,0,0-4.5,0-4.5&#10;&#9;&#9;C14.8,77,14.3,76.9,13.7,76.7L13.7,76.7z"/><path d="M6.3,35.4c-0.7-0.3-1.2-0.6-1.9-1c0,1.6,0,3.8,0,4.5c0.6,0.3,1.1,0.6,1.7,0.9l0,0&#10;&#9;&#9;c0.2,0.1,0.9,0.4,1.2,0.6c0-1,0-3.5,0-4.5C7,35.7,6.6,35.6,6.3,35.4L6.3,35.4z"/><path d="M43.6,90.1l0,4.5c0.7,0,2.5,0.1,5.8,0l0-4.5C47.5,90.2,45.5,90.2,43.6,90.1z"/><path d="M89,101.5c0.7-0.4,1.3-0.9,1.9-1.5c0-1.7,0-2.9,0-4.5c-0.6,0.6-1.3,1.1-1.9,1.5L89,101.5z"/><path d="M43.6,104.6l0,4.5c1.9,0,3.9,0,5.8,0l0-4.5C47.5,104.7,45.5,104.7,43.6,104.6z"/><path d="M43.6,99.8l0,4.5c1.9,0,3.9,0,5.8,0l0-4.5C47.5,99.8,45.5,99.8,43.6,99.8z"/><path d="M43.6,95l0,4.5c1.9,0,3.9,0,5.8,0l0-4.5C47.5,95,45.5,95,43.6,95z"/><path d="M82.7,99.6c1.2-0.4,2.3-0.9,3.3-1.3c0-3.6,0-3.7,0-4.5c-1.1,0.5-2.2,0.9-3.3,1.3L82.7,99.6z"/><path d="M73.7,97.2c1.6-0.3,3.2-0.7,4.6-1c0-0.9,0-3.7,0-4.5c-0.7,0.2-2.8,0.7-4.6,1L73.7,97.2z"/><path d="M86.1,93.5c0-2.6,0-2.7,0-4.5c-0.7,0.3-2.1,0.9-3.3,1.3c0,3.2,0,2.8,0,4.5&#10;&#9;&#9;C84,94.4,85.4,93.8,86.1,93.5z"/><path d="M78.5,100.9c1.4-0.4,2.7-0.8,4-1.2l0-4.5c-1.3,0.4-2.6,0.8-4,1.2L78.5,100.9z"/><path d="M62.2,108.5c1.9-0.2,3.8-0.4,5.7-0.7l0-4.5c-1.9,0.3-3.8,0.5-5.7,0.7L62.2,108.5z"/><path d="M88.1,92.7c-0.6,0.3-1.2,0.6-1.8,0.9c0,1.4,0,0.9,0,4.5c0.9-0.4,1.8-0.9,2.6-1.4&#10;&#9;&#9;c0-0.8,0-0.5,0-4.5C88.7,92.4,88.4,92.6,88.1,92.7L88.1,92.7z"/><path d="M62.2,103.6c1.9-0.2,3.8-0.4,5.7-0.7l0-4.5c-1.9,0.3-3.8,0.5-5.7,0.7L62.2,103.6z"/><path d="M62.2,98.8c1.9-0.2,3.8-0.4,5.7-0.7l0-4.5c-1.9,0.3-3.8,0.5-5.7,0.7L62.2,98.8z"/><path d="M43.6,70.8c0,3.2,0,3.6,0,4.5c2.1,0,5.1,0,5.8,0c0-1.6,0-3,0-4.5c-0.1,0-1.4,0-1.4,0&#10;&#9;&#9;C47.4,70.9,46.2,70.9,43.6,70.8z"/><path d="M31.7,36.1c1.9,0.2,4.8,0.4,5.6,0.4c0,0,0-4.5,0-4.5c-2.4-0.1-5.6-0.4-5.6-0.4&#10;&#9;&#9;C31.7,31.6,31.7,35.9,31.7,36.1z"/><path d="M15.6,96.3c1.5,0.4,3,0.7,4.6,1l0-4.5c-1.7-0.3-3.2-0.6-4.6-1L15.6,96.3z"/><path d="M73.6,111.6c1.4-0.3,3.2-0.7,4.6-1c0,0,0-4.5,0-4.5c-1.5,0.4-3.1,0.7-4.6,1&#10;&#9;&#9;C73.7,107.1,73.6,111.6,73.6,111.6z"/><path d="M89,106.3c0.7-0.4,1.3-0.9,1.9-1.5c0,0,0-4.5,0-4.5c-0.6,0.6-1.3,1.1-1.9,1.5&#10;&#9;&#9;C89,101.8,89,106.3,89,106.3z"/><path d="M78.5,110.5c1.2-0.3,2.7-0.8,4-1.2c0,0,0-4.5,0-4.5c-1.2,0.4-2.5,0.8-4,1.2&#10;&#9;&#9;C76.4,106.5,78.5,110.5,78.5,110.5z"/><path d="M62.1,113.3c2-0.2,4-0.4,5.7-0.7c0,0,0-4.5,0-4.5c-1.9,0.3-3.8,0.5-5.7,0.7&#10;&#9;&#9;C62.1,108.7,62.1,113.3,62.1,113.3z"/><path d="M68.1,112.5c1.5-0.2,3.6-0.6,5.2-0.9c0,0,0-4.5,0-4.5c-1.6,0.3-3.3,0.6-5.2,0.9&#10;&#9;&#9;C65.4,108.4,68.1,112.5,68.1,112.5z"/><path d="M1.6,85.4C1.5,85.3,1.5,85.3,1.6,85.4L1.6,85.4c-0.3-0.3-0.5-0.6-0.7-0.8l0,0&#10;&#9;&#9;c-0.1-0.1-0.2-0.3-0.3-0.5c0,1.7,0,2.6,0,4.5c0.4,0.6,0.8,1.1,1.3,1.6c0-3.3,0-1.2,0-4.5C1.8,85.6,1.7,85.5,1.6,85.4L1.6,85.4z"/><path d="M86.2,107.8c0.9-0.4,1.8-0.9,2.6-1.4c0,0,0-4.5,0-4.5c-0.9,0.5-1.7,1-2.6,1.4&#10;&#9;&#9;C86.3,103.3,86.2,107.8,86.2,107.8z"/><path d="M82.7,109.2c1-0.3,2.4-0.9,3.3-1.3c0,0,0-4.5,0-4.5c-1,0.5-2.1,0.9-3.3,1.3&#10;&#9;&#9;C80.9,105.3,82.7,109.2,82.7,109.2z"/><path d="M56.1,46.1L56.1,46.1c1.8-0.1,5-0.3,5.8-0.4c0,0,0-4.5,0-4.5c-0.8,0.1-3.9,0.3-5.8,0.4&#10;&#9;&#9;C56.1,45.8,56.1,46.1,56.1,46.1z"/><path d="M62.3,45.8L62.3,45.8L62.3,45.8c0.8-0.2,4.1-0.5,5.7-0.8c0-3,0-3.9,0-4.5&#10;&#9;&#9;c-1.2,0.2-4.9,0.6-5.7,0.7C62.3,41.6,62.3,45.4,62.3,45.8z"/><path d="M63.2,36.2c-0.3,0-0.6,0.1-0.9,0.1v0.1l0,0c0,0.2,0,4.3,0,4.5l0,0v-0.1c1.4-0.1,4.9-0.6,5.7-0.7&#10;&#9;&#9;c0-3.8,0-2.8,0-4.5C66.9,35.8,64.3,36.1,63.2,36.2L63.2,36.2z"/><path d="M4.2,68.1v-0.3C4.2,67.9,4.2,68,4.2,68.1z"/><path d="M2,71c0.7,0.6,1.4,1.1,2.1,1.6c0-1,0-3.2,0-4.5c-0.8-0.5-1.5-1-2.1-1.6C2,68.3,2,69.2,2,71z"/><path d="M62.2,84.3c1.5-0.1,4.8-0.5,5.7-0.7l0,0c0-1.9,0-2.9,0-4.5c-1.2,0.2-4.9,0.6-5.7,0.7&#10;&#9;&#9;C62.2,79.9,62.2,84.2,62.2,84.3z"/><path d="M9.6,70.6L9.6,70.6c-0.1,0-0.2-0.1-0.2-0.1l0,0c-0.4-0.2-1.8-0.7-1.9-0.8c0,0.4,0,4,0,4.5&#10;&#9;&#9;c0.7,0.3,2.4,1,3.6,1.3c0-0.7,0-4.1,0-4.8v0.3C10.6,70.9,10.1,70.8,9.6,70.6z"/><path d="M20.4,34.8v-0.3C20.4,34.6,20.4,34.7,20.4,34.8z"/><path d="M15.8,38.3c1.2,0.3,3.4,0.8,4.6,1c0-0.5,0-3.5,0-4.5c-1.2-0.2-3.3-0.7-4.6-1&#10;&#9;&#9;C15.8,34.1,15.8,37.9,15.8,38.3z"/><path d="M56,80c1.9-0.1,5-0.4,5.8-0.4c0,0,0-4.5,0-4.5c-1,0.1-5.3,0.4-5.8,0.4C56,80.6,56,78.5,56,80z"/><path d="M15.7,72.3L15.7,72.3z"/><path d="M15.7,67.6v0.2l0,0c0,0.4,0,4,0,4.5c0-0.1,0-0.1,0-0.1c1.6,0.4,3.7,0.8,4.6,1c0-1.1,0-4.2,0-4.8&#10;&#9;&#9;v0.3C19,68.3,17.1,67.9,15.7,67.6z"/><path d="M62.3,31.2c1.5-0.1,4.8-0.6,5.7-0.7c0-2.5,0-3.5,0-4.5c-1.2,0.2-5.1,0.6-5.7,0.7&#10;&#9;&#9;C62.3,26.9,62.3,31,62.3,31.2z"/><path d="M56.1,31.7c1.8-0.1,4.9-0.4,5.8-0.4c0-1.2,0-4.3,0-4.5c-2,0.2-4,0.3-5.8,0.4&#10;&#9;&#9;C56.1,28.9,56.1,31,56.1,31.7z"/><path d="M56.1,75.1c1.9-0.1,5-0.4,5.8-0.4c0,0,0-4.5,0-4.5c-0.7,0.1-3.8,0.3-5.8,0.4&#10;&#9;&#9;C56.1,72.3,56.1,74.5,56.1,75.1z"/><path d="M62.2,69.9L62.2,69.9L62.2,69.9c1.6-0.2,4.9-0.7,5.7-0.8c0-2.9,0-3.4,0-4.5&#10;&#9;&#9;c-1.2,0.2-4.9,0.6-5.7,0.7C62.2,65.8,62.2,69.4,62.2,69.9z"/><path d="M2.1,22.7c0.7,0.6,1.4,1.1,2.1,1.6c0-0.2,0-0.2,0-4.5c-0.8-0.5-1.5-1-2.1-1.6&#10;&#9;&#9;C2.1,20.1,2.1,20.9,2.1,22.7z"/><path d="M56.1,36.8v-0.3c2-0.1,5.1-0.4,5.8-0.4c0-3.6,0-4.5,0-4.5c-0.7,0.1-3.9,0.3-5.8,0.4&#10;&#9;&#9;C56.1,32.8,56.1,36.3,56.1,36.8z"/><path d="M4.2,34.3V34C4.2,34.1,4.2,34.2,4.2,34.3z"/><path d="M3.4,33.7c-0.5-0.3-0.9-0.6-1.3-1c0,1.7,0,2.1,0,2.2v0c0,0.1,0,0.5,0,2.3&#10;&#9;&#9;c0.7,0.6,1.4,1.1,2.1,1.6c0-1,0-3.2,0-4.5C3.7,34,3.6,33.9,3.4,33.7L3.4,33.7z"/><path d="M18.3,29.5c-0.8-0.2-2.1-0.5-2.5-0.6c0,0.3,0,4.1,0,4.5c0.7,0.2,3,0.7,4.6,1c0-0.6,0-4.4,0-4.8&#10;&#9;&#9;V30C19.7,29.8,18.3,29.5,18.3,29.5z"/><path d="M0.7,31c0,1.4,0-0.3,0,4.5c0.3,0.5,0.6,0.9,1,1.3l0,0C1.8,36.9,1.9,37,2,37.1c0-0.5,0-3.7,0-4.6&#10;&#9;&#9;v0.1c-0.4-0.4-0.8-0.8-1.1-1.3l0,0C0.8,31.2,0.8,31.1,0.7,31z"/><path d="M2,32.5v-0.2C2,32.3,2,32.4,2,32.5z"/><path d="M37.2,65.5v0.2C37.2,65.6,37.2,65.5,37.2,65.5z"/><path d="M31.6,69.9c1.9,0.2,4.8,0.4,5.6,0.4l0,0c0-0.5,0-3.5,0-4.5c-0.7,0-3.7-0.2-5.6-0.4&#10;&#9;&#9;C31.6,65.4,31.6,69.7,31.6,69.9z"/><path d="M37.2,65.8L37.2,65.8z"/><path d="M62.2,74.7c1.5-0.1,4.8-0.5,5.7-0.7c0-2.5,0-3.5,0-4.5c-1.2,0.2-4.9,0.6-5.7,0.7&#10;&#9;&#9;C62.2,70.3,62.2,74.4,62.2,74.7z"/><path d="M56.1,70.3L56.1,70.3c2-0.1,5.1-0.3,5.8-0.4c0,0,0-4.5,0-4.5c-0.8,0.1-3.9,0.3-5.8,0.4&#10;&#9;&#9;C56.1,69.9,56.1,70.3,56.1,70.3z"/><path d="M62.2,79.5c1.5-0.1,4.8-0.5,5.7-0.7c0-1.9,0-2.9,0-4.5c-1.1,0.2-5,0.6-5.7,0.7&#10;&#9;&#9;C62.2,75.1,62.2,79.4,62.2,79.5z"/><path d="M1.9,61.6L1.9,61.6z"/><path d="M0.6,64.5c0.4,0.6,0.8,1.1,1.3,1.6l0,0c0-0.6,0-3.4,0-4.5c-0.5-0.5-0.9-1-1.3-1.6&#10;&#9;&#9;C0.6,60.3,0.6,60.3,0.6,64.5z"/><path d="M1.9,61.5c0-0.1,0-0.2,0-0.2V61.5z"/><path d="M86.1,83.8V84C86.1,83.9,86.1,83.8,86.1,83.8z"/><path d="M86.1,84.1V84C86.1,84,86.1,84.1,86.1,84.1z"/><path d="M82.8,90.2v-0.3c1.2-0.4,2.5-0.9,3.3-1.3l0,0c0-2.6,0-4,0-4.5c-0.7,0.3-2.1,0.9-3.3,1.3&#10;&#9;&#9;C82.8,87.5,82.8,90.2,82.8,90.2z"/><path d="M62.3,36c1.4-0.1,4.9-0.6,5.7-0.7c0-2.6,0-3.5,0-4.5c-1.2,0.2-5,0.6-5.7,0.7&#10;&#9;&#9;C62.3,31.8,62.3,35.8,62.3,36z"/><path d="M3.4,82L3.4,82L3.4,82c-0.5-0.4-1-0.7-1.4-1.1c0,2.2,0,1.7,0,2.3l0,0v2.2&#10;&#9;&#9;c0.7,0.6,1.4,1.1,2.1,1.6c0-1.1,0-3.4,0-4.5C3.6,82.2,3.6,82.2,3.4,82L3.4,82z"/><path d="M7.5,36v0.4l0,0v0.3l0,0l0,3.9c0.2,0.1,1.5,0.6,1.9,0.8l0,0c0.3,0.1,1.2,0.4,1.6,0.6&#10;&#9;&#9;c0-0.7,0-3.6,0-4.5C10,36.9,8.3,36.3,7.5,36L7.5,36z"/><path d="M11.1,37v0.1C11.1,37.1,11.1,37,11.1,37z"/><path d="M11.1,37.3L11.1,37.3z"/><path d="M56.1,51L56.1,51c2-0.1,5.1-0.3,5.8-0.4l0,0c0,0,0-4.5,0-4.5c-0.7,0.1-3.8,0.3-5.8,0.4&#10;&#9;&#9;C56.1,50.6,56.1,51,56.1,51z"/><path d="M3.4,57.9L3.4,57.9L3.4,57.9c-0.5-0.4-1-0.7-1.4-1.1c0,1.9,0,2.2,0,2.2v0c0,0,0,0.4,0,2.4&#10;&#9;&#9;c0.7,0.6,1.4,1.1,2.1,1.6c0-0.2,0-0.2,0-4.5C3.6,58.1,3.6,58,3.4,57.9L3.4,57.9z"/><path d="M6.2,83.7L6.2,83.7c-0.7-0.3-1.2-0.6-1.9-1c0,1.6,0,3.8,0,4.5c0.9,0.6,1.9,1.1,2.9,1.5l0,0&#10;&#9;&#9;c0-0.7,0-4.5,0-4.8v0.3C6.9,84,6.5,83.8,6.2,83.7z"/><path d="M2,97.5L2,97.5v2.5c0.7,0.6,1.4,1.1,2.1,1.6l0-4.5c-0.8-0.5-1.5-1-2.1-1.6L2,97.5z"/><path d="M62.2,60.6L62.2,60.6l0,4.4c1.4-0.1,4.9-0.6,5.7-0.7c0-3.8,0-2.8,0-4.5&#10;&#9;&#9;C66.7,60,63,60.4,62.2,60.6L62.2,60.6z"/><path d="M56.1,61v-0.3c2-0.1,5.1-0.4,5.8-0.4c0,0,0-4.5,0-4.5c-2.4,0.2-4.4,0.4-5.8,0.4&#10;&#9;&#9;C56.1,56.6,56.1,60.5,56.1,61z"/><path d="M73.7,63.7c0,2.6,0,3.7,0,4.5c1.9-0.4,3.9-0.9,4.6-1l0,0c0-0.6,0-3.7,0-4.6v0.1&#10;&#9;&#9;C77.5,62.8,75.4,63.3,73.7,63.7z"/><path d="M78.3,62.3c0,0,0,0.1,0,0.2V62.3z"/><path d="M82.8,56.5l0,3.1l0,0c0,0.5,0,0.2,0,1.4c0.6-0.2,1.4-0.5,1.9-0.7l0,0c0.1-0.1,1.1-0.4,1.4-0.6&#10;&#9;&#9;c0-0.6,0-4.3,0-4.8v0.3C85.4,55.5,84.1,56,82.8,56.5z"/><path d="M68.3,50.1c0,0.5,0,4,0,4.5c2.1-0.3,4.5-0.7,5.2-0.9c0-0.5,0-3.7,0-4.6v0.1&#10;&#9;&#9;C72.3,49.4,70.1,49.8,68.3,50.1z"/><path d="M73.4,48.9c0,0,0,0.1,0,0.2V48.9z"/><path d="M62.2,60.2c1.4-0.1,4.9-0.6,5.7-0.7c0-2.5,0-3.5,0-4.5c-1.2,0.2-4.9,0.6-5.7,0.7&#10;&#9;&#9;C62.3,55.9,62.2,60,62.2,60.2z"/><path d="M56.1,55.8c2-0.1,5.1-0.4,5.8-0.4l0-4.5c-1.8,0.2-4,0.3-5.8,0.4C56.1,52.4,56.1,55.1,56.1,55.8z&#10;&#9;&#9;"/><path d="M49.5,85v0.2C49.5,85.2,49.5,85.1,49.5,85z"/><path d="M43.6,85.3l0,3.1l0,0v1.4c0.7,0,2.4,0.1,5.8,0c0-0.4,0-3.5,0-4.5C46.1,85.4,44.3,85.3,43.6,85.3&#10;&#9;&#9;z"/><path d="M49.5,85.3L49.5,85.3C49.5,85.3,49.5,85.3,49.5,85.3z"/><path d="M62.3,50.8c0,0.2,0,4.3,0,4.5c1.5-0.1,4.8-0.5,5.7-0.7c0-0.3,0-4.1,0-4.8v0.3&#10;&#9;&#9;C66.7,50.3,63,50.8,62.3,50.8z"/><path d="M62.2,94L62.2,94c1.9-0.2,3.7-0.4,5.7-0.7c0-3.7,0-2.8,0-4.5c-1.2,0.2-4.9,0.6-5.7,0.7L62.2,94z&#10;&#9;&#9;"/><path d="M81.1,42.5c-0.7,0.2-1.1,0.3-2.5,0.7c0,0.4,0,4.3,0,4.8v-0.3c1.4-0.4,3-0.8,4-1.2&#10;&#9;&#9;c0-0.4,0-3.5,0-4.5C82.1,42.2,81.6,42.4,81.1,42.5L81.1,42.5z"/><path d="M82.6,42v-0.3C82.6,41.8,82.6,41.9,82.6,42z"/><path d="M63.1,84.5c-0.3,0-0.6,0.1-0.9,0.1v0.1l0,0l0,4.5c1.5-0.1,4.8-0.5,5.7-0.7c0-0.8,0-3.3,0-4.5&#10;&#9;&#9;C66.8,84.1,64.2,84.4,63.1,84.5z"/><path d="M67.8,83.9v-0.3C67.8,83.7,67.8,83.8,67.8,83.9z"/><path d="M56,84.9v0.2C56,85.1,56,85,56,84.9z"/><path d="M56,84.9v-0.1c1.9-0.1,5-0.4,5.8-0.4c0,0,0-4.5,0-4.5c-0.7,0.1-3.5,0.3-5.8,0.4&#10;&#9;&#9;C56,81,56,84.1,56,84.9z"/><path d="M2,90.6v2.1l0,0v0.3c0,0,0,2.2,0,2.2c0.7,0.6,1.4,1.1,2.1,1.6c0-1.1,0-3.9,0-4.8v0.3&#10;&#9;&#9;C3.4,91.7,2.7,91.2,2,90.6z"/><path d="M0.2,29L0.2,29z"/><path d="M0.6,27.1L0.6,27.1c0,0,0-0.2,0-1c-0.3-0.5-0.4-1-0.5-1.6c0,0,0,4.5,0,4.5&#10;&#9;&#9;c0,0.6,0.2,1.1,0.5,1.6C0.6,27.6,0.6,27.1,0.6,27.1z"/><path d="M78.4,33.4c0,0,0,0.1,0,0.2V33.4z"/><path d="M73.8,34.7c0,2.6,0,3.7,0,4.5c1.6-0.3,3.4-0.7,4.6-1c0-0.6,0-3.7,0-4.6v0.1&#10;&#9;&#9;C77.6,33.9,75.5,34.4,73.8,34.7z"/><path d="M0.1,43.2c0,0.1,0,0.1,0,0.1V43.2c0,0.5,0.1,1.1,0.3,1.5l0,0c0,0.1,0.1,0.2,0.1,0.3&#10;&#9;&#9;c0,0,0-4.5,0-4.5c-0.3-0.5-0.4-1-0.5-1.6c0,0.6,0,1.1,0,1.6c0-0.6,0-0.5,0-1.8c0,0,0,1.1,0,2.2C0.1,42,0.1,42.7,0.1,43.2z"/><path d="M20.6,49c1.8,0.3,4.3,0.7,5,0.8c0-0.4,0-3.4,0-4.5c-1.1-0.2-3.4-0.5-5-0.8&#10;&#9;&#9;C20.7,44.7,20.6,47.9,20.6,49z"/><path d="M25.7,45.3V45C25.7,45.1,25.7,45.2,25.7,45.3z"/><path d="M0.7,17.4l0,3.6c0.1,0.2,0.3,0.4,0.4,0.6l0,0c0.1,0.2,0.3,0.4,0.5,0.6l0,0&#10;&#9;&#9;c0.1,0.1,0.3,0.3,0.4,0.4c0-1.8,0-2.8,0-4.5c-0.5-0.5-0.9-1-1.3-1.6l0,0v0.6l0,0L0.7,17.4L0.7,17.4z"/><path d="M37.6,46.5c0,1,0,3.6,0,4.5c2,0.1,5,0.2,5.8,0.2c0-0.4,0-4.4,0-4.8v0.3&#10;&#9;&#9;C40.2,46.6,37.6,46.5,37.6,46.5z"/><path d="M0.2,19.2C0.2,19.2,0.2,19.2,0.2,19.2C0.2,19.2,0.2,19.2,0.2,19.2c0,0.5,0.1,1,0.3,1.5l0,0&#10;&#9;&#9;c0,0.1,0.1,0.2,0.1,0.3c0,0,0-4.5,0-4.5c-0.3-0.5-0.4-1-0.5-1.6c0,0.5,0,1,0,1.4c0-0.4,0-0.5,0-1.7c0,0,0,1,0,2&#10;&#9;&#9;C0.2,17.8,0.2,18.6,0.2,19.2z"/><path d="M0.4,83.6c-0.2-0.4-0.3-0.8-0.3-1.2c0,0.5,0,0.9,0,1.3c0-1.3,0,0.2,0-1.6c0,0,0,0.9,0,1.9&#10;&#9;&#9;c0,1.2,0,2.1,0,2.6c0,0.1,0,0.1,0,0.1c0,0,0-0.1,0-0.1c0,0.6,0.2,1.3,0.5,1.8c0-0.4,0-3.5,0-4.5C0.5,83.9,0.4,83.6,0.4,83.6&#10;&#9;&#9;L0.4,83.6z"/><path d="M0.5,83.7L0.5,83.7z"/><path d="M0.5,84L0.5,84C0.5,83.9,0.5,84,0.5,84z"/><path d="M62.3,50.5c1.5-0.1,4.8-0.5,5.7-0.7l0,0c0-2.5,0-3.5,0-4.5c-1.1,0.2-5.1,0.6-5.7,0.7&#10;&#9;&#9;C62.3,46.2,62.3,50.3,62.3,50.5z"/><path d="M0.6,49.9c0,0.1,0,0.2,0,0.3l0,0V49.9z"/><path d="M0.6,50.2c-0.3-0.5-0.4-1-0.5-1.6c0,1.4,0,3.9,0,4.8v-0.3c0,0.6,0.2,1.1,0.5,1.6&#10;&#9;&#9;C0.6,53.8,0.6,51.3,0.6,50.2z"/><path d="M76.3,86.9L76.3,86.9c0,0,1.8-0.4,2-0.5c0-1,0-3.6,0-4.5c-0.8,0.2-2.9,0.7-4.6,1&#10;&#9;&#9;c0,3.8,0,2.8,0,4.5C74.6,87.3,75.4,87.1,76.3,86.9z"/><path d="M25.9,88.5c1.9,0.3,4.6,0.6,5.3,0.6c0,0,0-4.5,0-4.5c-0.8-0.1-3.6-0.4-5.3-0.6&#10;&#9;&#9;C25.9,85.3,25.9,83.4,25.9,88.5z"/><path d="M76.9,87.1c-0.7,0.2-1.5,0.4-3.2,0.7c0,3.9,0,2.8,0,4.5c1.7-0.3,3.9-0.9,4.6-1c0-1,0-3.6,0-4.5&#10;&#9;&#9;C78.2,86.8,77,87.1,76.9,87.1z"/><path d="M25.9,83.7c1.9,0.3,4.6,0.6,5.3,0.6c0,0,0-4.5,0-4.5c-0.8-0.1-3.6-0.4-5.3-0.6&#10;&#9;&#9;C25.9,80.5,25.9,78.6,25.9,83.7z"/><path d="M0,91.5c0-0.2,0-4.3,0-4.5v0.2c0,0,0-0.1,0-0.1L0,91.5c0,0.1,0,0.1,0,0.2V91.5z"/><path d="M55.7,80c0-1.7,0-2.6,0-4.5c-0.7,0-3.8,0.2-5.9,0.2c0,3.8,0,2.8,0,4.5C51.9,80.2,55,80,55.7,80z&#10;&#9;&#9;"/><path d="M73.4,77.9c0-1.3,0-1.6,0-4.5c-1.2,0.2-3.4,0.6-5.2,0.9c0,1.7,0,1.5,0,4.5&#10;&#9;&#9;C70.1,78.5,72.4,78.1,73.4,77.9z"/><path d="M82.8,85.1c0.6-0.2,1.3-0.5,1.9-0.7l0,0c0.1-0.1,1.1-0.4,1.4-0.6c0-2.6,0-2.7,0-4.5&#10;&#9;&#9;c-0.7,0.3-2.1,0.9-3.3,1.3C82.8,83.8,82.8,83.4,82.8,85.1z"/><path d="M73.7,82.8v-0.1c1.6-0.3,3.4-0.7,4.6-1c0-1,0-3.6,0-4.5c-0.8,0.2-2.9,0.7-4.6,1&#10;&#9;&#9;C73.7,79.6,73.7,82.1,73.7,82.8z"/><path d="M73.7,82.8V83C73.7,82.9,73.7,82.9,73.7,82.8z"/><path d="M88.9,82.3c0-0.3,0-1.7,0-4.5c-0.3,0.2-0.5,0.3-0.8,0.5l0,0c-0.6,0.3-1.2,0.6-1.8,0.9&#10;&#9;&#9;c0,1.6,0,0.4,0,4.5C87.2,83.3,88.1,82.8,88.9,82.3z"/><path d="M31.2,79.5c0,0,0-4.5,0-4.5c-0.8-0.1-3.6-0.4-5.3-0.6c0,1.3,0-0.6,0,4.5&#10;&#9;&#9;C27.8,79.1,30.5,79.4,31.2,79.5z"/><path d="M25.6,74c0-5.1,0-2.1,0-4.5c-1.1-0.2-3.4-0.5-5-0.8c0,0.2,0,3.4,0,4.5&#10;&#9;&#9;C22.4,73.5,24.9,73.9,25.6,74z"/><path d="M43.6,69.1c0,0,0,0.1,0,0.1l0,0C43.6,69.2,43.6,69.2,43.6,69.1z"/><path d="M43.6,69.1L43.6,69.1c0,0,0,0,0,0.1l0,0v0c0,0.2,0,0.5,0,1.3c2.3,0,5.1,0,5.8,0&#10;&#9;&#9;c0-0.8,0-2.7,0-4.5c-0.7,0-3.8,0-5.8,0C43.6,68,43.6,68.8,43.6,69.1z"/><path d="M25.9,70.4L25.9,70.4c0,0.2,0,3.2,0,3.9V74c1.8,0.2,4.6,0.6,5.3,0.6c0,0,0-4.5,0-4.5&#10;&#9;&#9;c-2.6-0.3-5.3-0.6-5.3-0.6L25.9,70.4z"/><path d="M73.7,76.5L73.7,76.5c0,0.6,0,0.5,0,1.4c1.2-0.2,1.9-0.4,2.6-0.6c0,0,1.7-0.4,2-0.5&#10;&#9;&#9;c0-0.9,0-3.7,0-4.5c-0.3,0.1-4.3,1-4.6,1L73.7,76.5z"/><path d="M84.7,75c-0.6,0.2-1.2,0.5-1.9,0.7c0,3.2,0,2.8,0,4.5c0.6-0.2,1.3-0.5,1.9-0.7l0,0l0.3-0.1l0,0&#10;&#9;&#9;c0.4-0.2,0.8-0.3,1.1-0.5c0-3.2,0-3.5,0-4.5C85.9,74.6,84.7,75,84.7,75L84.7,75z"/><path d="M0.1,77.3c0,0.2,0,4.4,0,4.7C0.1,77.2,0.1,77.3,0.1,77.3z"/><path d="M85,70.1c-0.7,0.3-1.3,0.5-2.2,0.8c0,2.6,0,3.6,0,4.5c1.2-0.4,2.6-1,3.3-1.3c0-1.1,0-3.6,0-4.5&#10;&#9;&#9;C85.8,69.8,85.3,70,85,70.1L85,70.1z"/><path d="M20.6,68.4c1.7,0.3,4.3,0.7,5,0.8c0-5.1,0-2.1,0-4.5c-0.5-0.1-1.7-0.3-2-0.3l0,0&#10;&#9;&#9;c-1-0.2-2-0.3-3-0.5c0,3.9,0,3.6,0,4.8V68.4z"/><path d="M25.9,65.6L25.9,65.6v0.3l0,0l0,3.3c1.8,0.2,4.6,0.6,5.3,0.6c0,0,0-4.5,0-4.5&#10;&#9;&#9;c-2.8-0.3-5.3-0.6-5.3-0.6L25.9,65.6z"/><path d="M78.6,71.9c1.4-0.4,3-0.8,4-1.2c0-0.5,0-4,0-4.5c-0.5,0.2-1,0.3-1.5,0.5l0,0&#10;&#9;&#9;c-0.8,0.2-1.5,0.4-2.5,0.7c0,0.4,0,4.3,0,4.8L78.6,71.9z"/><path d="M0.1,77L0.1,77L0.1,77z"/><path d="M0.1,72.5c0,0.5,0,4.4,0,4.5c0,0,0,0.1,0,0.1C0.1,76.8,0.1,73.1,0.1,72.5z"/><path d="M0.1,72.5L0.1,72.5z"/><path d="M73.7,73c1.9-0.4,3.9-0.9,4.6-1c0-5.3,0-3.8,0-4.5c-0.8,0.2-2.9,0.7-4.6,1&#10;&#9;&#9;C73.7,71.1,73.7,72.1,73.7,73z"/><path d="M11.3,68.7L11.3,68.7z"/><path d="M15.4,67.3L15.4,67.3z"/><path d="M15.4,67.3L15.4,67.3z"/><path d="M11.3,68.6L11.3,68.6c0,0.2,0,0.8,0,2.3c1.5,0.5,3.4,1,4.1,1.2c0-4.6,0-4.8,0-4.8v0.2&#10;&#9;&#9;c-1.2-0.3-2.9-0.8-4.1-1.2C11.3,67.6,11.3,68.2,11.3,68.6C11.3,68.5,11.3,68.5,11.3,68.6z M11.3,68.5L11.3,68.5z"/><path d="M0.9,79.4L0.9,79.4c0.3,0.4,0.6,0.8,1,1.1c0-0.2,0-4.5,0-4.5c-0.1-0.1-0.3-0.3-0.4-0.4l0,0&#10;&#9;&#9;c-0.2-0.2-0.4-0.5-0.6-0.7l0,0c-0.1-0.1-0.2-0.3-0.3-0.5c0,0.3,0,0.3,0,4.5C0.7,79.1,0.8,79.3,0.9,79.4z"/><path d="M56.1,65.5c1.5-0.1,3-0.2,4.5-0.3l0,0c0.4,0,0.9-0.1,1.3-0.1c0,0,0-4.5,0-4.5&#10;&#9;&#9;c-0.7,0.1-3.8,0.3-5.8,0.4C56.1,65.1,56.1,65.4,56.1,65.5L56.1,65.5z"/><path d="M0.6,70.5c0,0,0-0.1,0-1c-0.1-0.1-0.1-0.2-0.1-0.3l0,0c-0.2-0.4-0.3-0.9-0.3-1.3&#10;&#9;&#9;c0,0.4,0,0.8,0,1.2c0-0.8,0,0,0-1.4c0,0,0,0.8,0,1.7c0,1.4,0,2.3,0,2.9v0c0,0.6,0.2,1.2,0.5,1.7C0.6,70.7,0.6,70.5,0.6,70.5&#10;&#9;&#9;L0.6,70.5z"/><path d="M43.3,60.9c0-0.9,0-3.6,0-4.5c-0.2,0-1.2,0-1.4,0c0,0-2.2-0.1-4.3-0.2c0,1.7,0,3.9,0,4.5&#10;&#9;&#9;C39.6,60.8,42.6,60.9,43.3,60.9z"/><path d="M25.9,64.4c1.2,0.2,3,0.4,5.3,0.6c0,0,0-4.5,0-4.5c-2-0.2-3.7-0.4-5.3-0.6&#10;&#9;&#9;C26,62.3,26,59,25.9,64.4z"/><path d="M11.3,66.2L11.3,66.2z"/><path d="M11.3,66.1c1.3,0.4,2.9,0.9,4.1,1.2l0-4.5c-1.3-0.3-2.9-0.8-4.1-1.2c0,0.5,0,3.8,0,4.7&#10;&#9;&#9;L11.3,66.1z"/><path d="M82.8,70.6c1.1-0.4,2.5-0.9,3.3-1.3c0-1.1,0-3.6,0-4.5c-0.7,0.3-2.1,0.9-3.3,1.3&#10;&#9;&#9;C82.8,68.7,82.8,69.7,82.8,70.6z"/><path d="M78.3,62.3c0-0.9,0-3.7,0-4.5c-0.8,0.2-2.9,0.7-4.6,1c0,2.6,0,3.7,0,4.5&#10;&#9;&#9;C75.6,63,77.6,62.5,78.3,62.3z"/><path d="M55.7,55.9L55.7,55.9L55.7,55.9c0,0,0-0.5,0-4.5c-0.7,0-3.8,0.2-5.9,0.2c0,4.3,0,3.5,0,4.5&#10;&#9;&#9;C52,56,55,55.9,55.7,55.9z"/><path d="M0.1,62.8c0,0,0,0.1,0,0.2l0,0V62.8z"/><path d="M82.8,65.9L82.8,65.9z"/><path d="M82.8,66c0,0,0,0.1,0,0.1V66z"/><path d="M82.8,64.7L82.8,64.7c0,0.9,0,1.1,0,1.3v-0.1c1.1-0.4,2.5-0.9,3.3-1.3c0-1.6,0-3.8,0-4.5&#10;&#9;&#9;c-0.7,0.3-2.1,0.9-3.3,1.3C82.8,61.7,82.8,64.3,82.8,64.7z"/><path d="M26,59.6c1.2,0.2,3,0.4,5.3,0.6c0,0,0-4.5,0-4.5c-0.8-0.1-3.6-0.4-5.3-0.6&#10;&#9;&#9;C26,57.5,26,54.2,26,59.6z"/><path d="M73.7,58.8v-0.3c1.6-0.3,3.4-0.7,4.6-1c0-0.9,0-3.7,0-4.5c-1.1,0.3-3,0.7-4.6,1&#10;&#9;&#9;C73.7,58.5,73.7,57.8,73.7,58.8z"/><path d="M88.2,58.7L88.2,58.7c0.3-0.2,0.6-0.3,0.8-0.5c0-0.8,0,1.1,0-4.5c-0.3,0.2-0.5,0.3-0.8,0.5l0,0&#10;&#9;&#9;c-0.5,0.3-1.2,0.6-1.8,0.9c0,1.6,0,0.4,0,4.5C86.9,59.3,87.5,59,88.2,58.7z"/><path d="M0.1,62.8c0,0.4,0.1,0.9,0.3,1.2c0,0,0.1,0.3,0.2,0.4c0-3.1,0-3.5,0-3.5l0,0l0,0c0,0,0-0.2,0-1&#10;&#9;&#9;c0-0.1-0.2-0.4-0.2-0.4l0,0c-0.2-0.4-0.3-0.8-0.3-1.2l0,4.2L0.1,62.8z"/><path d="M0.1,58c0,0.1,0,4.6,0,4.7L0.1,58z"/><path d="M49.9,51.2c2.3,0,5.1-0.2,5.9-0.2l0,0c0,0,0-0.5,0-4.5c-0.7,0-3.8,0.2-5.9,0.2&#10;&#9;&#9;c0,0.6,0,4.3,0,4.8V51.2z"/><path d="M31.3,55.4c0,0,0-4.5,0-4.5c-0.8-0.1-3.6-0.4-5.3-0.6c0,2.4,0-0.8,0,4.5&#10;&#9;&#9;C27.8,55,30.6,55.3,31.3,55.4z"/><path d="M43.7,44.9C43.7,45.2,43.7,45.1,43.7,44.9c0,0.3,0,0.8,0,1.5c2.1,0,5.1,0,5.8,0&#10;&#9;&#9;c0-0.8,0-2.7,0-4.5c-0.7,0-3.8,0-5.8,0c0,1.6,0,2.4,0,2.9C43.7,44.8,43.7,44.8,43.7,44.9z"/><path d="M43.7,44.6L43.7,44.6z"/><path d="M43.7,44.7C43.7,44.7,43.7,44.7,43.7,44.7c0,0,0,0.1,0,0.2v0C43.7,44.9,43.7,44.8,43.7,44.7z"/><path d="M43.7,44.5C43.7,44.4,43.7,44.4,43.7,44.5z"/><path d="M73.8,52.3L73.8,52.3c0,0.4,0,0.1,0,1.4c1.9-0.4,3.9-0.9,4.6-1c0-0.9,0-3.7,0-4.5&#10;&#9;&#9;c-1.2,0.3-3,0.7-4.6,1L73.8,52.3z"/><path d="M80.9,52L80.9,52c0.3-0.1,1.3-0.4,1.7-0.5c0-0.5,0-4,0-4.5c-1,0.3-2.6,0.8-4,1.2&#10;&#9;&#9;c0,0.4,0,2.5,0,4.5C79.4,52.4,80.2,52.2,80.9,52z"/><path d="M0.1,53.2c0,0.1,0,4.6,0,4.7C0.1,53,0.1,53.2,0.1,53.2z"/><path d="M26,50v0.1C26,50.2,26,50.1,26,50z"/><path d="M26,50v-0.1c1.8,0.2,4.6,0.6,5.3,0.6c0,0,0-4.5,0-4.5c-0.7-0.1-3.5-0.4-5.3-0.6&#10;&#9;&#9;C26,47.5,26,49.5,26,50z"/><path d="M84.8,50.9c-0.6,0.2-1.2,0.5-1.9,0.7c0,3,0,3.4,0,4.5c0.6-0.2,1.4-0.5,1.9-0.7l0,0l0.3-0.1l0,0&#10;&#9;&#9;c0.4-0.2,0.8-0.3,1.1-0.5c0-3.2,0-3.5,0-4.5C85.9,50.4,84.8,50.9,84.8,50.9L84.8,50.9z"/><path d="M26,41.5L26,41.5v0.3l0,0l0,3.3c1.7,0.2,4.4,0.5,5.3,0.6c0,0,0-4.5,0-4.5&#10;&#9;&#9;c-2.6-0.3-5.3-0.6-5.3-0.6L26,41.5z"/><path d="M56.1,41.3c2.3-0.1,3.3-0.2,4.5-0.3l0,0c0.3,0,1-0.1,1.3-0.1c0,0,0-4.5,0-4.5&#10;&#9;&#9;c-0.8,0.1-3.9,0.3-5.8,0.4C56.1,40.9,56.1,41.3,56.1,41.3L56.1,41.3z"/><path d="M20.7,44.2c1.7,0.3,4.3,0.7,5,0.8c0-5.3,0-2,0-4.5c-1.1-0.2-3.4-0.5-5-0.8c0,0.7,0,4.1,0,4.8&#10;&#9;&#9;L20.7,44.2z"/><path d="M85,46l-0.3,0.1l0,0c-0.6,0.2-1.2,0.5-1.9,0.7c0,3,0,3.4,0,4.5c1.2-0.4,2.6-1,3.3-1.3l0,0&#10;&#9;&#9;c0-1.1,0-3.6,0-4.5C85.9,45.6,85.4,45.8,85,46z"/><path d="M84.4,45.9L84.4,45.9l0.4-0.1l0,0c0.1-0.1,1.1-0.4,1.4-0.6c0-1.1,0-3.6,0-4.5&#10;&#9;&#9;c-0.7,0.3-2.1,0.9-3.3,1.3c0,3,0,3.4,0,4.5C83.4,46.3,83.9,46.1,84.4,45.9z"/><path d="M73.8,48.9c1.6-0.3,3.4-0.7,4.6-1c0-0.9,0-3.7,0-4.5c-0.8,0.2-2.9,0.7-4.6,1&#10;&#9;&#9;C73.8,47,73.8,48,73.8,48.9z"/><path d="M0.1,48.3c0,0.1,0,4.6,0,4.7C0.1,52.7,0.1,49.5,0.1,48.3z"/><path d="M1.9,56.4l0-4.5c-0.5-0.5-0.9-1-1.3-1.6c0,1,0,0.7,0,4.5C1,55.4,1.4,56,1.9,56.4z"/><path d="M8.3,50.5L8.3,50.5c1,0.4,2,0.8,2.8,1c0-0.7,0-3.9,0-4.5c-0.5-0.2-0.9-0.3-1.4-0.5l0,0&#10;&#9;&#9;c-0.1,0-0.2-0.1-0.2-0.1l0,0c-0.4-0.2-1.8-0.7-1.9-0.8c0,0.4,0,4,0,4.5C7.8,50.3,8,50.4,8.3,50.5z"/><path d="M11.3,44.4L11.3,44.4z"/><path d="M11.3,46.7c0.7,0.2,1.4,0.4,2.2,0.7l0,0c0.4,0.1,1.4,0.4,1.9,0.5l0-4.5&#10;&#9;&#9;c-1.3-0.3-2.9-0.8-4.1-1.2c0,1.2,0,1.8,0,2.1C11.3,44.3,11.3,44.5,11.3,46.7z"/><path d="M11.3,44.4L11.3,44.4z"/><path d="M11.3,44.4C11.3,44.4,11.3,44.5,11.3,44.4L11.3,44.4z"/><path d="M11.3,44.5L11.3,44.5z"/><path d="M11.3,44.6"/><path d="M11.3,44.6L11.3,44.6z"/><path d="M11.3,41.9c1.3,0.4,2.9,0.9,4.1,1.2l0-4.5c-1.2-0.3-2.8-0.8-4.1-1.2c0,0.5,0,3.8,0,4.7V41.9z"/><path d="M11.3,42v0.2C11.3,42.2,11.3,42.1,11.3,42z"/><path d="M73.8,44c1.9-0.4,3.9-0.9,4.6-1c0-5.4,0-3.8,0-4.5c-0.8,0.2-2.9,0.7-4.6,1&#10;&#9;&#9;C73.8,42.1,73.8,43.2,73.8,44z"/><path d="M43.3,36.7c0-0.9,0-3.6,0-4.5c-0.2,0-1.2,0-1.4,0c0,0-2.2-0.1-4.3-0.2c0,5,0,3.5,0,4.5&#10;&#9;&#9;C39.6,36.6,42.6,36.7,43.3,36.7z"/><path d="M0.7,40.6L0.7,40.6v0.6l0,0v0.3l0,0l0,3.6c0.2,0.4,0.5,0.8,0.9,1.2l0,0c0.1,0.1,0.3,0.3,0.4,0.4&#10;&#9;&#9;c0-1.8,0-2.8,0-4.5C1.5,41.8,1,41.2,0.7,40.6z"/><path d="M0.1,48.1L0.1,48.1L0.1,48.1z"/><path d="M0.1,48.1c0,0,0,0.1,0,0.1c0-0.1,0-0.2,0-0.3c0,0.7,0.1,1.4,0.5,2c0-3.1,0-3.5,0-3.5l0,0l0,0&#10;&#9;&#9;c0,0,0-0.2,0-1c-0.1-0.1-0.1-0.2-0.1-0.3l0,0c-0.2-0.4-0.3-0.9-0.3-1.3c0,0.6,0,1.1,0,1.6c0-1.1,0-0.2,0-1.9c0,0,0,1.1,0,2.2&#10;&#9;&#9;c0,0.9,0,1.6,0,2.1C0.1,48,0.1,48.1,0.1,48.1z"/><path d="M26,40.2c1.7,0.2,4.5,0.5,5.3,0.6c0,0,0-4.5,0-4.5c-0.8-0.1-3.4-0.4-5.3-0.6&#10;&#9;&#9;C26,38.2,26,34.8,26,40.2z"/><path d="M26,35.4c1.8,0.2,4.5,0.5,5.3,0.6c0,0,0-4.5,0-4.5c-0.8-0.1-3.6-0.4-5.3-0.6&#10;&#9;&#9;C26,33.3,26,30,26,35.4z"/><path d="M78.4,28.7c0-0.1,0-0.1,0-0.2V28.7z"/><path d="M73.8,34.4c1.6-0.3,3.4-0.7,4.6-1c0-0.7,0-3.6,0-4.5c-1.1,0.3-3,0.7-4.6,1c0,4.2,0,4,0,4.8&#10;&#9;&#9;L73.8,34.4z"/><path d="M78.4,28.7c0,0,0,0.1,0,0.1l0,0V28.7z"/><path d="M82.9,41.8V42C82.9,41.9,82.9,41.9,82.9,41.8z"/><path d="M82.9,41.8v-0.2c0.5-0.2,1.2-0.4,1.9-0.7l0,0c0.1-0.1,1.1-0.4,1.4-0.6c0-1.1,0-3.6,0-4.5&#10;&#9;&#9;c-0.7,0.3-2.1,0.9-3.3,1.3C82.9,37.9,82.9,41,82.9,41.8z"/><path d="M0.7,40.4C1,40.9,1.5,41.5,2,42c0-1.8,0-2.8,0-4.5c-0.4-0.3-0.7-0.7-1-1.1l0,0&#10;&#9;&#9;c-0.1-0.1-0.2-0.3-0.3-0.5C0.7,36.1,0.7,36.2,0.7,40.4z"/><path d="M3.5,28.9L3.5,28.9L3.5,28.9c-0.5-0.4-1-0.7-1.4-1.1c0,1.8,0,2.7,0,4.5C2.8,33,3.5,33.5,4.2,34&#10;&#9;&#9;c0-0.2,0-0.2,0-4.5C3.9,29.2,3.7,29.1,3.5,28.9L3.5,28.9z"/><path d="M0.1,37.9c0,0.3,0,0.6,0,0.6C0.1,38.4,0.1,38.2,0.1,37.9c-0.1,0.9,0.1,1.6,0.5,2.3&#10;&#9;&#9;c0-3,0-3.5,0-3.5l0,0c0,0,0-0.2,0-1c0-0.1-0.2-0.4-0.2-0.4l0,0c-0.2-0.4-0.3-0.8-0.3-1.2c0,0.7,0,1.3,0,1.8c0-2.2,0-2.1,0-2.1&#10;&#9;&#9;c0,0.1,0,1.3,0,2.4C0.1,37,0.1,37.5,0.1,37.9z"/><path d="M26,30.6c1.6,0.2,4.4,0.5,5.3,0.6c0,0,0-4.5,0-4.5c-0.7-0.1-3.2-0.3-5.3-0.6&#10;&#9;&#9;C26,28.5,26,25.2,26,30.6z"/><path d="M82.9,35.4L82.9,35.4c0,0.5,0,0.2,0,1.4c1.2-0.4,2.6-1,3.3-1.3c0-1.1,0-3.6,0-4.5&#10;&#9;&#9;c-0.7,0.3-2.1,0.9-3.3,1.3L82.9,35.4z"/><path d="M88.1,34.6L88.1,34.6L88.1,34.6L88.1,34.6c0.3-0.2,0.6-0.4,0.9-0.5c0-0.5,0,0.9,0-4.5&#10;&#9;&#9;c-0.3,0.2-0.5,0.3-0.8,0.5l0,0c-0.5,0.3-1.2,0.6-1.8,0.9c0,1.3,0,0.3,0,4.5C87,35.2,87.6,34.9,88.1,34.6z"/><path d="M23.7,22.5l0-4.5c-2.9,0.5-5.1,0.9-5.1,0.9l0,4.1l-0.3-0.1l0-3.9c-1.6,0.3-3.1,0.7-4.5,1.1l0,0&#10;&#9;&#9;v1.8l-0.3-0.1c0,0,0-1.6,0-1.6c-0.9,0.3-1.8,0.5-2.7,0.8c-0.1,0-0.3-0.1-0.4-0.1c1-0.3,2-0.7,3.1-1l0-4.5c-1.4,0.4-2.7,0.8-3.8,1.2&#10;&#9;&#9;l0,0l0,4c-0.1,0-0.2-0.1-0.2-0.1c0,0,0-3.9,0-3.9c-1.1,0.4-2.2,0.8-3.2,1.3v1.2C6.3,19,6.2,19,6.1,19c0,0,0-1,0-1&#10;&#9;&#9;c-0.3,0.2-0.7,0.3-1,0.5c-0.3-0.2-0.2-0.1-0.7-0.4c0,1.2,0,0,0,1.6c0.9,0.6,1.9,1.1,2.9,1.5v-1.6l0.2,0.1v1.6l0,0&#10;&#9;&#9;c0.8,0.3,2.5,1,3.6,1.3V21l0.2,0.1v1.6c0.9,0.3,1.5,0.4,2.2,0.7l0,0c0.4,0.1,1.4,0.4,1.9,0.5v-1.6l0.3,0.1v1.6c0,0,2.4,0.6,4.6,1&#10;&#9;&#9;c0-0.1,0-1.5,0-1.6l-0.6-0.1C21,22.9,22.3,22.7,23.7,22.5z"/><path d="M84.8,26.8c-0.6,0.2-1.2,0.5-1.9,0.7c0,2.6,0,3.6,0,4.5c0.5-0.2,1.2-0.4,1.9-0.7l0,0l0.3-0.1&#10;&#9;&#9;l0,0c0.4-0.2,0.8-0.3,1.1-0.5c0-3.2,0-3.5,0-4.5C86,26.3,84.8,26.8,84.8,26.8L84.8,26.8z"/><path d="M0.2,29c0,0.1,0,4.6,0,4.7C0.2,33.5,0.2,29.2,0.2,29z"/><path d="M73.8,28.5L73.8,28.5c0,1.3,0,1.1,0,1.4v-0.3c1.6-0.3,3.7-0.8,4.6-1c0-5.5,0-3.7,0-4.5&#10;&#9;&#9;c-1.2,0.3-3,0.7-4.6,1C73.8,25.4,73.8,28.1,73.8,28.5z"/><path d="M0.2,24.2c0,0.2,0,4.5,0,4.7L0.2,24.2z"/><path d="M0.7,26.2c0,0.3,0,0.3,0,4.5c0.4,0.6,0.8,1.1,1.3,1.6c0,0,0-4.5,0-4.5&#10;&#9;&#9;C1.5,27.3,1.1,26.8,0.7,26.2z"/><path d="M81.2,20.7v0.7c-0.1,0-0.2,0.1-0.3,0.1v-0.9c-1.3-0.4-2.7-0.8-4.2-1.1c0,0,0,0.4,0,3.1&#10;&#9;&#9;c-0.1,0-0.2,0-0.3,0.1l0-3.2c-1.4-0.3-3-0.7-4.7-1l0,4.5c0.5,0.1,1.4,0.3,1.6,0.3c-0.2,0-0.6,0.1-0.8,0.1c-0.3-0.1-0.6-0.1-0.9-0.2&#10;&#9;&#9;v0.3l-0.3,0.1v-0.4c-1.6-0.3-3.3-0.5-5.1-0.8v2c-0.1,0-0.2,0-0.3,0v-2c-1.8-0.2-3.6-0.4-5.4-0.6l0,3.2l-0.3,0l0-3.3&#10;&#9;&#9;c-1.8-0.2-3.7-0.3-5.6-0.4l0,4l-0.4,0l0-4.1c-1.9-0.1-3.8-0.2-5.8-0.2l0,4.4h-0.4l0-4.4c-1.9,0-3.9,0-5.8,0l0,4.3l-0.4,0l0-4.3&#10;&#9;&#9;c-2,0-3.9,0.1-5.8,0.3l0,3.8l-0.4,0l0-3.7c-1.9,0.1-3.9,0.3-5.8,0.5v2.7l-0.4,0l0-2.6c-1.9,0.2-3.7,0.4-5.6,0.7v1.2l-0.3-0.1v-1.1&#10;&#9;&#9;c-1.1,0.2-2.5,0.4-3.2,0.5l0.2,0v1.6c1.8,0.3,4.3,0.7,5,0.8v-1.6l0.3,0v1.6l0,0c1.8,0.2,4.6,0.6,5.3,0.6c0,0,0-1.5,0-1.6l0.4,0&#10;&#9;&#9;c0,0.2,0,1.4,0,1.6c1.5,0.1,4.6,0.4,5.6,0.4c0-1.5,0-0.1,0-1.6l0.4,0c0,1.4,0,0.1,0,1.6c2.2,0.1,5,0.2,5.8,0.2c0-1,0-1.5,0-1.6&#10;&#9;&#9;l0.4,0c0,0,0,1.4,0,1.6c2.1,0,5.1,0,5.8,0c0-0.1,0-1.4,0-1.6l0.4,0c0,0,0,0.4,0,1.6c1.1,0,5.1-0.2,5.9-0.2c0-1.2,0-0.1,0-1.6l0.4,0&#10;&#9;&#9;c0,1.4,0,0.3,0,1.6c2-0.1,5.1-0.4,5.8-0.4v-1.6l0.4,0v1.6c1.5-0.1,4.8-0.6,5.7-0.7v-1.6l0.3,0v1.6c0.3,0,4.8-0.8,5.2-0.9v-1.6&#10;&#9;&#9;l0.3-0.1c0,0.2,0,0.3,0,0.4v0.1c0,0.1,0,0.1,0,0.1v0c0,0.2,0,0.5,0,0.9c1.9-0.4,3.9-0.9,4.6-1v-1.6l0.3-0.1v1.6&#10;&#9;&#9;c1.6-0.4,3.2-0.9,4-1.2c0-0.3,0-1.2,0-1.6L82.3,21C81.9,20.9,81.6,20.8,81.2,20.7z"/><path d="M73.8,23.6L73.8,23.6z"/><path d="M73.8,23.8C73.8,23.8,73.8,23.8,73.8,23.8C73.8,23.8,73.8,23.8,73.8,23.8z"/><path d="M85.1,21.8l-0.3,0.1l0,0c-0.6,0.2-1.2,0.5-1.9,0.7c0,2.6,0,3.6,0,4.5c0.5-0.2,1-0.4,1.5-0.6l0,0&#10;&#9;&#9;c0.5-0.2,1.5-0.6,1.8-0.7c0-1.1,0-3.6,0-4.5C85.9,21.5,85.4,21.7,85.1,21.8z"/><path d="M0.2,24c0,0,0-0.1,0-0.3c0,0.7,0.1,1.4,0.5,2c0-3.1,0-3.5,0-3.5l0,0l0,0c0,0,0-0.2,0-1&#10;&#9;&#9;c-0.1-0.1-0.1-0.2-0.1-0.3l0,0c-0.2-0.4-0.3-0.9-0.3-1.3c0,0.6,0,1.2,0,1.7c0-1,0-1.9,0-1.9c0,0.1,0,1,0,2.1c0,1,0,1.8,0,2.3&#10;&#9;&#9;C0.2,23.9,0.2,24,0.2,24z"/><path d="M4.9,18.3c0.4-0.2,0.8-0.4,1.3-0.7l0-4.5c-0.9,0.4-1.7,0.9-2.5,1.4l0,3c0,0-0.1-0.1-0.1-0.1&#10;&#9;&#9;l0-2.8c-0.6,0.4-1.2,0.9-1.7,1.4c0,0-0.1-0.1-0.2-0.2l0-4.4c-0.4,0.5-0.8,1-1.1,1.6l0,0v1.3c0,0,0-0.1,0-0.1v-1.1&#10;&#9;&#9;c-0.1,0.2-0.1,0.4-0.2,0.6l0-0.1c0.1-0.3,0.1-0.5,0.2-0.8v-1.6c-0.3,0.9-0.4,1.8-0.3,2.8c0,0.1,0,0.1,0,0.2c0,0.1,0,0.1,0,0.2&#10;&#9;&#9;c0,0,0,0,0-0.1c0,0.6,0.2,1.2,0.5,1.8l0,0v-1.6c0,0,0,0.1,0.1,0.1v1.6c0.4,0.6,0.8,1.1,1.3,1.6v-1.6l0.1,0.1v1.6l0,0&#10;&#9;&#9;c0.7,0.6,1.4,1.1,2.1,1.6c0-1.1,0-0.1,0-1.6C4.5,18.1,4.7,18.2,4.9,18.3z M0.2,13.6c0-0.3,0-0.6,0-0.7C0.2,13.1,0.2,13.4,0.2,13.6&#10;&#9;&#9;L0.2,13.6z"/><path d="M0.1,76.9L0.1,76.9L0.1,76.9c0,0.7,0.1,1.3,0.5,1.9c0-3.1,0-3.5,0-3.5l0,0l0,0c0,0,0-0.2,0-1&#10;&#9;&#9;c-0.3-0.5-0.4-1-0.5-1.6L0.1,76.9z"/><path d="M0.1,82.4v-0.3c0,0.4,0.1,0.8,0.3,1.2l0,0c0,0,0.1,0.3,0.2,0.4l0,0c0-3.1,0-3.5,0-3.5l0,0l0,0&#10;&#9;&#9;c0,0,0-0.2,0-1c-0.3-0.5-0.4-1-0.5-1.6C0.1,79.1,0.1,81.5,0.1,82.4z"/><path d="M0.1,67.4c0,0.1,0,0.1,0,0.1C0.1,67.5,0.1,67.4,0.1,67.4c0,0.6,0.1,1.1,0.3,1.6l0,0&#10;&#9;&#9;c0,0.1,0.1,0.2,0.1,0.3l0-3.4c0,0,0-1.1,0-1.1c-0.3-0.5-0.4-1-0.5-1.6c0,0.6,0,1.2,0,1.7c0-0.8,0-1.5,0-1.8c0,0,0-0.1,0-0.1&#10;&#9;&#9;c0,0.1,0,1.2,0,2.3C0.1,66.2,0.1,66.9,0.1,67.4z"/><path d="M0.6,59.6c0-3.1,0-3.5,0-3.5l0,0l0,0c0,0,0-0.2,0-1c-0.3-0.5-0.4-1-0.5-1.6c0,3,0,4.4,0,4.8&#10;&#9;&#9;v-0.3c0,0.4,0.1,0.8,0.3,1.2l0,0C0.4,59.2,0.5,59.5,0.6,59.6z"/><path d="M0,91.4v0.3c0,0.4,0.1,0.8,0.3,1.2l0,0c0,0,0,0.1,0,0.1l0,0c0,0.1,0.1,0.2,0.1,0.3&#10;&#9;&#9;c0-4.4,0-3.5,0-4.5c-0.3-0.5-0.4-1-0.5-1.6L0,91.4z"/><path d="M0.5,35L0.5,35c0,0,0.1,0.3,0.2,0.4c0-3,0-3.5,0-3.5l0,0c0,0,0-0.2,0-1c-0.3-0.5-0.4-1-0.5-1.6&#10;&#9;&#9;c0,3,0,4.4,0,4.8v-0.3C0.2,34.2,0.3,34.6,0.5,35z"/><path d="M0.9,94.2c-0.1-0.1-0.2-0.3-0.3-0.5c0,0.4,0,4.4,0,4.8v-0.3c0.3,0.6,0.8,1.1,1.3,1.6&#10;&#9;&#9;c0-2.4,0-2.2,0-4.5C1.5,95,1.2,94.6,0.9,94.2L0.9,94.2z"/><path d="M0.6,93.5c0.4,0.6,0.8,1.1,1.3,1.6c0,0,0-4.5,0-4.5c-0.5-0.5-0.9-1-1.3-1.6&#10;&#9;&#9;C0.6,89.6,0.6,91.8,0.6,93.5z"/><path d="M0.6,64.8v0.6l0,0v0.3l0,0l0,3.6c0.2,0.4,0.5,0.8,0.9,1.2l0,0c0.1,0.1,0.3,0.3,0.4,0.4&#10;&#9;&#9;c0-1.8,0-2.8,0-4.5C1.4,65.9,1,65.4,0.6,64.8L0.6,64.8z"/><path d="M1.5,70.8L1.5,70.8c-0.2-0.2-0.4-0.5-0.6-0.7l0,0c-0.1-0.1-0.2-0.3-0.3-0.5c0,0.4,0,4.4,0,4.8&#10;&#9;&#9;v-0.3c0.1,0.2,0.3,0.4,0.4,0.6l0,0c0.1,0.2,0.3,0.4,0.5,0.6l0,0c0.1,0.1,0.3,0.3,0.4,0.4c0-4.3,0-0.2,0-4.5&#10;&#9;&#9;C1.8,71.1,1.6,70.9,1.5,70.8z"/><path d="M0.6,59.7c0.3,0.5,0.6,0.9,1,1.3l0,0c0.1,0.1,0.2,0.2,0.3,0.3c0-1.8,0-2.8,0-4.5&#10;&#9;&#9;c-0.5-0.5-0.9-1-1.3-1.6C0.7,55.4,0.7,55.5,0.6,59.7z"/><path d="M0.8,79.6c-0.1-0.1-0.1-0.2-0.2-0.3c0,0.3,0,0.3,0,4.5C0.7,84,0.9,84.2,1,84.4l0,0&#10;&#9;&#9;c0.3,0.4,0.6,0.7,0.9,1c0-3.3,0-1.2,0-4.5C1.5,80.5,1.1,80,0.8,79.6L0.8,79.6z"/><path d="M1.5,46.6L1.5,46.6c-0.2-0.2-0.4-0.5-0.6-0.7l0,0c-0.1-0.1-0.2-0.3-0.3-0.5c0,0.4,0,4.4,0,4.8&#10;&#9;&#9;V50C1,50.6,1.4,51.1,2,51.6c0-1.7,0-2.8,0-4.5C1.8,46.9,1.6,46.7,1.5,46.6z"/><path d="M2.1,46.9c0.7,0.6,1.4,1.1,2.1,1.6c0-0.2,0-0.2,0-4.5c-0.8-0.5-1.5-1-2.1-1.6&#10;&#9;&#9;C2.1,44.2,2.1,45,2.1,46.9z"/><path d="M3.4,38.5c-0.5-0.3-0.9-0.7-1.3-1c0,0.8,0,4.3,0,4.8v-0.3c0.7,0.6,1.4,1.1,2.1,1.6&#10;&#9;&#9;c0-0.2,0-0.2,0-4.5C3.8,38.8,3.6,38.7,3.4,38.5L3.4,38.5z"/><path d="M2.1,51.7c0.7,0.6,1.4,1.1,2.1,1.6l0-4.5c-0.8-0.5-1.5-1-2.1-1.6C2.1,49,2.1,49.9,2.1,51.7z"/><path d="M2.1,56.5c0.7,0.6,1.4,1.1,2.1,1.6c0-0.2,0-0.2,0-4.5c-0.8-0.5-1.5-1-2.1-1.6&#10;&#9;&#9;C2.1,53.9,2.1,54.7,2.1,56.5z"/><path d="M2,75.9c0.7,0.6,1.4,1.1,2.1,1.6c0,0,0-4.5,0-4.5c-0.8-0.5-1.5-1-2.1-1.6C2,73.2,2,74,2,75.9z"/><path d="M2,90.6v-0.3c0.7,0.6,1.4,1.1,2.1,1.6c0-1.1,0-3.4,0-4.5c-0.8-0.5-1.5-1-2.1-1.6&#10;&#9;&#9;C2,90,2,86,2,90.6z"/><path d="M2,66.5v-0.3c0.7,0.6,1.4,1.1,2.1,1.6l0,0c0-0.2,0-0.2,0-4.5c-0.8-0.5-1.5-1-2.1-1.6&#10;&#9;&#9;C2,62.3,2,65.9,2,66.5z"/><path d="M2.1,27.6c0.7,0.6,1.4,1.1,2.1,1.6c0,0,0-4.5,0-4.5c-0.8-0.5-1.5-1-2.1-1.6&#10;&#9;&#9;C2.1,24.9,2.1,25.7,2.1,27.6z"/><path d="M3.3,77.2c-0.5-0.3-0.9-0.7-1.3-1c0,1.8,0,2.7,0,4.5c0.7,0.6,1.4,1.1,2.1,1.6c0-1.1,0-3.4,0-4.5&#10;&#9;&#9;C3.7,77.4,3.5,77.3,3.3,77.2L3.3,77.2z"/><path d="M4.4,24.4c0.9,0.6,1.9,1.1,2.9,1.5c0-1,0-3.4,0-4.5c-1-0.4-2-0.9-2.9-1.5&#10;&#9;&#9;C4.4,21.5,4.4,23.7,4.4,24.4z"/><path d="M4.4,39.2L4.4,39.2C4.2,39.1,4.3,39.1,4.4,39.2z"/><path d="M6.1,40.1c-0.7-0.4-1.5-0.8-1.7-0.9c0,0.4,0,3.3,0,3.8l0,0v0.7c0.9,0.6,1.9,1.1,2.9,1.5&#10;&#9;&#9;c0-4.4,0-4.2,0-4.5C7,40.5,6.3,40.2,6.1,40.1L6.1,40.1z"/><path d="M4.4,29.3c0.9,0.6,1.9,1.1,2.9,1.5c0-1,0-3.4,0-4.5c-1-0.4-2-0.9-2.9-1.5&#10;&#9;&#9;C4.4,26.3,4.4,28.5,4.4,29.3z"/><path d="M4.4,53.4c0.9,0.6,1.9,1.1,2.9,1.5c0-1,0-3.4,0-4.5c-1-0.4-2-0.9-2.9-1.5&#10;&#9;&#9;C4.4,50.5,4.4,52.6,4.4,53.4z"/><path d="M4.3,92c0.9,0.6,1.9,1.1,2.9,1.5c0-1.1,0-3.4,0-4.5c-1-0.4-2-0.9-2.9-1.5&#10;&#9;&#9;C4.3,89.1,4.3,91.3,4.3,92z"/><path d="M6,64.3c-0.3-0.2-2-1.1-1.7-0.9c0,1.6,0,3.8,0,4.5c0.9,0.6,1.9,1.1,2.9,1.5c0-1,0-3.4,0-4.5&#10;&#9;&#9;C6.9,64.7,6.2,64.4,6,64.3L6,64.3z"/><path d="M4.3,77.5c0.9,0.6,1.9,1.1,2.9,1.5c0-1,0-3.4,0-4.5c-1-0.4-2-0.9-2.9-1.5&#10;&#9;&#9;C4.3,74.6,4.3,76.8,4.3,77.5z"/><path d="M4.4,48.6c0.9,0.6,1.9,1.1,2.9,1.5c0-1,0-3.4,0-4.5c-1-0.4-2-0.9-2.9-1.5&#10;&#9;&#9;C4.4,45.6,4.4,47.8,4.4,48.6z"/><path d="M4.4,44L4.4,44C4.3,44,4.3,44,4.4,44z"/><path d="M4.3,58.2c0.7,0.4,1.2,0.7,1.9,1l0,0c0.3,0.2,0.7,0.3,1,0.5c0-1,0-3.4,0-4.5&#10;&#9;&#9;c-1-0.4-2-0.9-2.9-1.5C4.4,55.3,4.4,57.5,4.3,58.2z"/><path d="M4.4,34.1c0.9,0.6,1.9,1.1,2.9,1.5c0-1,0-3.5,0-4.5c-1-0.4-2-0.9-2.9-1.5&#10;&#9;&#9;C4.4,31.2,4.4,33.3,4.4,34.1z"/><path d="M4.3,82.4c0.7,0.4,1.2,0.7,1.9,1l0,0c0.3,0.2,0.7,0.3,1,0.5c0-1.1,0-3.4,0-4.5&#10;&#9;&#9;c-1-0.4-2-0.9-2.9-1.5C4.3,79.4,4.3,81.7,4.3,82.4z"/><path d="M4.3,77.8L4.3,77.8C4.3,77.8,4.3,77.8,4.3,77.8z"/><path d="M4.3,68.2L4.3,68.2C4.3,68.1,4.3,68.1,4.3,68.2z"/><path d="M4.3,72.7c0.9,0.6,1.9,1.1,2.9,1.5c0-1,0-3.4,0-4.5c-1-0.4-2-0.9-2.9-1.5&#10;&#9;&#9;C4.3,69.1,4.3,71.6,4.3,72.7z"/><path d="M4.3,96.8c0.9,0.6,1.9,1.1,2.9,1.5c0-4.2,0-3.8,0-4.5c-1-0.4-2-0.9-2.9-1.5&#10;&#9;&#9;C4.3,95,4.3,95.2,4.3,96.8z"/><path d="M9.4,80.2C9,80,7.5,79.4,7.5,79.4c0,1.7,0,2.8,0,4.5c0.7,0.3,2.4,1,3.6,1.3c0-1.9,0-0.7,0-4.5&#10;&#9;&#9;C10.6,80.6,9.7,80.3,9.4,80.2L9.4,80.2z"/><path d="M7.5,69.8v-0.3c0.3,0.1,0.5,0.2,0.8,0.3l0,0c1.4,0.6,0.6,0.3,1.1,0.4l0,0&#10;&#9;&#9;c0.3,0.1,1.2,0.4,1.6,0.6l0,0c0-1.7,0-2.8,0-4.5c-1.2-0.4-2.8-1-3.6-1.3C7.5,66.3,7.5,69.4,7.5,69.8z"/><path d="M11.1,59L11.1,59z"/><path d="M7.5,55.3c0,0.4,0,4,0,4.5c0.7,0.3,2.4,1,3.6,1.3c0-1.4,0-1.9,0-2.1v-0.1c0-0.3,0-0.9,0-2.3&#10;&#9;&#9;C9.9,56.2,8.2,55.6,7.5,55.3z M11.1,59.1L11.1,59.1z"/><path d="M7.4,84.2v0.4l0,0v0.3l0,0l0,3.9c0.9,0.4,2.5,1,3.6,1.3c0-1.9,0-0.7,0-4.5&#10;&#9;&#9;C9.9,85.2,8.2,84.5,7.4,84.2L7.4,84.2z"/><path d="M7.5,55c0.7,0.3,2.4,1,3.6,1.3c0-3.6,0-0.1,0-4.5c-1.2-0.4-2.8-1-3.6-1.3&#10;&#9;&#9;C7.5,50.9,7.5,54.4,7.5,55z"/><path d="M7.5,45.6v-0.3c0.2,0.1,1.5,0.6,1.9,0.8l0,0c0.3,0.1,1.2,0.4,1.6,0.6c0-1.7,0-2.8,0-4.5&#10;&#9;&#9;c-1.2-0.4-2.8-1-3.6-1.3C7.5,42,7.5,45.4,7.5,45.6z"/><path d="M7.4,89.1v0.4l0,0v0.3l0,0c0,0.4,0,3.7,0,4.2v-0.3c1.2,0.5,2.4,1,3.6,1.3c0-2.6,0-1,0-4.5&#10;&#9;&#9;C9.8,90,8.2,89.4,7.4,89.1L7.4,89.1z"/><path d="M7.6,23.2L7.6,23.2z"/><path d="M7.6,22.6L7.6,22.6z"/><path d="M11.1,22.8c-1.2-0.4-2.8-1-3.6-1.3c0,0.5,0,0.8,0,1.1v0.1c0,0.3,0,0.4,0,0.5v0&#10;&#9;&#9;c0,0.5,0,1.4,0,2.8c0.3,0.1,0.5,0.2,0.8,0.3l0,0c1,0.4,2,0.8,2.8,1c0-1.2,0-1.7,0-2v0c0,0,0,0,0,0v0C11.1,25.2,11.1,24.6,11.1,22.8&#10;&#9;&#9;z M7.6,23L7.6,23z"/><path d="M11.1,25.3C11.1,25.2,11.1,25.2,11.1,25.3z"/><path d="M11.1,25.3L11.1,25.3z"/><path d="M7.5,79.1c0.2,0.1,1.5,0.6,1.9,0.8l0,0c0.3,0.1,1.2,0.4,1.6,0.6c0-1.9,0-0.7,0-4.5&#10;&#9;&#9;c-1.2-0.4-2.8-1-3.6-1.3C7.5,75,7.5,78.6,7.5,79.1z"/><path d="M11.1,30.1L11.1,30.1z"/><path d="M11.1,27.6c-1.1-0.3-2.7-1-3.6-1.3c0,0.4,0,4,0,4.5c0.9,0.4,2.5,1,3.6,1.3c0-1.2,0-1.7,0-2v0&#10;&#9;&#9;C11.1,30,11.1,29.4,11.1,27.6z"/><path d="M11.1,30.1C11.1,30,11.1,30.1,11.1,30.1z"/><path d="M11.1,35C11.1,34.8,11.1,34.9,11.1,35z"/><path d="M11.1,32.5c-1-0.3-2.6-0.9-3.6-1.3c0,0.8,0-0.9,0,4.5c0.7,0.3,2.4,1,3.6,1.3l0,0&#10;&#9;&#9;c0-1.2,0-1.7,0-2v0C11.1,34.9,11.1,34.3,11.1,32.5z"/><path d="M11.1,35L11.1,35z"/><path d="M11.1,63.9L11.1,63.9c0-0.2,0-0.8,0-2.5c-0.8-0.3-2.4-0.8-3.6-1.3l0,0v0.4l0,0v0.3l0,0l0,3.9&#10;&#9;&#9;c0.7,0.3,2.4,1,3.6,1.3C11,64.4,11,64,11.1,63.9L11.1,63.9L11.1,63.9z"/><path d="M11.1,63.9L11.1,63.9C11.1,63.9,11.1,63.9,11.1,63.9L11.1,63.9z"/><path d="M11.3,49.2c0-0.1,0,0.2,0,2.4c0.9,0.3,1.6,0.5,2.5,0.7l0,0c0.5,0.2,1.1,0.3,1.7,0.4l0-4.5&#10;&#9;&#9;c-1.3-0.3-2.9-0.8-4.1-1.2C11.3,48.3,11.3,48.9,11.3,49.2z"/><path d="M11.3,49.4L11.3,49.4C11.3,49.4,11.3,49.4,11.3,49.4z"/><path d="M11.3,49.2C11.3,49.2,11.3,49.2,11.3,49.2C11.3,49.2,11.3,49.2,11.3,49.2z"/><path d="M11.3,49.2L11.3,49.2z"/><path d="M11.3,49.3L11.3,49.3z"/><path d="M11.3,49.4C11.3,49.5,11.3,49.4,11.3,49.4z"/><path d="M11.3,49.3L11.3,49.3z"/><path d="M11.4,32.6v2.4l0,0c0,0.5,0,2,0,2.5v-0.3c1.2,0.4,2.5,0.8,4.1,1.2l0-4.5&#10;&#9;&#9;C14.4,33.4,12.7,33,11.4,32.6L11.4,32.6z"/><path d="M11.3,90.5v-0.3c1.3,0.4,2.9,0.9,4.1,1.2c0,0,0-4.5,0-4.5c-1.3-0.3-2.9-0.8-4.1-1.2&#10;&#9;&#9;C11.3,86.7,11.3,89.6,11.3,90.5z"/><path d="M11.2,95c1.3,0.4,2.7,0.8,4.1,1.2c0,0,0-4.5,0-4.5c-1.1-0.3-2.7-0.7-4.1-1.2&#10;&#9;&#9;C11.2,93,11.2,92.3,11.2,95z"/><path d="M11.3,73.3L11.3,73.3c0,0.1,0,0.1,0,0.2C11.3,73.5,11.3,73.4,11.3,73.3c0,0.3,0,0.9,0,2.4&#10;&#9;&#9;c0.9,0.3,1.6,0.5,2.5,0.7l0,0c0.5,0.2,1.1,0.3,1.7,0.4l0-4.5c-1.2-0.3-2.8-0.8-4.1-1.2C11.3,72.4,11.3,73.1,11.3,73.3z M11.3,73.3&#10;&#9;&#9;L11.3,73.3z"/><path d="M11.3,73.5L11.3,73.5z"/><path d="M11.3,56.7V59l0,0c0,0.4,0,2,0,2.5v-0.3c1.3,0.4,2.9,0.9,4.1,1.2l0-4.5&#10;&#9;&#9;C14.3,57.6,12.7,57.1,11.3,56.7L11.3,56.7z"/><path d="M11.4,25.1L11.4,25.1z"/><path d="M11.4,25.2L11.4,25.2z"/><path d="M11.4,25.1L11.4,25.1c0,0.1,0,0.1,0,0.1c0,0,0,0,0,0v0.1c0,0.3,0,0.9,0,2.2&#10;&#9;&#9;c0.9,0.3,1.6,0.5,2.5,0.7l0,0c0.5,0.2,1.1,0.3,1.7,0.4l0-4.5c-1.1-0.3-2.7-0.7-4.1-1.2C11.4,24.1,11.4,24.8,11.4,25.1z"/><path d="M11.4,25.3L11.4,25.3z"/><path d="M11.3,80.8c0,1.6,0,2.7,0,4.5c0.7,0.2,1.4,0.4,2.2,0.7l0,0c0.4,0.1,1.4,0.4,1.9,0.5&#10;&#9;&#9;c0,0,0-4.5,0-4.5C14.3,81.7,12.6,81.3,11.3,80.8L11.3,80.8z"/><path d="M15.7,77.1V77c1.6,0.4,3.7,0.8,4.6,1c0-0.1,0-4.4,0-4.5c-1.2-0.2-3.2-0.7-4.6-1&#10;&#9;&#9;C15.7,72.7,15.7,76.8,15.7,77.1z"/><path d="M15.7,57.6c1,0.3,3.2,0.7,4.6,1c0-1.6,0-1.4,0-4.5c-1.3-0.3-3.3-0.7-4.6-1&#10;&#9;&#9;C15.7,53.4,15.7,57.2,15.7,57.6z"/><path d="M15.7,86.6c0.9,0.2,3.1,0.7,4.6,1c0-3.3,0-0.9,0-4.5c-1.1-0.2-3.2-0.6-4.6-1&#10;&#9;&#9;C15.7,82.5,15.7,86.1,15.7,86.6z"/><path d="M15.7,91.4c1.2,0.3,3,0.7,4.6,1c0-2.3,0-1.3,0-4.5c-1.4-0.3-3.3-0.7-4.6-1&#10;&#9;&#9;C15.7,87.3,15.7,90.9,15.7,91.4z"/><path d="M15.8,28.7c0.1,0,0.3,0.1,0.4,0.1l0,0c1.5,0.4,3.4,0.7,4.2,0.9c0-0.7,0-3.9,0-4.5&#10;&#9;&#9;c-1.4-0.3-3.3-0.7-4.6-1C15.8,24.5,15.8,28.2,15.8,28.7z"/><path d="M15.7,67.3c1,0.3,3.2,0.7,4.6,1l0,0c0-2.1,0-1.3,0-4.5c-1.1-0.2-3.2-0.7-4.6-1&#10;&#9;&#9;C15.7,63.1,15.7,66.8,15.7,67.3z"/><path d="M15.8,38.8L15.8,38.8l0,4.4c1,0.3,3.2,0.7,4.6,1c0-0.7,0-3.9,0-4.5c-0.1,0-2.4-0.5-4.6-1V38.8z"/><path d="M15.7,53v-0.2c1.4,0.3,3.3,0.7,4.6,1c0-0.7,0-3.9,0-4.5c-1.2-0.2-3.2-0.7-4.6-1&#10;&#9;&#9;C15.7,48.6,15.7,52.7,15.7,53z"/><path d="M15.7,62.5c0.7,0.2,3,0.7,4.6,1c0-0.7,0-3.9,0-4.5c-1.1-0.2-3.2-0.6-4.6-1&#10;&#9;&#9;C15.7,58.3,15.7,62,15.7,62.5z"/><path d="M15.7,81.8c1.1,0.3,3.2,0.7,4.6,1c0-4.2,0-0.6,0-4.5c-1.1-0.2-3.2-0.6-4.6-1&#10;&#9;&#9;C15.7,77.7,15.7,81.3,15.7,81.8z"/><path d="M15.7,43.6L15.7,43.6c0,0.5,0,4.2,0,4.5V48c1.6,0.4,3.7,0.8,4.6,1c0-0.7,0-3.9,0-4.5&#10;&#9;&#9;c-0.1,0-2.4-0.5-4.6-1L15.7,43.6z"/><path d="M20.6,92.5c0,0,2.1,0.4,5,0.8c0-1.9,0-3.1,0-4.5c-1.1-0.2-3.4-0.5-5-0.8&#10;&#9;&#9;C20.6,91.2,20.6,90.4,20.6,92.5z"/><path d="M20.7,34.6c1.8,0.3,4.3,0.7,5,0.8c0-5.1,0-2.1,0-4.5c-1.1-0.2-3.4-0.5-5-0.8&#10;&#9;&#9;C20.7,30.2,20.7,33.4,20.7,34.6z"/><path d="M20.6,61.9L20.6,61.9c0,1.4,0,1.7,0,1.8v-0.2c1.7,0.3,4,0.7,5,0.8c0-5.1,0-2.1,0-4.5&#10;&#9;&#9;c-2.5-0.3-5-0.8-5-0.8C20.6,61.7,20.6,61.4,20.6,61.9z"/><path d="M20.6,63.7L20.6,63.7z"/><path d="M20.6,63.8C20.6,63.8,20.6,63.8,20.6,63.8L20.6,63.8z"/><path d="M20.7,37.8L20.7,37.8c0,0.4,0,1.5,0,1.9v-0.3c1.7,0.3,4,0.7,5,0.8c0-1,0,0.8,0-4.5&#10;&#9;&#9;c-2.5-0.4-5-0.8-5-0.8C20.7,37.5,20.7,37.3,20.7,37.8z"/><path d="M20.6,82.8c1.7,0.3,4,0.7,5,0.8c0-4,0-2.4,0-4.5c-1.1-0.2-3.4-0.5-5-0.8&#10;&#9;&#9;C20.6,78.9,20.6,82.2,20.6,82.8z"/><path d="M20.6,58.7c1.8,0.3,4.3,0.7,5,0.8c0-5.2,0-2.4,0-4.5c-1.1-0.2-3.4-0.5-5-0.8&#10;&#9;&#9;C20.6,54.4,20.6,57.6,20.6,58.7z"/><path d="M20.6,85.8L20.6,85.8c0,0.2,0-0.1,0,1.9c1.8,0.3,4.3,0.7,5,0.8c0-5.1,0-2.8,0-4.5&#10;&#9;&#9;c-2.5-0.3-5-0.8-5-0.8L20.6,85.8z"/><path d="M20.7,29.7c1.8,0.3,4.3,0.7,5,0.8c0-3.1,0-3.5,0-4.5c-1.1-0.2-3.4-0.5-5-0.8&#10;&#9;&#9;C20.7,25.4,20.7,28.6,20.7,29.7z"/><path d="M20.6,53.9c1.8,0.3,4.3,0.7,5,0.8c0-5.3,0-2,0-4.5c-2.3-0.3-4.1-0.6-5-0.8&#10;&#9;&#9;C20.6,49.6,20.6,52.7,20.6,53.9z"/><path d="M20.6,78c1.5,0.3,3.7,0.6,5,0.8l0,0c0-5.1,0-2.8,0-4.5c-1.1-0.2-3.4-0.5-5-0.8&#10;&#9;&#9;C20.6,74.1,20.6,77.4,20.6,78z"/><path d="M25.9,93.4c1.8,0.2,3.5,0.5,5.3,0.6c0,0,0-4.5,0-4.5c-0.7-0.1-3.4-0.4-5.3-0.6&#10;&#9;&#9;C25.9,90,25.9,89.1,25.9,93.4z"/><path d="M31.7,45.7c1.7,0.2,4.8,0.4,5.6,0.4c0-1.3,0,0.6,0-4.5c-0.7,0-3.7-0.2-5.6-0.4&#10;&#9;&#9;C31.7,41.3,31.7,45.6,31.7,45.7z"/><path d="M31.6,79.5c1.6,0.2,4.7,0.4,5.6,0.4c0-1.1,0-3.5,0-4.5c-0.7,0-3.7-0.2-5.6-0.4&#10;&#9;&#9;C31.6,75,31.6,79.4,31.6,79.5z"/><path d="M31.7,40.9c0,0,3.2,0.3,5.6,0.4c0-1.3,0,0.6,0-4.5c-2.2-0.1-4.1-0.3-5.6-0.4&#10;&#9;&#9;C31.7,36.4,31.7,40.8,31.7,40.9z"/><path d="M31.6,55.4c1.5,0.1,4.6,0.4,5.6,0.4c0-1.3,0,0.6,0-4.5c-0.8,0-3.9-0.3-5.6-0.4&#10;&#9;&#9;C31.6,50.9,31.6,55.2,31.6,55.4z"/><path d="M31.7,31.2c1.1,0.1,4.2,0.3,5.6,0.4l0,0c0-1.3,0,0.5,0-4.5c-0.8,0-3.9-0.3-5.6-0.4&#10;&#9;&#9;C31.7,26.8,31.7,31.1,31.7,31.2z"/><path d="M31.6,84.4c1.6,0.2,4.8,0.4,5.6,0.4c0-0.8,0-3.5,0-4.5c-2.8-0.2-5.6-0.4-5.6-0.4&#10;&#9;&#9;C31.6,80.2,31.6,84.2,31.6,84.4z"/><path d="M31.6,74.7c1.7,0.2,4.8,0.4,5.6,0.4c0-1.1,0-3.5,0-4.5c-2.2-0.1-4.1-0.3-5.6-0.4&#10;&#9;&#9;C31.6,70.2,31.6,74.6,31.6,74.7z"/><path d="M31.6,65c0,0,3.3,0.3,5.6,0.4c0-0.6,0-0.7,0-0.8v0c0-0.1,0-0.6,0-3.8c-0.7,0-3.7-0.2-5.6-0.4&#10;&#9;&#9;C31.6,60.6,31.6,64.9,31.6,65z"/><path d="M31.6,89.2c0,0,2.4,0.2,5.6,0.4c0-1,0,0.2,0-4.5c-0.7,0-3.7-0.2-5.6-0.4&#10;&#9;&#9;C31.6,85.4,31.6,88.8,31.6,89.2z"/><path d="M31.6,50.6c1.5,0.1,4.6,0.4,5.6,0.4c0-1.3,0,0.6,0-4.5c-0.7,0-3.7-0.2-5.6-0.4&#10;&#9;&#9;C31.7,46.1,31.6,50.4,31.6,50.6z"/><path d="M37.5,65.5c1.9,0.1,5,0.2,5.8,0.2c0-0.5,0-4,0-4.5c-0.7,0-3.7-0.1-5.8-0.2&#10;&#9;&#9;C37.5,62,37.5,64.5,37.5,65.5z"/><path d="M37.5,80.3V80c1,0.1,3,0.2,5.8,0.2l0,0c0-1.6,0-0.4,0-4.5c-0.7,0-3.7-0.1-5.8-0.2&#10;&#9;&#9;C37.5,76,37.5,79.7,37.5,80.3z"/><path d="M37.6,56.1v-0.3c1.9,0.1,5,0.2,5.8,0.2c0-0.5,0-4,0-4.5c-0.7,0-3.7-0.1-5.8-0.2&#10;&#9;&#9;C37.6,51.8,37.6,55.7,37.6,56.1z"/><path d="M37.5,74.3L37.5,74.3C37.5,74.3,37.5,74.3,37.5,74.3z"/><path d="M37.5,73.4L37.5,73.4z"/><path d="M37.5,73.4L37.5,73.4c0,0.2,0,0.3,0,0.4c0,0.1,0,0.3,0,0.5v0c0,0.2,0,0.5,0,0.9&#10;&#9;&#9;c2,0.1,5,0.2,5.8,0.2c0-1.6,0-0.4,0-4.5c-3.2-0.1-5.8-0.2-5.8-0.2C37.5,71.9,37.5,72.8,37.5,73.4z M37.5,73.5c0,0,0,0.1,0,0.2V73.5&#10;&#9;&#9;z M37.5,74.1L37.5,74.1z"/><path d="M37.6,46.2c1.5,0.1,3.5,0.2,5.8,0.2c0-0.5,0-4,0-4.5c-0.7,0-3.7-0.1-5.8-0.2&#10;&#9;&#9;C37.6,43.3,37.6,45.5,37.6,46.2z"/><path d="M37.5,89.6c1.9,0.1,3.8,0.2,5.8,0.2c0-1.4,0-0.1,0-4.5c-0.7,0-3.7-0.1-5.8-0.2&#10;&#9;&#9;C37.5,88,37.5,87.9,37.5,89.6z"/><path d="M37.6,27.2c0,0.5,0,4.4,0,4.8v-0.3c1.9,0.1,5,0.2,5.8,0.2c0-0.5,0-4,0-4.5c-0.1,0-1.4,0-1.4,0&#10;&#9;&#9;C40.5,27.3,39,27.2,37.6,27.2z"/><path d="M37.5,84.8c2,0.1,5,0.2,5.8,0.2c0,0,0-4.5,0-4.5c-2.2,0-4.1-0.1-5.8-0.2&#10;&#9;&#9;C37.5,81.3,37.5,83.8,37.5,84.8z"/><path d="M37.6,41.3c1.9,0.1,5,0.2,5.8,0.2c0-0.5,0-4,0-4.5c-0.7,0-3.7-0.1-5.8-0.2&#10;&#9;&#9;C37.6,38.5,37.6,40.7,37.6,41.3z"/><path d="M37.5,70.3c1.9,0.1,5,0.2,5.8,0.2c0-0.5,0-4,0-4.5c-0.7,0-3.7-0.1-5.8-0.2&#10;&#9;&#9;C37.5,66.8,37.5,69.3,37.5,70.3z"/><path d="M43.6,75.7c0,3.2,0,3.6,0,4.5c1.9,0,5.1,0,5.8,0c0-1.6,0-3,0-4.5C48.8,75.7,45.7,75.7,43.6,75.7&#10;&#9;&#9;z"/><path d="M43.7,61.2l0,3.2l0,0c0,0.5,0,1.3,0,1.7v-0.3c1.4,0,3.4,0,5.8,0c0-0.8,0-0.9,0-4.5&#10;&#9;&#9;C46.1,61.2,44.4,61.2,43.7,61.2z"/><path d="M43.7,27.4c0,4.2,0,2.8,0,4.5c2.1,0,5.1,0,5.8,0c0-1.7,0,0,0-4.5C48.8,27.4,45.8,27.4,43.7,27.4&#10;&#9;&#9;z"/><path d="M43.7,37c0,0.4,0,4,0,4.8v-0.3c1.4,0,3.4,0,5.8,0c0-0.9,0-2.1,0-4.5&#10;&#9;&#9;C47.4,37.1,45.4,37.1,43.7,37z"/><path d="M43.7,51.5c0,4.2,0,2.8,0,4.5c2.1,0,5.1,0,5.8,0c0-0.8,0-0.9,0-4.5&#10;&#9;&#9;C48.8,51.5,45.8,51.6,43.7,51.5z"/><path d="M43.7,56.4c0,4.4,0,2.8,0,4.5c2.1,0,5.1,0,5.8,0c0-0.8,0-0.9,0-4.5&#10;&#9;&#9;C46.1,56.4,44.4,56.4,43.7,56.4z"/><path d="M43.7,32.2c0,4.1,0,2.9,0,4.5c2.1,0,5.1,0,5.8,0c0-1.7,0,0,0-4.5C46.2,32.3,44.4,32.2,43.7,32.2&#10;&#9;&#9;z"/><path d="M43.6,80.5c0,3.2,0,3.6,0,4.5c2.1,0,5.1,0,5.8,0c0-1.6,0-3,0-4.5C48.7,80.5,45.5,80.5,43.6,80.5&#10;&#9;&#9;z"/><path d="M49.8,75.7v-0.3c2.3,0,5.1-0.2,5.9-0.2c0-1.7,0-2.6,0-4.5c-2,0.1-4,0.2-5.9,0.2&#10;&#9;&#9;C49.8,73.2,49.8,75.5,49.8,75.7z"/><path d="M49.8,70.8L49.8,70.8z"/><path d="M49.9,66c0,0.4,0,4,0,4.8c0-0.1,0-0.2,0-0.2c1.9,0,3.8-0.1,5.9-0.2v0c0,0,0-0.5,0-4.5&#10;&#9;&#9;C53.5,65.9,51.5,66,49.9,66z"/><path d="M49.9,60.9c1.8,0,5.1-0.2,5.9-0.2c0,0,0-4.5,0-4.5c-0.7,0-3.8,0.2-5.9,0.2&#10;&#9;&#9;C49.9,60.6,49.9,59.9,49.9,60.9z"/><path d="M49.9,36.8c1.8,0,5.1-0.2,5.9-0.2v0l0,0c0-0.1,0-0.7,0-4.5c-2.2,0.1-4.2,0.2-5.9,0.2&#10;&#9;&#9;C49.9,36.5,49.9,35.7,49.9,36.8z"/><path d="M54.2,61c0.1,0-2.3,0.1-4.4,0.1c0,3.3,0,3.5,0,4.5c2.1,0,5.1-0.2,5.9-0.2v0c0,0,0-0.5,0-4.5&#10;&#9;&#9;C55.5,61,54.5,61,54.2,61z"/><path d="M49.8,89.9c2,0,3.9-0.1,5.9-0.2c0-1.2,0-0.3,0-4.5c-0.7,0-3.8,0.2-5.9,0.2&#10;&#9;&#9;C49.8,89.5,49.8,88,49.8,89.9z"/><path d="M49.9,37l0,3.2l0,0c0,0.4,0,0.1,0,1.4c2.1,0,5.1-0.2,5.9-0.2v0c0,0,0-0.5,0-4.5&#10;&#9;&#9;C55,36.9,51.1,37,49.9,37z"/><path d="M49.9,41.9c0,0.6,0,4.3,0,4.8v-0.3c2.3,0,5.1-0.2,5.9-0.2l0,0c0,0,0-0.5,0-4.5&#10;&#9;&#9;C53.6,41.8,51.5,41.8,49.9,41.9z"/><path d="M49.9,31.9c2.1,0,5.1-0.2,5.9-0.2v0l0,0c0-0.1,0-0.7,0-4.5c-0.7,0-3.8,0.2-5.9,0.2&#10;&#9;&#9;C49.9,31.7,49.9,30.9,49.9,31.9z"/><path d="M49.8,85c2.1,0,5.1-0.2,5.9-0.2c0-1.3,0,0,0-4.5c-0.7,0-3.8,0.2-5.9,0.2&#10;&#9;&#9;C49.8,84.3,49.8,83.3,49.8,85z"/><path d="M68.2,59.5c1.7-0.2,4-0.6,5.2-0.9c0-2.6,0,0.4,0-4.5c-1.1,0.2-3.4,0.6-5.2,0.9&#10;&#9;&#9;C68.2,55.5,68.2,58.9,68.2,59.5z"/><path d="M68.2,83.6c1.9-0.3,4.4-0.7,5.2-0.9l0,0c0-1.6,0-0.9,0-4.5c-0.8,0.2-3.1,0.6-5.2,0.9&#10;&#9;&#9;C68.2,80.8,68.2,80.5,68.2,83.6z"/><path d="M68.2,88.4c2.1-0.3,4.5-0.7,5.2-0.9c0-1.9,0-1.3,0-4.5c-1.1,0.2-3.4,0.6-5.2,0.9&#10;&#9;&#9;C68.2,85.6,68.2,85.4,68.2,88.4z"/><path d="M68.3,30.5c1.9-0.3,4.2-0.7,5.2-0.9c0-0.5,0-4,0-4.5c-1.2,0.2-3.4,0.6-5.2,0.9&#10;&#9;&#9;C68.3,26.5,68.3,30,68.3,30.5z"/><path d="M68.3,40.2c1.7-0.2,4-0.6,5.2-0.9c0-0.5,0-4,0-4.5c-1.3,0.2-3.5,0.6-5.2,0.9&#10;&#9;&#9;C68.3,36.1,68.3,39.6,68.3,40.2z"/><path d="M68.2,93.3c1.8-0.3,3.6-0.6,5.2-0.9c0-2,0-1.3,0-4.5c-0.8,0.2-3.1,0.6-5.2,0.9&#10;&#9;&#9;C68.2,90.3,68.2,89.2,68.2,93.3z"/><path d="M68.3,41.7L68.3,41.7c0,0.4,0,2.8,0,3.3c2.1-0.3,4.5-0.7,5.2-0.9l0,0c0-0.5,0-4,0-4.5&#10;&#9;&#9;c-0.8,0.2-3.1,0.6-5.2,0.9L68.3,41.7z"/><path d="M68.2,65.8L68.2,65.8c0,0.4,0,2.8,0,3.3c2.1-0.3,4.5-0.7,5.2-0.9c0-0.5,0-4,0-4.5&#10;&#9;&#9;c-0.4,0.1-4.9,0.9-5.2,0.9L68.2,65.8z"/><path d="M68.2,59.8c0,0.5,0,4,0,4.5c1.7-0.2,3.9-0.6,5.2-0.9c0-0.5,0-4,0-4.5c-0.5,0.1-1.7,0.3-2.1,0.4&#10;&#9;&#9;C71.5,59.3,68.4,59.7,68.2,59.8z"/><path d="M68.3,35.3c1.7-0.2,3.9-0.6,5.2-0.9c0-0.5,0-4,0-4.5c-1.1,0.2-3.4,0.6-5.2,0.9&#10;&#9;&#9;C68.3,31.3,68.3,34.8,68.3,35.3z"/><path d="M80.9,57.1c-0.7,0.2-1.5,0.4-2.2,0.6c0,0.9,0-0.6,0,4.5c1.6-0.4,3.2-0.9,4-1.2c0-0.5,0-4,0-4.5&#10;&#9;&#9;C82.1,56.7,81.2,57,80.9,57.1L80.9,57.1z"/><path d="M78.6,86.4c1.6-0.4,3.2-0.9,4-1.2c0-1.8,0-2.7,0-4.5c-1,0.4-2.6,0.8-4,1.2&#10;&#9;&#9;C78.6,83,78.6,85.3,78.6,86.4z"/><path d="M80.9,52.3c-0.7,0.2-1.5,0.4-2.2,0.6c0,0.4,0,2.5,0,4.5c1.6-0.4,3.2-0.9,4-1.2c0-0.5,0-4,0-4.5&#10;&#9;&#9;C82.2,51.9,81.2,52.2,80.9,52.3L80.9,52.3z"/><path d="M80.9,28.1c-0.7,0.2-1.5,0.4-2.2,0.6c0,0.4,0,2.5,0,4.5c1.6-0.4,3.2-0.9,4-1.2c0-0.5,0-4,0-4.5&#10;&#9;&#9;C82.2,27.7,81.2,28,80.9,28.1L80.9,28.1z"/><path d="M78.7,38.8c0,0,0,0.1,0,0.4l0,0c0,0.4,0,3.5,0,4v-0.3c1.4-0.4,3-0.8,4-1.2l0,0c0-0.5,0-4,0-4.5&#10;&#9;&#9;c-0.9,0.3-2.5,0.8-4,1.2C78.7,39.1,78.7,38.9,78.7,38.8z"/><path d="M78.7,28.5c0.8-0.2,1.5-0.4,2.2-0.6l0,0c0.3-0.1,1.3-0.4,1.7-0.5c0-0.5,0-4,0-4.5&#10;&#9;&#9;c-1,0.3-2.6,0.8-4,1.2C78.7,24.6,78.7,26.7,78.7,28.5z"/><path d="M78.6,76.7c1-0.3,1.5-0.4,2.2-0.6l0,0c0.3-0.1,1.3-0.4,1.7-0.5c0-0.5,0-4,0-4.5&#10;&#9;&#9;c-0.9,0.3-2.5,0.8-4,1.2C78.6,72.6,78.6,74.7,78.6,76.7z"/><path d="M78.6,91.2c1.6-0.4,3.2-0.9,4-1.2c0-1.7,0-2.8,0-4.5c-0.9,0.3-2.5,0.8-4,1.2&#10;&#9;&#9;C78.6,86.7,78.6,91.2,78.6,91.2z"/><path d="M78.6,63.1v0.3l0,0c0,0.4,0,3.5,0,4v-0.3c1.4-0.4,3-0.8,4-1.2c0-0.5,0-4,0-4.5&#10;&#9;&#9;c-0.9,0.3-2.5,0.8-4,1.2C78.6,62.5,78.6,63.1,78.6,63.1z"/><path d="M80.8,90.9c-0.7,0.2-1.5,0.4-2.2,0.6c0,0.7,0,2.8,0,4.5c1.3-0.3,2.7-0.7,4-1.2&#10;&#9;&#9;c0-1.9,0-1.5,0-4.5C82.1,90.5,81.1,90.8,80.8,90.9L80.8,90.9z"/><path d="M80.8,76.4c-0.7,0.2-1.5,0.4-2.2,0.6c0,1.2,0,3.5,0,4.5c1.6-0.4,3.2-0.9,4-1.2l0-4.5&#10;&#9;&#9;C82.1,76,81.2,76.3,80.8,76.4z"/><path d="M78.7,34.4L78.7,34.4l0,3.7c1.4-0.4,3-0.8,4-1.2c0-0.5,0-4,0-4.5c-0.9,0.3-2.4,0.8-4,1.2&#10;&#9;&#9;C78.7,33.6,78.7,34.1,78.7,34.4z"/><path d="M86.3,75.4L86.3,75.4c0,0.4,0,3.3,0,3.7v-0.3c0.9-0.4,1.8-0.9,2.6-1.4c0-0.5,0,0.9,0-4.5&#10;&#9;&#9;c-0.9,0.5-1.7,1-2.6,1.4L86.3,75.4z"/><path d="M88.1,63.8c-0.5,0.3-1.1,0.6-1.8,0.9c0,1.6,0,0.4,0,4.5c0.9-0.4,1.8-0.9,2.6-1.4l0,0&#10;&#9;&#9;c0-1,0,1.1,0-4.5C88.7,63.5,88.4,63.7,88.1,63.8L88.1,63.8z"/><path d="M88.1,39.7c-0.5,0.3-1.1,0.6-1.8,0.9c0,1.3,0,0.3,0,4.5c0.6-0.3,1.2-0.6,1.8-0.9l0,0&#10;&#9;&#9;c0.3-0.2,0.6-0.3,0.8-0.5c0-0.6,0,0.3,0-4.5C88.7,39.3,88.4,39.5,88.1,39.7z"/><path d="M92.6,25.7L92.6,25.7C92.6,25.6,92.6,25.6,92.6,25.7c0.1-0.1,0.1-0.2,0.1-0.2&#10;&#9;&#9;c0.2-0.4,0.2-0.8,0.3-1.2c0,0,0,0,0,0c0,0,0,0,0,0V24c0-0.5,0-4.1,0-4.6c0,0.5-0.1,1.1-0.3,1.6l0,0c0,0-0.1,0.3-0.1,0.3v0.9v0.3&#10;&#9;&#9;l0,3.3l0,0C92.5,25.8,92.6,25.7,92.6,25.7z"/><path d="M92.6,49.8L92.6,49.8C92.6,49.8,92.6,49.7,92.6,49.8L92.6,49.8c0.3-0.6,0.4-1.2,0.4-1.7v0.2&#10;&#9;&#9;c0,0,0-0.1,0-0.3c0,0,0,0,0,0v0.2c0,0,0-0.1,0-0.2c0-0.4,0-1,0-1.9c0-1.2,0-2.4,0-2.4c0,0,0-0.1,0,2.1c0-0.5,0-1.2,0-1.9&#10;&#9;&#9;c0,0.4-0.1,0.9-0.3,1.3l0,0c0,0-0.1,0.3-0.1,0.3c0,0.5,0,4.4,0,4.8V50C92.5,49.9,92.5,49.9,92.6,49.8z"/><path d="M92.9,63.1V63c0,0,0,0.9,0,1.9C92.9,64.4,92.9,63.8,92.9,63.1c0,0.5-0.1,0.9-0.3,1.3l0,0&#10;&#9;&#9;c0,0-0.1,0.3-0.1,0.3v0.9l0,0V66l0,0l0,3.3c0,0,0.1-0.3,0.1-0.3l0,0c0.2-0.5,0.3-0.9,0.3-1.4v0.1c0,0,0,0,0-0.1c0-0.5,0-1.3,0-2.5&#10;&#9;&#9;C92.9,64.2,92.9,63.4,92.9,63.1z"/><path d="M92.9,58.2c0,0,0,0.1,0,0.1C92.9,58.2,92.9,58.2,92.9,58.2c0,0.1,0,1,0,2c0-0.5,0-1.1,0-1.7&#10;&#9;&#9;c0,0.5-0.2,0.9-0.4,1.4l0,0c0,0.1-0.1,0.1-0.1,0.2c0,0.9,0,3.5,0,4.5c0.4-0.7,0.5-1.4,0.5-2.2c0,0.3,0,0.5,0,0.5c0,0,0-0.2,0-0.6v0&#10;&#9;&#9;c0-0.4,0-1,0-1.7c0-0.9,0-1.8,0-2.2L92.9,58.2z"/><path d="M92.9,69.9c0-0.5,0-1.2,0-1.9c0,0.4-0.1,0.9-0.3,1.3l0,0c0,0-0.1,0.3-0.1,0.3c0,0.6,0,4.3,0,4.8&#10;&#9;&#9;v-0.3c0-0.1,0.1-0.1,0.1-0.2l0,0c0,0,0-0.1,0-0.1l0,0c0.2-0.5,0.4-1.1,0.3-1.6c0,0.1,0,0.1,0,0.2c0,0,0-0.1,0-0.3v0&#10;&#9;&#9;c0-0.4,0-1,0-1.9c0-1.2,0-2.4,0-2.5C92.9,67.8,92.9,67.8,92.9,69.9z"/><path d="M92.9,48.5c0,0,0,0,0,1.3c0-0.3,0-0.7,0-1.1c0,0.6-0.2,1.1-0.5,1.6c0,0.9,0,3.5,0,4.5&#10;&#9;&#9;C93,53.7,93,53,92.9,50C92.9,49.2,92.9,48.5,92.9,48.5z"/><path d="M92.8,96.8L92.8,96.8z"/><path d="M92.9,77.5c0,0,0,0,0,1.5c0-0.4,0-0.8,0-1.2c0,0.6-0.2,1.1-0.5,1.6c0,0.6,0-0.4,0,4.5&#10;&#9;&#9;c0-0.1,0.1-0.1,0.1-0.2l0,0c0.5-1,0.4-1.5,0.4-4.5C92.9,78.2,92.9,77.5,92.9,77.5z"/><path d="M92.8,98.6c0-0.5,0-1.1,0-1.8c0,0.6,0,1.1,0,1.6c0-0.4,0-0.9,0-1.4c0,0.5-0.2,1-0.4,1.4l0,0&#10;&#9;&#9;c0,0.1-0.1,0.1-0.1,0.2c0,0,0,4.5,0,4.5c0.3-0.6,0.5-1.2,0.5-1.9c0,0.3,0,0.2,0,0C92.9,100.6,92.8,99.8,92.8,98.6z"/><path d="M89.1,81.8L89.1,81.8c0,0.3,0,0.3,0,0.4c0.7-0.4,1.3-0.9,1.9-1.5c0-1.8,0-2.9,0-4.5&#10;&#9;&#9;c-0.6,0.6-1.3,1.1-1.9,1.5L89.1,81.8z"/><path d="M91.1,52.1v-0.3C91.1,51.8,91.1,51.9,91.1,52.1L91.1,52.1z"/><path d="M89.1,57.6L89.1,57.6c0,0.3,0,0.3,0,0.4c0.7-0.4,1.3-0.9,1.9-1.5c0-0.2,0-3.5,0-4.5&#10;&#9;&#9;c-0.6,0.6-1.3,1.1-1.9,1.5L89.1,57.6z"/><path d="M91.2,32.4c0.5-0.5,0.9-1,1.2-1.6c0-0.4,0-3.3,0-3.8v-0.7c-0.1,0.1-0.1,0.2-0.2,0.4&#10;&#9;&#9;c0,0-0.1,0.1-0.1,0.1c-0.3,0.4-0.6,0.7-0.9,1C91.2,30.4,91.2,29.8,91.2,32.4z"/><path d="M93,24.4v0.1c0,0.4,0,0.9,0,1.4c0-0.4,0-0.8,0-1.3l0,0c0,0.4-0.1,0.9-0.3,1.3c0,0,0,0.1,0,0.1&#10;&#9;&#9;c0,0.1-0.1,0.1-0.1,0.2c0,0.9,0,3.5,0,4.5c0.3-0.6,0.5-1.2,0.5-1.8c0,0.1,0,0.1,0,0.1c0,0,0-0.1,0-0.2c0-0.6,0-1.4,0-2.7&#10;&#9;&#9;C93,25.2,93,24.4,93,24.4z"/><path d="M92.9,39.1c0-0.1,0-0.1,0-0.1V39.1c0-0.2,0-0.3,0-0.3c0,0,0,0.9,0,2&#10;&#9;&#9;C92.9,40.3,92.9,39.8,92.9,39.1c0,0.4-0.1,0.8-0.3,1.2l0,0c0,0,0,0.1,0,0.1l0,0c0,0.1-0.1,0.1-0.1,0.2v0.9l0,0v0.3l0,0l0,3.3&#10;&#9;&#9;c0,0,0.1-0.3,0.1-0.3l0,0c0.2-0.5,0.3-1,0.3-1.5c0,0,0,0.1,0,0.1c0,0,0,0,0-0.1c0,0,0,0,0,0l0,0c0-0.5,0-1.2,0-2.3&#10;&#9;&#9;C92.9,40.3,92.9,39.5,92.9,39.1z"/><path d="M89.1,91.9l0.2-0.1l0,0c0.6-0.4,1.2-0.8,1.7-1.3c0-1.8,0-2.9,0-4.5c-0.6,0.6-1.3,1.1-1.9,1.5&#10;&#9;&#9;C89.1,88.1,89.1,91.4,89.1,91.9z"/><path d="M91.2,66.4v-0.3c0,0,0.1-0.1,0.1-0.1l0,0l0.1-0.1l0,0c0.4-0.4,0.7-0.8,1-1.3c0,0,0-4.5,0-4.5&#10;&#9;&#9;c-0.3,0.5-0.6,0.9-1,1.3l0,0c0,0-0.2,0.2-0.2,0.2C91.2,62.2,91.2,66,91.2,66.4z"/><path d="M93,24.1v0.1V24.1L93,24.1c0,0,0-4.5,0-4.5S93,19.4,93,24.1L93,24.1z"/><path d="M91.2,51.7c0.5-0.5,0.9-1,1.2-1.6c0-5.7,0-2.4,0-4.5c-0.3,0.6-0.7,1.1-1.2,1.6&#10;&#9;&#9;C91.2,48.8,91.2,50,91.2,51.7z"/><path d="M91.2,42.3V42c0,0,0.1-0.1,0.1-0.1l0,0l0.1-0.1l0,0c0.4-0.4,0.7-0.8,1-1.3c0,0,0-4.5,0-4.5&#10;&#9;&#9;c-0.3,0.5-0.6,0.9-1,1.3l0,0c0,0-0.2,0.2-0.2,0.2C91.2,38,91.2,41.9,91.2,42.3z"/><path d="M91.2,56.5c0.5-0.5,0.9-1,1.2-1.6c0-5.6,0-2.3,0-4.5c-0.3,0.6-0.7,1.1-1.2,1.6&#10;&#9;&#9;C91.2,54.5,91.2,53.9,91.2,56.5z"/><path d="M88.2,34.8L88.2,34.8L88.2,34.8L88.2,34.8c-0.6,0.3-1.2,0.6-1.8,0.9c0,1.3,0,0.3,0,4.5&#10;&#9;&#9;c0.6-0.3,1.3-0.6,1.8-0.9l0,0c0.3-0.2,0.6-0.3,0.8-0.5c0,0,0-4.8,0-4.8v0.3C88.8,34.5,88.5,34.7,88.2,34.8z"/><path d="M89.2,29.1l0.2-0.1l0,0c0.6-0.4,1.2-0.8,1.7-1.3v-2v-0.3l0,0v-2.3c-0.6,0.6-1.3,1.1-1.9,1.5&#10;&#9;&#9;C89.2,29.2,89.2,29.1,89.2,29.1z"/><path d="M89,24.7c-0.3,0.2-0.5,0.3-0.8,0.5l0,0c-0.5,0.3-1.2,0.6-1.8,0.9c0,2,0,4.4,0,4.8v-0.2&#10;&#9;&#9;c0.6-0.3,1.2-0.6,1.8-0.9l0,0c0.3-0.2,0.6-0.3,0.8-0.5l0,0C89,28.3,89,30.2,89,24.7z"/><path d="M86.4,30.9L86.4,30.9C86.4,30.9,86.4,30.9,86.4,30.9z"/><path d="M93,14.8L93,14.8c0-0.1,0,0.9,0,1.9c0-0.5,0-1.1,0-1.8c0,0.4-0.1,0.9-0.3,1.3l0,0&#10;&#9;&#9;c0,0,0,0.1,0,0.1l0,0c0,0.1-0.1,0.1-0.1,0.2v0.9l0,0v0.3l0,0l0,3.3c0,0,0.1-0.3,0.1-0.3l0,0c0.2-0.5,0.3-1,0.3-1.5v0.1&#10;&#9;&#9;c0,0,0,0,0-0.1c0-0.5,0-1.2,0-2.3C93,16,93,15,93,14.8z"/><path d="M89.1,48.4c0.7-0.4,1.3-0.9,1.9-1.5c0,0,0-4.5,0-4.5c-0.6,0.5-1.2,1-1.9,1.4l0,0l-0.1,0&#10;&#9;&#9;C89.1,48.8,89.1,48.4,89.1,48.4z"/><path d="M91.2,25.5L91.2,25.5v0.3v1.8c0,0,0.2-0.2,0.2-0.2c0.2-0.2,0.4-0.4,0.6-0.7c0,0,0.1-0.1,0.1-0.1&#10;&#9;&#9;c0.1-0.2,0.2-0.3,0.3-0.5l0-3.5v-1c-0.1,0.2-0.2,0.3-0.3,0.5c-0.2,0.3-0.4,0.5-0.7,0.8l-0.1,0.1c0,0-0.1,0.1-0.1,0.1L91.2,25.5z"/><path d="M89.4,91.9l-0.3,0.2c0,4.4,0,3.5,0,4.5c0.7-0.4,1.3-0.9,1.9-1.5c0,0,0-4.5,0-4.5&#10;&#9;&#9;C90.5,91.1,90,91.6,89.4,91.9L89.4,91.9z"/><path d="M92.9,89.3c0-0.5,0-1.2,0-1.9c0,0.6-0.2,1.1-0.5,1.6c0,0.3,0,0.4,0,4.5c0,0,0.1-0.3,0.1-0.3l0,0&#10;&#9;&#9;c0.2-0.5,0.4-1.1,0.3-1.7c0,0.1,0,0.2,0,0.3c0-0.1,0,0,0-0.4l0,0c0,0.1,0,0.2,0,0.3c0,0,0-0.2,0-0.3c0-0.4,0-1,0-1.8&#10;&#9;&#9;c0-0.8,0-1.6,0-2.5C92.9,87.1,92.9,87.1,92.9,89.3z"/><path d="M88.2,59c-0.6,0.4-1.2,0.6-1.8,0.9c0,1.4,0,0.9,0,4.5c0.6-0.3,1.2-0.6,1.8-0.9l0,0l0.1,0l0,0&#10;&#9;&#9;c0.3-0.2,0.6-0.3,0.8-0.5c0,0,0-4.5,0-4.5C88.7,58.6,88.4,58.8,88.2,59z"/><path d="M88.2,44.5L88.2,44.5L88.2,44.5c-0.6,0.4-1.1,0.6-1.8,0.9v1.1l0,0v0.3l0,0l0,3.2&#10;&#9;&#9;c0.9-0.4,1.8-0.9,2.6-1.4c0-0.8,0-3.4,0-4.5C88.7,44.2,88.5,44.3,88.2,44.5L88.2,44.5z"/><path d="M88.2,49.3c-0.6,0.3-1.2,0.6-1.8,0.9c0,0.5,0,4.4,0,4.8v-0.3c0.7-0.3,1.2-0.6,1.8-0.9l0,0&#10;&#9;&#9;c0.3-0.2,0.6-0.3,0.9-0.5c0-0.8,0-3.4,0-4.5C88.7,49,88.5,49.1,88.2,49.3L88.2,49.3z"/><path d="M92.3,93.6c0-1.1,0-3.4,0-4.5c-0.3,0.6-0.7,1.1-1.2,1.6c0,3.6,0,2.2,0,4.5&#10;&#9;&#9;C91.6,94.7,92,94.1,92.3,93.6z"/><path d="M91.3,95.1l-0.1,0.1l0,0c0,0-0.1,0.1-0.1,0.1c0,2.6,0,2,0,4.5c0.5-0.5,0.9-1,1.2-1.6&#10;&#9;&#9;c0-1,0-3.5,0-4.5C92,94.3,91.7,94.8,91.3,95.1L91.3,95.1z"/><path d="M92.9,82.3v1.9l0,0V82.3c0,0.1,0,0.8,0,1.6c0-0.4,0-0.9,0-1.4c0,0.5-0.2,0.9-0.4,1.4l0,0&#10;&#9;&#9;c0,0.1-0.1,0.1-0.1,0.2c0,1.9,0,0.6,0,4.5c0.3-0.6,0.5-1.2,0.5-1.9c0,0.1,0,0.2,0,0.2c0,0,0-0.1,0-0.2c0-0.6,0-1.3,0-2.5&#10;&#9;&#9;C92.9,83.2,92.9,82.3,92.9,82.3z"/><path d="M89.1,87.3L89.1,87.3L89.1,87.3L89.1,87.3z"/><path d="M89.1,87.3V87l0.1,0l0,0c0.7-0.4,1.3-0.9,1.9-1.4l0,0c0-2.4,0-2.1,0-4.5&#10;&#9;&#9;c-0.6,0.6-1.3,1.1-1.9,1.5C89.1,86.9,89.1,87.3,89.1,87.3z"/><path d="M91.1,88.2L91.1,88.2v0.3l0,0c0,0.5,0,1.6,0,2.1v-0.3c0,0,0.2-0.2,0.2-0.2l0,0&#10;&#9;&#9;c0.4-0.4,0.7-0.8,1-1.3l0-4.5c-0.3,0.6-0.7,1.1-1.2,1.6L91.1,88.2z"/><path d="M91.4,80.7c0,0-0.1,0.1-0.1,0.1l0,0c0,0-0.1,0.1-0.1,0.1c0,3.8,0,0.8,0,4.5&#10;&#9;&#9;c0.5-0.5,0.9-1,1.2-1.6l0,0c0-4.4,0-3.8,0-4.5C92.1,79.8,91.7,80.3,91.4,80.7L91.4,80.7z"/><path d="M92.9,77.1c0,0.1,0,0.1,0,0.2C92.9,77.3,92.9,77.2,92.9,77.1c0-0.6,0-1.4,0-2.6c0-1,0-1.9,0-1.9&#10;&#9;&#9;c0,0,0,0,0,1.7c0-0.4,0-0.9,0-1.5c0,0.6-0.2,1.1-0.5,1.6c0,0.9,0,3.5,0,4.5C92.7,78.4,92.9,77.7,92.9,77.1z"/><path d="M91.1,80.6c0.5-0.5,0.9-1,1.2-1.6c0-5.6,0-2.3,0-4.5c-0.3,0.6-0.7,1.1-1.2,1.6&#10;&#9;&#9;C91.1,80.5,91.1,77.2,91.1,80.6z"/><path d="M89.1,72.9c0,4.9,0,4.5,0,4.5c0.7-0.4,1.3-0.9,1.9-1.5c0-1.8,0-2.2,0-2.2l0,0l0,0&#10;&#9;&#9;c0,0,0-0.3,0-2.3C90.4,71.9,89.8,72.4,89.1,72.9z"/><path d="M92.4,69.4c0-5.6,0-2.3,0-4.5c-0.3,0.5-0.6,0.9-1,1.3l0,0c0,0-0.2,0.2-0.2,0.2c0,2.6,0,2,0,4.5&#10;&#9;&#9;C91.6,70.5,92,70,92.4,69.4z"/><path d="M91.1,71.3c0,1.6,0,2.9,0,4.5c0.5-0.5,0.9-1,1.2-1.6c0-5.6,0-2.3,0-4.5&#10;&#9;&#9;C92,70.3,91.6,70.8,91.1,71.3z"/><path d="M89.2,68L89.2,68c-0.1,4.9-0.1,4.5-0.1,4.6c0.7-0.4,1.3-0.9,1.9-1.5c0,0,0-4.5,0-4.5&#10;&#9;&#9;C90.5,67.1,89.8,67.6,89.2,68L89.2,68z"/><path d="M89.2,67.7L89.2,67.7c0.7-0.4,1.3-0.9,1.9-1.4c0-2.5,0-2.2,0-4.5c-0.6,0.6-1.3,1.1-1.9,1.5&#10;&#9;&#9;C89.1,67.9,89.1,67.7,89.2,67.7L89.2,67.7z"/><path d="M89.1,63.1L89.1,63.1z"/><path d="M89.1,63.1v-0.1l0.3-0.2l0,0c0.6-0.4,1.1-0.8,1.6-1.3c0-1.8,0-2.8,0-4.5&#10;&#9;&#9;c-0.6,0.6-1.3,1.1-1.9,1.5C89.1,61.7,89.1,62.7,89.1,63.1z"/><path d="M92.5,59.5L92.5,59.5c0.2-0.4,0.3-0.9,0.4-1.4v-0.3l0-4.2c0,0.6-0.2,1.1-0.5,1.6&#10;&#9;&#9;c0,0.6,0-0.4,0,4.5C92.5,59.6,92.5,59.5,92.5,59.5z"/><path d="M91.1,49.4L91.1,49.4z"/><path d="M91.1,49.4L91.1,49.4L91.1,49.4L91.1,49.4c0-0.2,0-0.8,0-2.2c-0.6,0.6-1.3,1.1-1.9,1.5&#10;&#9;&#9;c0,4.6,0,4.5,0,4.5c0.7-0.4,1.3-0.9,1.9-1.5C91.1,50.2,91.1,49.7,91.1,49.4C91.1,49.5,91.1,49.4,91.1,49.4z"/><path d="M89.2,43.6L89.2,43.6c0.7-0.4,1.3-0.9,1.9-1.4c0-2.5,0-2.2,0-4.5c-0.6,0.6-1.3,1.1-1.9,1.5&#10;&#9;&#9;C89.2,41.4,89.2,43.5,89.2,43.6L89.2,43.6z"/><path d="M92.4,45.3L92.4,45.3c0-5.7,0-2.4,0-4.5c-0.3,0.5-0.6,0.9-1,1.3l0,0c0,0-0.2,0.2-0.2,0.2&#10;&#9;&#9;c0,1.6,0,2.9,0,4.5C91.7,46.4,92.1,45.9,92.4,45.3z"/><path d="M89.2,39L89.2,39z"/><path d="M89.2,38.9L89.2,38.9z"/><path d="M89.2,38.8L89.2,38.8z"/><path d="M89.2,38.8c0.7-0.4,1.3-0.9,1.9-1.5c0-1.8,0-2.8,0-4.5c-0.6,0.6-1.3,1.1-1.9,1.5&#10;&#9;&#9;C89.2,37.6,89.2,38.5,89.2,38.8L89.2,38.8z"/><path d="M89.2,38.9L89.2,38.9z"/><path d="M89.2,39L89.2,39z"/><path d="M91.5,22.5c0.4-0.4,0.7-0.8,1-1.3c0-5.6,0-2.3,0-4.5c-0.3,0.6-0.7,1.1-1.2,1.6c0,2.6,0,2,0,4.5&#10;&#9;&#9;c0,0,0.1-0.1,0.1-0.1L91.5,22.5z"/><path d="M91.1,22.8c0-1.8,0-2.8,0-4.5c-0.6,0.5-1.2,1-1.9,1.4l0,0l-0.1,0c0,4.9,0,4.5,0,4.5&#10;&#9;&#9;C89.9,23.9,90.5,23.4,91.1,22.8L91.1,22.8z"/></g></svg>