<svg xmlns="http://www.w3.org/2000/svg" xmlns:xlink="http://www.w3.org/1999/xlink" x="0px" y="0px" viewBox="0 0 114 114" style="enable-background:new 0 0 114 114; fill:#231F20;" xml:space="preserve"><g transform="translate(0)"><path d="M111.5,34.3V24h-5.1v-9.1h-7.3V7.6H90V2.5H79.7V0H41.9v0.5H30.9v3.4h-10v5.9h-8.5v7.9H5.8v9.5&#10;&#9;&#9;H1.5V38H0v37.8h37.8V65.1h1.5v-9.5h4.3v-7.9h6.6v-5.9h8.5v-1.4h2.5v5.1h7.3v7.3h5.1v2.5h-1.4v8.5h-5.9v6.6h-7.9v4.3h-9.5v1.5H38.2&#10;&#9;&#9;V114H76v-1.5h10.7v-4.3h9.5v-6.6h7.9v-8.5h5.9v-10h3.4V72.1h0.5V34.3H111.5z M112.4,82H76.8v-9.8h35.6V82z M109,92H73.4V56.3h0.3&#10;&#9;&#9;v5.4h2v21.3H109V92z M103.1,100.5H67.5V64.9h4.8v28.2h30.8V100.5z M95.2,107.1H59.5V71.5h6.8v30.1h28.8L95.2,107.1z M85.6,111.4H50&#10;&#9;&#9;V75.8h8.4v32.4h27.2L85.6,111.4z M74.9,112.9H39.3V77.3h9.6v35.2h26L74.9,112.9z M74.8,52.7h31.6V25.1h4v35.6H74.8L74.8,52.7z&#10;&#9;&#9; M57.7,40.6h-7.4V9.8H22V5h35.6V40.6z M49.1,46.5h-5.5V17.7H13.5v-6.8h35.6L49.1,46.5z M42.5,54.5h-3.2V27.3H6.9v-8.4h35.6&#10;&#9;&#9;L42.5,54.5z M38.2,64h-0.4V38H2.6v-9.6h35.6L38.2,64z M36.7,74.7H1.1V39.1h35.6L36.7,74.7z M32,1.6h35.6v35.6h-8.9V3.9H32L32,1.6z&#10;&#9;&#9; M78.6,36.7h-9.8V1.1h9.8V36.7z M58.8,38.3h10v-0.5h10.9V3.6h9.3v35.6H58.8L58.8,38.3z M62.4,40.3H90V8.7h8v35.6H62.4L62.4,40.3z&#10;&#9;&#9; M69.7,45.4h29.4V16h6.2v35.6H69.7L69.7,45.4z M112.9,71H77.3v-9.3h34.2V35.4h1.4L112.9,71z"/></g></svg>